<svg xmlns="http://www.w3.org/2000/svg" xmlns:xlink="http://www.w3.org/1999/xlink" viewBox="0 0 339 212"><defs><style>.a{fill:#fff;stroke:#707070;}.b{clip-path:url(#a);}.c{fill:#333;}.d{fill:#222;}.e{fill:#aaa;}</style><clipPath id="a"><rect class="a" width="339" height="212" transform="translate(0 428)"/></clipPath></defs><g class="b" transform="translate(0 -428)"><g transform="translate(110.692 186)"><g transform="translate(-116 242)"><path class="c" d="M0,2.648,39.773,0l.81,6.885L68.691,3.24,75.9,10.125l1.3,23.491L79.465,40.5l34.832.162,2.349,3.321.81,2.835,5.751.324,19.684,24.139h41.15l3.24,2.592,3.969,10.368L197,82.219l16.12-9.315,26.812-35.075,12.394-5.589,18.874.486,28.108,5.184,22.762,14.257,13.2,27.46,7.209,61.644L340.7,267.717,339,292.181l-8.424,16.282H4.455Z" transform="translate(-1)"/><circle class="d" cx="38.396" cy="38.396" r="38.396" transform="translate(148.885 119.562)"/><path class="d" d="M134.188,90.463l-3.888,11.5v8.667h85.459l-.81-8.91L210.737,88.6l-74.2.81Z" transform="translate(-24.752 -16.831)"/><circle class="d" cx="37.424" cy="37.424" r="37.424" transform="translate(234.749 130.092)"/><rect class="d" width="95.017" height="42.122" transform="translate(172.295 216.928)"/><circle class="d" cx="10.936" cy="10.936" r="10.936" transform="translate(289.751 217.252)"/><path class="d" d="M235.5,373.5l22.276-.243L273,378.761l17.335-.081,4.131-1.134,11.26-4.86,18.712-.486h2.187v4.293l-2.025,1.863-3.078.324-1.62.81H242.223l-1.458-2.187h-3.483Z" transform="translate(-44.736 -70.704)"/><path d="M186.326,363.315a23.927,23.927,0,0,0,2.511-1.782,26.206,26.206,0,0,0,3.078-2.916c1.377-1.539,2.916-1.944,4.941-2.187,7.614-.81,15.229-.324,22.924-.729a3.633,3.633,0,0,1,1.539.4,46.08,46.08,0,0,0,45.605.324,6.974,6.974,0,0,1,3.078-.81,70.938,70.938,0,0,0,19.846-1.458,53.988,53.988,0,0,1,6.156-.972,1.986,1.986,0,0,1,1.3.486c1.62,1.458,3.321,3,4.86,4.536a1.89,1.89,0,0,0,2.106.567,40.42,40.42,0,0,0,22.762-16.768c5.022-7.371,7.533-15.715,8.586-24.544a67.651,67.651,0,0,0,.243-8.1c0-6.237,0-12.475-.162-18.712l-.486,1.215a51.236,51.236,0,0,1-6.8,13.447,4.723,4.723,0,0,0-.648,1.458c-5.346,14.986-13.69,27.7-27.136,36.452a44.85,44.85,0,0,1-24.463,7.533c-13.69.162-27.46.081-41.15.162-11.422,0-22.762.081-34.184,0a36.454,36.454,0,0,0-22.519,7.371c-2.511,1.863-4.941,3.807-8.019,4.779H40.6a6.635,6.635,0,0,1,4.86-1.539H159.352c3.078,0,6.075.081,9.153-.081a9.322,9.322,0,0,0,3.969-1.053,65.505,65.505,0,0,0,6.237-4.293,35.5,35.5,0,0,1,21.142-6.723c23.9-.081,47.792-.243,71.688.081,18.955.243,33.374-7.857,44.39-23.005a75.184,75.184,0,0,0,9.234-17.011l.486-1.215a186.018,186.018,0,0,1-28.108,17.335l-.324-.324c.405-.405.729-.972,1.215-1.215,7.938-3.645,15.067-8.667,22.438-13.2,1.539-.972,3.24-2.187,3.969-3.726,1.539-3.24,4.131-5.832,5.427-9.153s2.754-6.642,4.131-10.044h2.916v1.458c0,7.533-.081,15.067,0,22.519a55.925,55.925,0,0,1-5.184,24.058c-4.86,10.854-12.718,18.712-23.734,23.086-1.458.567-3.078.972-4.536,1.458a2.185,2.185,0,0,1-2.268-.567c-1.62-1.62-3.24-3.159-4.941-4.617a1.844,1.844,0,0,0-1.3-.324,15.733,15.733,0,0,0-2.673.567c-1.3.243-1.782.891-1.215,2.106a1.888,1.888,0,0,1-.648,2.43c-.81.729-1.539,1.539-2.268,2.268a1.89,1.89,0,0,1-1.944.486,5.143,5.143,0,0,0-2.187.324h-3a4.693,4.693,0,0,1,4.7-2.835A2.67,2.67,0,0,0,288.958,357c-4.212.324-8.343.648-12.475.972a1.131,1.131,0,0,0-.729.243c-2.592,1.62-5.184,3.321-7.776,4.941H265.71c2.835-1.62,5.67-3.159,8.505-4.779-.081-.162-.081-.324-.162-.4-2.43.081-4.86-.648-7.128,1.053a9.21,9.21,0,0,1-2.835,1.377c-2.511.972-5.1,1.863-7.7,2.835H232.336c-.324-.162-.567-.243-.891-.405-3.321-1.377-6.723-2.43-9.882-4.05-2.268-1.215-4.455-.405-6.723-.567a21.276,21.276,0,0,0,3.24,2.268c1.62.972,3.321,1.863,4.941,2.754h-2.268c-.081-.081-.162-.243-.324-.324-2.349-1.539-4.779-3-7.209-4.455a2.377,2.377,0,0,0-1.3-.324c-2.673,0-5.346.081-8.019.081h-4.212c.891,1.458,1.782,2.511,3.564,2.268a3.793,3.793,0,0,1,3.888,2.754H204.39c-.648-.162-1.377-.648-1.863-.405-1.377.567-2.187-.081-3-.972-.486-.567-1.134-1.053-1.62-1.62a9.375,9.375,0,0,1-1.134-1.944,3.509,3.509,0,0,1,.081-.405,8.1,8.1,0,0,0-2.592.729c-1.782,1.458-3.4,3.159-5.022,4.7Z" transform="translate(-7.712 -54.69)"/><path d="M5.081,274.7c2.43,0,4.86.162,7.29,0,2.349-.162,3.888-1.7,5.427-3.321a6.289,6.289,0,0,0,1.7-4.617c-.081-10.612,0-21.223-.081-31.835a5.81,5.81,0,0,0-.486-2.349,75.4,75.4,0,0,1-6.885-27.541,76.382,76.382,0,0,1,5.184-32.4,5.828,5.828,0,0,0,.243-2.349c-.567-7.776-1.134-15.553-1.782-23.248-.567-7.452-1.134-14.986-1.782-22.438l-1.7-21.871c-.648-8.1-1.3-16.282-1.944-24.382-.567-6.885-1.134-13.771-1.7-20.737C8.078,50.242,7.43,42.87,6.7,35.5c-.405-4.941-.972-9.882-1.458-14.9A5.675,5.675,0,0,0,5,19.46V14.6a11.875,11.875,0,0,1,1.377,2.916C7.025,22.619,7.511,27.8,8,32.988c.648,7.29,1.377,14.581,1.944,21.871.567,6.8,1.134,13.69,1.7,20.494.567,7.209,1.134,14.338,1.7,21.547.567,7.29,1.134,14.5,1.7,21.79.567,7.533,1.134,15.067,1.782,22.6.486,6.48.972,13.042,1.458,19.522.243,3.4.567,6.885.729,10.287a4.613,4.613,0,0,1-.324,2.106,73.588,73.588,0,0,0-4.941,34.67,71.234,71.234,0,0,0,6.4,23.734,7.924,7.924,0,0,1,.729,3.321c0,10.531-.162,21.061.081,31.592a8.707,8.707,0,0,1-2.916,6.8,9.213,9.213,0,0,1-7.29,3c-1.863-.081-3.807,0-5.751,0A10.857,10.857,0,0,0,5.081,274.7Z" transform="translate(-0.95 -2.773)"/><path d="M406.6,363.353a79.689,79.689,0,0,0,6.48-15.31,56.561,56.561,0,0,0,2.592-15.148c.081-2.916-.4-5.832-.4-8.829,0-5.346,0-10.693.243-16.039.243-6.48.648-12.961.972-19.441,0-.162.081-.324.081-.486h3.726c-.162,3-.4,5.994-.486,8.991-.324,9.315-.567,18.712-.729,28.108-.081,3.483.4,7.047.162,10.531a69.292,69.292,0,0,1-7.857,26.812c-.162.243-.243.567-.4.81Z" transform="translate(-77.239 -54.728)"/><path d="M240.365,153.779c-.81,2.025-1.539,3.888-2.268,5.751-.081.243.324.81.648.972a30.388,30.388,0,0,1,10.206,11.5c9.234,18.307-2.025,40.34-22.114,43.256a29.51,29.51,0,0,1-33.293-24.949c-2.43-16.525,8.181-31.429,24.463-34.265a28.452,28.452,0,0,1,9.8.081c.405.081.729.081,1.3.162.81-2.025,1.539-3.969,2.349-5.994-13.852-4.05-33.293,1.944-41.393,20.251A35.5,35.5,0,0,0,190.224,201c4.617,10.044,12.313,16.444,22.681,19.927H205.7a2.823,2.823,0,0,1-1.377-.486c-11.179-6.4-18.064-15.958-19.927-28.837a39.275,39.275,0,0,1,30.943-44.8c20.737-4.374,41.555,9.72,45.686,30.862,3.321,17.254-4.455,34.427-19.522,42.689a5.991,5.991,0,0,1-2.349.648c-2.187.081-4.293,0-6.48,0,16.525-6.156,25.921-17.74,26-35.723C258.672,171.519,252.03,161.151,240.365,153.779Zm-17.578,4.293a27.415,27.415,0,0,0-27.3,27.3c0,15.472,12.07,28.027,26.974,28.027a27.538,27.538,0,0,0,27.46-27.217C250.167,170.79,238.016,157.992,222.788,158.073Zm14.338,1.3c.729-1.944,1.539-3.888,2.43-6.075-2.43-.972-4.7-1.863-7.047-2.835-.891,2.268-1.62,4.212-2.349,6.075C232.508,157.506,234.776,158.4,237.125,159.369Z" transform="translate(-34.94 -27.737)"/><path d="M304.548,223.465c-1.458,0-2.673.081-3.888,0a1.5,1.5,0,0,1-.972-.648,38.6,38.6,0,0,1,.567-52.166,37.127,37.127,0,0,1,52.328-1.782,36.987,36.987,0,0,1,11.989,23.815c.081.486.162.972.243,1.539h8.829v5.589h-8.505a102.131,102.131,0,0,1-2.673,10.368A37.269,37.269,0,0,1,344,231.242c-.972.486-1.62.486-2.187-.486a7.4,7.4,0,0,0-1.053-1.3c10.774-5.1,17.821-13.366,20.332-25.111a34.554,34.554,0,1,0-68.205-9.558C292.155,206.049,296.286,215.527,304.548,223.465Z" transform="translate(-55.057 -30.19)"/><path d="M164.28,344.491H39.939a5.646,5.646,0,0,1-1.539-.486,4.794,4.794,0,0,1,1.539-.4H162.417a9.953,9.953,0,0,1,2.025.4A.6.6,0,0,0,164.28,344.491Z" transform="translate(-7.295 -65.271)"/><path d="M383.617,249.9a4.5,4.5,0,0,1,4.455,4.7,4.652,4.652,0,0,1-4.617,4.536,4.619,4.619,0,0,1,.162-9.234Z" transform="translate(-71.996 -47.472)"/><path d="M379.861,275h-1.215a1.476,1.476,0,0,1-1.62-.891,8.876,8.876,0,0,0-8.343-4.86,8.97,8.97,0,0,0-8.019,5.022,3.92,3.92,0,0,1-.81.972c-.486-2.511-.162-4.212,1.7-5.832A11.6,11.6,0,0,1,379.861,275Z" transform="translate(-68.32 -50.696)"/><path d="M359.773,288.171a2.072,2.072,0,0,1,2.349.729,9.069,9.069,0,0,0,13.2.486c1.458-1.377,1.458-1.377,3.726-1.215a12.738,12.738,0,0,1-.972,1.539,11.483,11.483,0,0,1-17.578.891A2.243,2.243,0,0,1,359.773,288.171Z" transform="translate(-68.322 -54.718)"/><path d="M363.225,310.554c-.81-.243-1.377-.405-2.025-.567a21.715,21.715,0,0,0,.567-2.187c.648.162,1.3.324,2.025.567A17.242,17.242,0,0,0,363.225,310.554Z" transform="translate(-68.614 -58.47)"/><path d="M359.9,301.615c.648-.405,1.134-.81,1.7-1.215.4.567.81,1.215,1.3,1.863-.567.405-1.134.81-1.782,1.215A18.605,18.605,0,0,1,359.9,301.615Z" transform="translate(-68.367 -57.065)"/><path d="M200.486,283.893a4.72,4.72,0,0,1-5.589,1.215.851.851,0,0,1-.405-.729,24.254,24.254,0,0,1,0-2.43c.81.162,1.458.324,2.187.405.405,0,1.134-.162,1.215-.405.243-.648,1.053-1.458.243-2.187a2.86,2.86,0,0,1-.648-3.321c.243-.729.486-1.377.729-2.106a2.408,2.408,0,0,1,2.268-1.782c1.3,0,1.215-1.134,1.458-1.863.081-.243-.405-.891-.729-1.134-1.863-1.377-3.807-2.754-5.751-4.05a1.8,1.8,0,0,1-.972-1.863c.081-.729,0-1.539,0-2.511,2.106,1.458,3.969,2.754,5.994,4.212a8.41,8.41,0,0,1,.243-.972A9.643,9.643,0,0,1,210.206,257h93.4a9.5,9.5,0,0,1,9.639,9.8v40.907a9.491,9.491,0,0,1-9.72,9.882H210.287a9.586,9.586,0,0,1-9.8-8.262,9.3,9.3,0,0,1-.081-1.539V285.513A10.854,10.854,0,0,0,200.486,283.893Zm56.46-26.083H210.611a8.712,8.712,0,0,0-8.505,5.346c-1.053,2.268-.891,2.673,1.134,3.969a3.423,3.423,0,0,1,1.782,3.807c-.405,1.782-.648,3.807-2.835,4.374-.648.162-.81.486-.81,1.134v31.105a8.553,8.553,0,0,0,1.3,4.7c1.944,3.078,4.779,4.212,8.262,4.212H284c6.318,0,12.556-.081,18.874,0,6.4.081,9.558-4.779,9.477-9.639-.162-13.285-.081-26.569-.081-39.854a10.321,10.321,0,0,0-.162-2.268c-.972-4.293-4.374-6.966-9.072-6.966C287.727,257.81,272.336,257.81,256.945,257.81Z" transform="translate(-36.939 -48.82)"/><path d="M319.5,249.6h9.072a36.692,36.692,0,0,1,5.994.324,12.889,12.889,0,0,1,4.05,1.782A31.652,31.652,0,0,1,319.5,249.6Z" transform="translate(-60.693 -47.415)"/><path d="M344.867,310.573a20.287,20.287,0,0,0-.567-2.106c.648-.162,1.3-.324,2.025-.567.162.729.324,1.377.567,2.187C346.163,310.249,345.515,310.411,344.867,310.573Z" transform="translate(-65.404 -58.489)"/><path d="M346.415,300.4l1.7,1.215c-.4.648-.81,1.215-1.215,1.863-.567-.405-1.134-.729-1.7-1.215C345.605,301.7,345.929,301.048,346.415,300.4Z" transform="translate(-65.575 -57.065)"/><path d="M241.864,191.884A13.084,13.084,0,1,1,228.742,178.6,13.261,13.261,0,0,1,241.864,191.884Zm-24.625,0a11.549,11.549,0,0,0,11.5,11.746,11.747,11.747,0,1,0-11.5-11.746Z" transform="translate(-40.975 -33.927)"/><path class="e" d="M158.879,166.287c.567-2.349,1.053-4.374,1.377-6.48.162-.891.486-1.215,1.377-1.134a13.068,13.068,0,0,0,1.782,0v9.8h-1.782v-6.723h-.324c-.486,2.268-.972,4.455-1.539,6.8h-2.025c-.567-2.349-1.053-4.7-1.62-7.047h-.162v6.966H154.1v-9.882a22.707,22.707,0,0,1,2.349,0c.243,0,.567.405.648.729.486,1.863.891,3.726,1.377,5.589A6.211,6.211,0,0,0,158.879,166.287Z" transform="translate(-29.273 -30.12)"/><path class="e" d="M334.606,166.7c2.916.648,5.751,1.215,8.505,1.863,1.377.324.324,1.134.405,1.944-1.944-.405-3.726-.81-5.508-1.215,0,.081-.081.162-.081.243,1.377.972,2.754,1.944,4.212,2.916.486.324.891.567.81,1.377-.162.81-.648.81-1.215.891a37.319,37.319,0,0,0-5.022,1.134c1.782.405,3.564.81,5.427,1.215-.081.567-.243,1.134-.324,1.7-3.159-.729-6.237-1.377-9.315-2.025.162-2.187.162-2.187,2.187-2.511,1.62-.324,3.24-.567,4.86-.81.243,0,.405-.162.81-.243-1.62-1.134-3.159-2.187-4.617-3.24C333.958,168.887,333.958,168.887,334.606,166.7Z" transform="translate(-63.162 -31.667)"/><path class="e" d="M183.726,147.165c0,3.807-2.349,5.913-5.994,5.1a2.118,2.118,0,0,1-.648-.243c-1.782-.81-2.43-2.349-2.592-4.212-.162-2.106.162-4.131,2.187-5.265a4.831,4.831,0,0,1,5.1.162C183.321,143.763,183.726,145.383,183.726,147.165Zm-7.452,0c.243,1.377.405,2.673,1.782,3.24a2.354,2.354,0,0,0,2.592-.324c1.053-.891,1.377-3.24.729-4.779a2.34,2.34,0,0,0-4.131-.567A10.876,10.876,0,0,0,176.274,147.165Z" transform="translate(-33.14 -26.955)"/><path class="e" d="M269.527,147.176c0,3.807-2.349,5.832-5.913,5.1a.3.3,0,0,1-.243-.081c-2.187-.567-3.321-2.754-3.078-5.832.162-2.511,1.62-4.131,3.807-4.374C267.5,141.668,269.446,143.612,269.527,147.176Zm-2.025.162c-.081-.567-.081-1.053-.162-1.539a2.43,2.43,0,0,0-2.511-2.106,2.456,2.456,0,0,0-2.43,2.268,9.847,9.847,0,0,0,.162,3.078,2.14,2.14,0,0,0,2.268,1.62,2.262,2.262,0,0,0,2.268-1.62A7.349,7.349,0,0,0,267.5,147.338Z" transform="translate(-49.44 -26.966)"/><path class="e" d="M281.314,152.029c-1.3.324-2.187.081-2.754-1.215a26.978,26.978,0,0,0-3.078-5.022v6.318H273.7v-9.558c1.782-.405,1.863-.324,2.754,1.215a54.793,54.793,0,0,0,3.078,4.941V142.47h1.782Z" transform="translate(-51.993 -27.04)"/><path class="e" d="M361.315,193.479c.81-.486,1.3-.729,1.863-1.053a3.242,3.242,0,0,0,5.022-.729c.162-.324.243-.891.081-1.053a1.7,1.7,0,0,0-1.134-.567,22.733,22.733,0,0,0-2.511.648,11.892,11.892,0,0,1-2.349.405,2.113,2.113,0,0,1-2.025-3c.81-2.025,3.969-3.726,5.913-3.159.729.162,1.3.81,2.187,1.458-.81.486-1.377.729-1.863,1.053-1.377-1.053-2.592-1.053-3.807.162-.324.324-.324.891-.567,1.377.486.162.972.486,1.377.405.972-.162,1.944-.567,3-.81a4.455,4.455,0,0,1,1.782-.162,2.206,2.206,0,0,1,1.944,3.078c-.81,2.268-4.7,4.293-6.966,3.4A8.609,8.609,0,0,1,361.315,193.479Z" transform="translate(-68.405 -35.117)"/><path class="e" d="M367.149,211.393h-1.944c-.162-3.159-.243-6.318-.4-9.8,2.025,0,4.05-.081,5.994,0a2.532,2.532,0,0,1,2.349,2.835,2.6,2.6,0,0,1-2.349,2.916,16.184,16.184,0,0,1-2.835.162c-.81,0-.972.324-.972,1.053C367.068,209.449,367.068,210.34,367.149,211.393Zm-.162-5.427c1.053-.081,2.025,0,2.916-.162a1.759,1.759,0,0,0,1.134-1.134c.081-.405-.405-1.377-.729-1.377a14.447,14.447,0,0,0-3.24,0C366.987,204.1,366.987,204.994,366.987,205.966Z" transform="translate(-69.298 -38.288)"/><path class="e" d="M360.515,177.285c-.891,1.782-.972,1.944-2.592,1.377a1.662,1.662,0,0,0-2.349.81c-.081.162-.162.243-.243.405-1.215,1.539-1.3,1.62-.243,3.24.81,1.215-.162,1.7-.729,2.592-.891-1.62-1.7-3.159-2.592-4.7-.729-1.377-1.539-2.673-2.187-4.05a1.189,1.189,0,0,1,.081-1.053c.243-.405.81-.891,1.134-.81C354.115,175.665,357.275,176.475,360.515,177.285Zm-7.209,2.673c.567-.729.972-1.377,1.539-2.106-1.053-.324-2.025-.567-2.916-.81-.081.081-.081.162-.162.243C352.252,178.1,352.738,178.905,353.305,179.958Z" transform="translate(-66.39 -33.26)"/><path class="e" d="M187.9,142.5h6.723v1.62h-4.7v2.268h4.05v1.7h-4.05v4.05h-1.944C187.9,148.9,187.9,145.74,187.9,142.5Z" transform="translate(-35.694 -27.07)"/><path class="e" d="M204.723,142.5v1.62h-4.7v2.187h4.05c0,.567.081,1.053.081,1.7h-4.212v4.05H198V142.5Z" transform="translate(-37.612 -27.07)"/><path class="e" d="M132.4,153.542c.081-.324.243-1.053.486-1.782.081-.243.567-.324.81-.486.081.324.243.648.162.891a4.033,4.033,0,0,0,.486,4.05,3.954,3.954,0,0,0,5.832.81,4.156,4.156,0,0,0,.324-6.156c-.324-.405-1.3-.648-.648-1.377.162-.162,1.134.243,1.458.648a5.25,5.25,0,0,1,.729,6.4,5.125,5.125,0,0,1-5.832,2.349C134.1,158.4,132.481,156.3,132.4,153.542Z" transform="translate(-25.151 -28.391)"/><path class="e" d="M214.53,140a2.276,2.276,0,0,1,2.349,2.43,2.37,2.37,0,0,1-2.349,2.43,2.437,2.437,0,0,1-2.43-2.43A2.387,2.387,0,0,1,214.53,140Z" transform="translate(-40.291 -26.595)"/><path class="e" d="M248.43,140a2.276,2.276,0,0,1,2.349,2.43,2.37,2.37,0,0,1-2.349,2.43,2.437,2.437,0,0,1-2.43-2.43A2.387,2.387,0,0,1,248.43,140Z" transform="translate(-46.731 -26.595)"/><path class="e" d="M168.488,163.3v3.888c0,.81.243,1.377,1.134,1.377.81,0,1.134-.567,1.134-1.3v-3.888h1.215c0,1.458.081,2.916,0,4.293-.081,1.3-.891,1.944-2.349,1.944s-2.349-.648-2.43-2.025,0-2.754,0-4.293A3.457,3.457,0,0,0,168.488,163.3Z" transform="translate(-31.753 -31.021)"/><path class="e" d="M174.6,163.292c.972,0,1.944-.081,2.916,0,1.134.081,1.7.891,1.62,2.106-.081,1.134-.567,1.782-1.782,1.782H175.9c-.081.729-.081,1.458-.162,2.268h-1.053C174.6,167.423,174.6,165.479,174.6,163.292Zm1.053,1.134c.243.729-.486,1.7.81,1.782.648,0,1.377-.081,1.3-.972C177.6,163.94,176.544,164.507,175.653,164.426Z" transform="translate(-33.167 -31.012)"/><path class="e" d="M134.957,149.4c.486.243.648.243.81.405,1.134,1.053,2.268,2.187,3.321,3.321.162.243.162,1.053,0,1.134-.405.243-1.134.405-1.3.162-1.053-1.215-2.025-2.592-3-3.969A2.772,2.772,0,0,1,134.957,149.4Z" transform="translate(-25.602 -28.38)"/><path class="e" d="M139.947,149.089c-.486.324-.891.81-1.3.81s-.972-.648-1.053-1.053a.912.912,0,0,1,1.134-1.053c.486.081.81.486,1.215.81Z" transform="translate(-26.137 -28.07)"/><path class="e" d="M246.273,158.827a2.664,2.664,0,0,1-2.673-2.754,2.628,2.628,0,0,1,2.592-2.673,2.715,2.715,0,0,1,.081,5.427Z" transform="translate(-46.275 -29.14)"/><path d="M260.2,311.252H214.111c-2.025,0-2.511-.405-2.511-2.511v-39.53c0-2.025.486-2.511,2.43-2.511h92.425c1.944,0,2.349.405,2.349,2.349v39.773c0,1.944-.405,2.349-2.349,2.349C290.984,311.252,275.593,311.252,260.2,311.252Zm46.172-42.284H215.326c-1.134,0-1.458.243-1.458,1.458.081,12.394,0,24.787,0,37.181v1.3h92.506Z" transform="translate(-40.196 -50.663)"/><path d="M230.513,187.6a6.035,6.035,0,1,1-5.913,6.075A5.932,5.932,0,0,1,230.513,187.6Zm-4.455,5.994a4.445,4.445,0,0,0,4.374,4.536,4.565,4.565,0,0,0,4.455-4.536,4.415,4.415,0,1,0-8.829,0Z" transform="translate(-42.665 -35.637)"/><path d="M344.849,165.572c-.081-10.125,0-20.332-.243-30.457a155.538,155.538,0,0,0-1.134-16.282c-.81-7.209-1.944-14.338-3.078-21.466-1.134-6.885-2.187-13.852-3.645-20.656A55.961,55.961,0,0,0,325.408,52.9c-6.4-7.7-14.581-12.718-23.9-16.12-7.209-2.673-14.662-4.131-22.2-5.508-7.776-1.458-15.553-2.511-23.491-1.7-8.424.81-15.715,4.212-21.061,11.017-2.916,3.726-5.427,7.857-8.019,11.827-4.617,6.885-9.315,13.69-15.391,19.441a39.5,39.5,0,0,1-16.444,9.882c-.972.243-1.863.486-2.835.648-.972-3.24-1.863-6.4-2.835-9.477-.162-.486-.405-1.134-.81-1.3a18.534,18.534,0,0,0-5.022-1.377c-11.989-.081-23.977-.162-35.885,0-2.268,0-3.726-.567-4.779-2.673-1.134-2.268-2.592-4.455-5.022-5.589-.243-.081-.405-.405-.567-.729C134.077,56.622,131,52.085,128,47.468a7.18,7.18,0,0,0-6.8-3.564h-2.349c.324-1.539-.729-2.511-1.377-3.645a3.021,3.021,0,0,0-2.916-1.539c-10.774.081-21.466,0-32.24,0h-1.3c-.891-1.863.648-4.86-2.754-5.184l-.243-5.346c-.324-5.994-.648-12.07-.972-18.064-.405-4.779-2.673-6.885-7.371-6.885-1.215,0-2.349.162-3.564.162H44.406V0H40.761V4.131c-.486,0-.891.081-1.215.081H19.214c-.972,0-1.377-.324-1.458-1.215a17.83,17.83,0,0,0-.567-3H14.92c.324,1.62.567,3.159.891,4.779,2.268,10.287,3,20.818,4.374,31.186,1.3,9.72,2.43,19.441,3.564,29.161,1.215,10.368,2.268,20.656,3.564,31.024a240.551,240.551,0,0,1,1.377,28.594c.081,15.877.081,31.672.162,47.549a4.23,4.23,0,0,1-.324,1.7,65.292,65.292,0,0,0-4.617,20.818c0,.162-.081.405-.081.648H14.11v5.508h9.72c.324,2.592.486,5.184,1.053,7.7.891,3.888,1.863,7.776,3.078,11.5a20.6,20.6,0,0,1,.648,6.642c0,4.941-.081,9.8-.162,14.743-.081,9.153-.243,18.388-.243,27.541,0,5.022.162,10.044.243,15.067v1.458a41.458,41.458,0,0,0-3.564-4.374A53.447,53.447,0,0,0,18,275.98a8.3,8.3,0,0,0-4.455-1.134c-2.754,0-5.508.324-8.343.567v.891c2.754-.243,5.508-.567,8.343-.567a9.2,9.2,0,0,1,4.131,1.053,23.752,23.752,0,0,1,10.611,10.854c.162.324.486.486.729.729a2.83,2.83,0,0,0,.405-1.053c.081-1.944,0-3.888,0-5.832a5.348,5.348,0,0,1,.081-1.134h.405c.081,9.4.243,18.793.324,28.189h1.62c-.081-5.994-.081-11.989-.243-17.983-.162-4.617,0-9.234-.81-13.771a50.061,50.061,0,0,1-.891-6.885c-.081-3.807.081-7.7.162-11.5l.243-28.675v-3.888a2.7,2.7,0,0,1,.891,1.053,61.083,61.083,0,0,0,105.629,5.832,1.371,1.371,0,0,1,1.782-.729c1.134.324,2.268.486,3.483.729,2.673.567,5.346,1.053,8.1,1.62v-3.078c-2.187-.486-4.374-.891-6.561-1.377.162-.486.324-.81.405-1.134,2.349-7.047,5.913-13.69,7.047-21.142.081-.729.081-1.134-.567-1.539-.891-.567-1.7-1.3-2.673-1.863a1.468,1.468,0,0,1-.729-1.62,58.942,58.942,0,0,0-.891-16.444,61.94,61.94,0,0,0-17.9-33.455,60.95,60.95,0,0,0-67.4-12.151h0l-5.1,2.592-6.642,4.05-.972.81.081.081c-.972.81-2.106,1.782-3.321,2.835l-3.726,3.726h0a59.892,59.892,0,0,0-9.882,13.852l-.648.972v-1.3c-.081-14.176-.081-28.432-.162-42.608-.081-6.885-.081-13.771-.567-20.656-.729-9.234-1.863-18.388-2.916-27.622-1.215-10.53-2.511-21.061-3.807-31.591C21.968,35.4,20.672,25.192,19.457,14.9c-.162-1.458-.324-2.916-.486-4.293a1.2,1.2,0,0,1,.486-.081c4.941,0,9.8-.081,14.743.081a9.9,9.9,0,0,1,4.536,1.377C47.97,18.064,57.2,24.382,66.358,30.538a4.473,4.473,0,0,1,2.025,2.835c.81,3.078.81,3,3.969,2.754,1.215-.081,2.511-.567,3.4.81a.577.577,0,0,0,.486.243c.972-.081,1.053.567,1.134,1.377.081,1.215-.081,2.592.486,3.483a8.378,8.378,0,0,1,.972,3.888c.486,5.1,1.215,10.125,1.458,15.229.324,7.614.405,15.148.486,22.762,0,1.539.324,1.863,1.782,1.863h18.226c-.162,6.075-.324,12.07-.486,18.064H53.154c-.081-.486-.162-.891-.243-1.3-.729-6.642-1.377-13.285-2.106-20.008-1.053-9.8-2.025-19.522-3.078-29.323-.972-9.72-1.944-19.441-2.916-29.08a28.786,28.786,0,0,0-2.025-8.667,3.635,3.635,0,0,0-.891-1.053.614.614,0,0,1-.324.162,4.946,4.946,0,0,0,.243,1.053,28.562,28.562,0,0,1,2.106,8.991c.405,4.374.81,8.748,1.215,13.2.81,7.7,1.62,15.31,2.43,23.005L49.752,81.49c.729,6.885,1.458,13.852,2.187,20.818a12.363,12.363,0,0,1-.243,2.43,1,1,0,0,0,.81,1.377,4.981,4.981,0,0,0,1.134.081H199.852c17.659,0,35.4-.081,53.057.081a144.836,144.836,0,0,1,15.715.972,37.747,37.747,0,0,1,14.581,4.779c10.854,6.561,21.871,13.042,32.726,19.684a7.237,7.237,0,0,1,2.592,2.349,108.871,108.871,0,0,1,6.156,10.125,42.493,42.493,0,0,1,4.617,19.765c-.162,19.522-.081,39.044-.081,58.566v1.458h2.268V161.6a36.528,36.528,0,0,0-.567-5.913,53.352,53.352,0,0,0-10.449-22.924,2.242,2.242,0,0,1-.162-3c1.3-2.025,2.349-4.131,3.564-6.237.81-1.377.729-1.782-.729-2.592-2.349-1.377-4.7-2.673-7.047-3.969l-1.215-.729c.243-.405.4-.81.567-1.134,3.564-6.723,7.128-13.447,10.693-20.089a2.074,2.074,0,0,0,0-2.349,20.6,20.6,0,0,0-16.2-9.315,2.066,2.066,0,0,0-2.187,1.215c-3.726,6.642-7.452,13.2-11.178,19.846-.162.324-.405.729-.648,1.134-2.835-1.62-5.589-3.159-8.262-4.7-1.377-.81-1.62-.729-2.511.567-1.458,2.187-2.916,4.293-4.374,6.4h-.243c-.729-.243-1.539-.567-2.268-.81-7.452-2.592-15.148-3.24-23.005-3.24H198.394c-.243-6.4.486-12.718-.891-18.793,2.754-1.377,5.427-2.43,7.938-3.888,7.209-4.212,12.961-10.125,17.821-16.93,4.293-5.913,8.181-12.07,12.232-18.064a30.426,30.426,0,0,1,9.153-9.315c5.994-3.726,12.718-4.293,19.522-4.05a117.755,117.755,0,0,1,19.2,2.673c6.966,1.458,13.933,3,20.494,5.832,10.125,4.293,18.388,10.936,23.815,20.737a67.045,67.045,0,0,1,7.209,21.79c1.377,8.1,2.592,16.2,3.807,24.3a194.9,194.9,0,0,1,2.511,24.706c.162,7.7.162,15.391.243,23.086.081,10.855.162,21.79.243,32.645,0,4.779.081,9.558.081,14.257,0,4.536-.081,9.072-.162,13.609-.081,2.43-.243,4.941-.324,7.452h3.726c.162-2.349.324-4.617.324-6.885.081-7.29.081-14.662.081-21.952C345.011,185.418,344.849,175.454,344.849,165.572Zm-198.54,41.636c1.134.81,2.187,1.458,3.159,2.268.243.162.162.81,0,1.215l-6.318,16.768c-.891,2.43-.891,2.349-3.4,1.782a7.848,7.848,0,0,1-.891-.243A63.807,63.807,0,0,0,146.309,207.208Zm-61-68.691c32.321,0,58.728,26.65,58.647,59.376-.081,33.131-26.083,59.295-58,59.538-33.212.324-58.89-26.569-59.052-58.89C26.666,165.248,52.83,138.516,85.313,138.516ZM74.377,35.318c-1.539.081-3,.162-4.374.162-.243,0-.486-.243-.648-.486a1.171,1.171,0,0,1-.162-.567C68.95,31.834,67.33,30.376,65.3,29c-8.829-5.832-17.578-11.746-26.326-17.659a10.022,10.022,0,0,0-5.832-1.7H18.4C18.242,8.505,18.161,7.533,18,6.4c.405,0,.729-.081,1.053-.081H40.113a4.917,4.917,0,0,1,1.458.405,7.584,7.584,0,0,0,1.3.324c8.748,0,17.416,0,26.164-.081,3.483,0,3.969.324,4.131,3.645.486,7.776.81,15.634,1.215,23.41A6.926,6.926,0,0,1,74.377,35.318Zm211.987,68.043c2.43,1.377,4.779,2.673,7.128,4.05,3.159,1.863,2.835,1.7,4.617-1.3,3.645-6.4,7.209-12.8,10.855-19.279a1.257,1.257,0,0,1,1.377-.81,18.854,18.854,0,0,1,12.8,7.128A1.475,1.475,0,0,1,323.3,95.1c-3.726,6.885-7.371,13.771-11.017,20.575-.81,1.539-.729,1.863.81,2.754,2.673,1.539,5.427,3,8.181,4.617-1.377,2.43-2.673,4.779-4.05,7.128-11.665-6.966-23.248-13.933-34.913-20.9C283.61,107.33,284.987,105.386,286.364,103.361ZM189.4,81.571a.079.079,0,0,0,.081-.081c.243,1.458.648,2.835.81,4.293a28.266,28.266,0,0,1,0,4.536c0,.891,0,.891-.891.729Zm-4.779-8.91c1.053.648,2.106,1.3,2.349,2.835a35.628,35.628,0,0,0,1.053,5.1c.891,3.24.567,6.4.324,9.639,0,.162-.081.324-.405.486-.405-3-.729-5.994-1.3-8.991-.648-3-1.539-5.913-2.349-8.91A.614.614,0,0,0,184.623,72.66Zm.486,7.614c1.62,3.483,1.62,7.128,1.62,10.855h-1.7C185.514,87.484,186.324,83.92,185.109,80.275Zm-5.184-7.614a3.871,3.871,0,0,1,3.4,3.4c.486,2.754,1.215,5.427,1.458,8.181a33.084,33.084,0,0,1-.567,6.237c0,.162-.324.324-.405.324-.162-.162-.486-.405-.486-.648-.486-2.106-.891-4.131-1.3-6.237-.729-3.483-1.377-6.885-2.025-10.368C179.844,73.308,179.925,72.984,179.925,72.66Zm-.81,1.782c1.134,5.589,2.187,11.1,3.321,16.768h-3.4c1.62-5.67.729-11.179-.243-16.768Zm-1.053,1.134c.324,2.43.891,4.779.972,7.209a49.467,49.467,0,0,1-.405,5.913,3.567,3.567,0,0,1-.162,1.3,6.182,6.182,0,0,1-.648.891c-.243-.243-.648-.486-.729-.81-.648-3.321-1.215-6.642-1.782-9.963-.405-2.43-.891-4.86-1.3-7.371C176.442,72.336,177.738,73.389,178.062,75.577Zm-5.1-3c1.053,6.156,2.187,12.313,3.321,18.631h-4.05c.405-3.159,1.7-6.237.972-9.4-.648-3,0-6.318-1.62-9.234Zm-4.779,0c1.944.081,3.4.81,3.483,3.159.081,2.592.405,5.184.729,7.7.324,2.43-.729,4.617-1.053,6.885,0,.162-.648.486-.972.405a1.218,1.218,0,0,1-.729-.81c-.405-1.863-.648-3.807-.972-5.67-.486-3.078-1.053-6.075-1.539-9.153a3.4,3.4,0,0,1-.081-1.3C166.965,72.984,167.208,72.255,168.18,72.579Zm-2.349,0c.729,4.7,1.539,9.315,2.268,13.933.243,1.539.486,3,.81,4.7h-4.779a23,23,0,0,1,.648-2.754c1.3-3.888.405-7.776.324-11.746,0-.324-.081-.729-.081-1.053,0-1.134.081-2.268-1.053-3.078Zm-6.723,1.053a1.07,1.07,0,0,1,1.215-1.053,3.3,3.3,0,0,1,3.24,1.215,2.035,2.035,0,0,1,.486,1.134c.162,2.835.324,5.67.486,9.477-.243,1.3-.729,3.564-1.3,5.913a1.353,1.353,0,0,1-1.053.567,1.2,1.2,0,0,1-.972-.648c-.567-2.592-1.134-5.1-1.539-7.7-.324-2.349-.486-4.779-.729-7.128C159.026,74.766,159.026,74.2,159.107,73.632Zm-1.134-1.053c.324,3.159.486,6.237.891,9.315s.972,6.156,1.539,9.4h-5.184c2.025-6.156,1.863-12.394,1.215-18.631A9.3,9.3,0,0,1,157.973,72.579Zm-5.832,0a11.923,11.923,0,0,1,1.7,0,2.1,2.1,0,0,1,1.944,2.268v5.346c.405,2.916-.324,6.4-1.3,9.8-.162.729-.486.81-1.134.81s-.972-.081-1.215-.81c-1.62-5.1-1.458-10.449-1.7-15.715A1.574,1.574,0,0,1,152.141,72.579Zm-4.293,9.4c.243-3.078.81-6.156.162-9.4h1.782c0,1.215-.081,2.43-.081,3.645.162,5.022.162,10.044,2.025,14.986h-5.1C146.957,88.051,147.6,85.054,147.848,81.976Zm-5.832-7.209a2.02,2.02,0,0,1,1.863-2.187h.243c2.754-.243,3.321.405,3.159,3.159-.162,2.511-.162,5.1-.405,7.614-.324,2.349-.891,4.617-1.377,6.885-.081.243-.648.405-1.053.486a.935.935,0,0,1-1.134-.81c-.891-3.4-1.539-6.885-1.215-9.639C142.015,78.007,142.015,76.387,142.015,74.766Zm-.405-2.187c-.972,3.078-.243,6.237-.486,9.315-.243,3.159.729,6.156,1.458,9.315H137.4c1.782-6.075,2.268-12.313,2.511-18.631ZM118.443,89.185c.081.648.162,1.3.243,2.025h-3.159c.324-1.863.729-3.645,1.053-5.427.81-4.05,1.62-8.181,2.43-12.232.081-.567.243-1.215,1.215-.81-1.782,1.458-1.215,3.4-1.62,5.184a34.634,34.634,0,0,0-.729,4.941C117.957,84.892,118.281,87,118.443,89.185Zm-5.508,1.944h-1.62c-.081-3.645,0-7.29,1.539-10.692C111.639,84,112.449,87.484,112.935,91.129Zm-2.754-.486c0,.081-.162.081-.486.243-.081-.486-.081-.81-.162-1.215-.729-4.617.486-9.072,1.3-13.609a4.394,4.394,0,0,1,2.835-3.483C112.206,78.736,110.019,84.487,110.181,90.643ZM113.745,81a25.594,25.594,0,0,0,.891-4.86,3.088,3.088,0,0,1,1.944-2.835,11.312,11.312,0,0,0,1.377-.729.421.421,0,0,0,.324.162c-.324,1.863-.729,3.726-1.053,5.508-.729,3.726-1.539,7.533-2.268,11.26a1.5,1.5,0,0,1-.162.567c-.162.243-.405.486-.567.729-.162-.243-.405-.486-.405-.729C113.259,87.079,112.854,84.082,113.745,81Zm5.832-3.078a8.362,8.362,0,0,0,.324-2.43c-.081-1.944,2.106-3.321,4.131-2.754-.81,4.455-1.539,8.829-2.349,13.285-.243,1.3-.405,2.673-.729,3.969-.081.324-.486.567-.729.81-.243-.243-.648-.486-.729-.81A28.866,28.866,0,0,1,119.577,77.926ZM125,72.579h1.7c-1.215,1.053-1.134,2.349-1.3,3.564-.243,2.592-.729,5.265-.729,7.857a37.262,37.262,0,0,0,.891,5.913c.081.405.162.729.243,1.215h-4.05C122.817,84.973,123.871,78.817,125,72.579Zm.648,13.2c-.081-2.025.162-3.969.243-5.994.081-1.377.324-2.673.405-4.05.081-2.43,1.539-3.159,3.4-3.159,1.134,0,1.458.324,1.3,1.7-.243,1.62-.486,3.24-.81,4.941-.567,3.564-1.215,7.047-1.782,10.611-.081.567-.162,1.053-.972,1.053-.729,0-.891-.405-.972-.972A41.209,41.209,0,0,1,125.653,85.783Zm4.86-3.159c.405-2.511.891-4.941,1.215-7.452a13.848,13.848,0,0,0,0-2.592h2.349c-1.782,1.377-1.053,3.24-1.3,4.941-.243,1.458-.081,3-.243,4.536-.324,2.673.405,5.1.972,7.614.081.486.243.972.324,1.539h-4.779C129.622,88.294,130.027,85.459,130.513,82.624Zm2.916,1.782c.162-3.888.324-6.723.486-9.558a2.792,2.792,0,0,1,2.025-2.187,6.62,6.62,0,0,1,2.187-.081c.972.162.891,1.053.891,1.782-.162,1.863-.243,3.807-.486,5.67-.486,3.24-1.053,6.561-1.62,9.8-.081.729-.405,1.053-1.215,1.053s-.972-.405-1.053-1.053C134.077,87.646,133.591,85.54,133.429,84.406ZM80.7,45.524a17.257,17.257,0,0,1-.243-2.025.968.968,0,0,1,.648-.729c.324-.162.648,0,1.053,0h30.619c2.187,0,2.511.405,2.268,2.835C103.539,45.524,92.117,45.524,80.7,45.524Zm0,.972h33.131a1.72,1.72,0,0,1,1.62.729,2.95,2.95,0,0,0,1.863.729c1.458.081,3-.081,4.455-.081a2.7,2.7,0,0,1,2.43,1.215c3.078,4.617,6.075,9.153,9.234,13.933H82.235C81.749,57.513,81.263,52.085,80.7,46.5ZM83.45,83.677a3.039,3.039,0,0,1-.81-.081c-.162-6.48-.243-12.961-.405-19.6.486,0,.891-.081,1.3-.081h49.736a1.693,1.693,0,0,1,1.7.891.7.7,0,0,0,.567.486c2.349.729,3,2.916,4.455,4.86h-2.268c-7.7,0-15.391-.081-23.086.081-1.7,0-3.483.81-5.1,1.3-.324.081-.648.729-.81,1.215-.972,3.24-2.025,6.48-2.916,9.72-.162.567-.405.891-1.053.891C97.544,83.434,90.5,83.6,83.45,83.677Zm25.273,7.371c-.648.243-1.215.486-1.3-.567a21.267,21.267,0,0,1,1.782-10.936C107.913,83.353,108.48,87.241,108.723,91.048Zm86.917,12.961h-93.4c.243-5.994-.486-11.989.81-17.983h2.106v2.43c0,1.7.081,3.4.081,5.1,0,.972.486,1.377,1.458,1.377h83.92c1.944,0,2.106-.162,2.106-2.106V87.808c0-1.863,0-1.863,2.106-2.106C196.126,91.777,195.478,97.853,195.64,104.009Z" transform="translate(-0.988)"/><path d="M182.529,285.4l10.693,2.187.081,3.159-11.5-2.43Z" transform="translate(-34.535 -54.215)"/><path d="M192.72,260.7l-9.558-6.8L183,257.464l10.692,7.614Z" transform="translate(-34.763 -48.231)"/><g transform="translate(35.308 115.916)"><g transform="translate(0 11.225)"><path class="e" d="M5.478,21.513c-.238-.318-.4-.556-.556-.794l-.476.873c-.476-.318-.635-.4-.953-.635a7.093,7.093,0,0,1-1.905,1.111l.873.318A7.533,7.533,0,0,1,1.35,25.561L0,24.529a5.282,5.282,0,0,0,.953-2.3A3.826,3.826,0,0,0,0,20.878a5.3,5.3,0,0,0,1.905-.794c-.556-.318-.794-.4-1.429-.714.318-.635.556-.953.794-1.508H.953a2.449,2.449,0,0,0-.714.079V16.353a3.256,3.256,0,0,0,.873.079h.714A3.584,3.584,0,0,0,2.064,15.4l1.826.238a4.075,4.075,0,0,0-.318.794h.476a2.212,2.212,0,0,0,.794-.079l.4.476v-.953c.238,0,.476.079.953.079h2.54a1.991,1.991,0,0,0,.794-.079l.794.873a4.316,4.316,0,0,1-.318.635,9.105,9.105,0,0,1-1.27,2.3,4.632,4.632,0,0,0,1.826.714,8.961,8.961,0,0,0-.873,1.746c-.4-.159-.476-.238-.714-.318A16.011,16.011,0,0,1,10.4,24.688l-1.508.794a10.055,10.055,0,0,0-1.429-3.1l1.35-.556a9.963,9.963,0,0,1-1.35-.873,10.54,10.54,0,0,1-1.27.953,6,6,0,0,1,.873,1.111l-.556.318a3.554,3.554,0,0,0,1.588.318c-.079,1.191-.238,1.667-.635,1.985-.318.238-.953.318-2.461.318-1.985,0-2.382-.238-2.382-1.191V23.1a4.218,4.218,0,0,0-.079-1.111H4.287c0,.238-.079.476-.079,1.111v.953c0,.238.079.318.794.318.953,0,1.111,0,1.27-.238a1.567,1.567,0,0,0,.079-.714l-.714.4a10.679,10.679,0,0,0-1.111-1.746ZM3.017,17.861c-.159.318-.159.4-.4.873a1.365,1.365,0,0,1,.556.318,4.148,4.148,0,0,0,.556-1.191ZM5,20.481a5.748,5.748,0,0,0,1.508-.873,14.437,14.437,0,0,1-1.191-1.826l1.27-.476H5.478a3.268,3.268,0,0,1-.238.635,9.227,9.227,0,0,1-.714,1.667,7.376,7.376,0,0,0,.794.4Zm1.905-3.1A3.909,3.909,0,0,0,7.7,18.575a4.352,4.352,0,0,0,.635-1.191Z" transform="translate(0 -15.4)"/></g><g transform="translate(16.274 3.096)"><path class="e" d="M20.5,13.029a5.265,5.265,0,0,0,1.032-2.461l1.429.635a8.932,8.932,0,0,1-1.111,2.858Zm6.827-1.35A5.487,5.487,0,0,0,28.756,12a9.725,9.725,0,0,0-.635-.953l1.429-.714a15.355,15.355,0,0,1,1.508,2.7L29.55,13.9a12.378,12.378,0,0,0-.794-1.746c-.079,1.985-.318,2.143-3.1,2.143-2.064,0-2.461-.159-2.461-1.191V11.124c-.318-.318-.635-.556-1.111-.953A3.2,3.2,0,0,0,23.2,9.3c-.318.079-.635.159-1.111.238a6.329,6.329,0,0,0-1.191.238l-.159-1.508h.4c.635,0,1.667-.079,2.7-.159,0-.159,0-.238.079-.318H22.485a5.287,5.287,0,0,0-1.27.079V6.44h2.7v-.4H22.167a5.287,5.287,0,0,0-1.27.079V4.694a6.443,6.443,0,0,0,1.35.079h1.667a2.447,2.447,0,0,0-.079-.794h1.746V7a5.718,5.718,0,0,1-.556,2.7,3.038,3.038,0,0,1-.635.873h.635c0,.238-.079.4-.079.873v.953c0,.159,0,.238.159.238a4.476,4.476,0,0,0,.556.079c1.111,0,1.35,0,1.508-.238a1.762,1.762,0,0,0,.079-.714l-.873.556a7.382,7.382,0,0,0-1.27-1.746l1.111-.556V4.932A3.582,3.582,0,0,0,26.136,3.9h1.746c0,.318-.079.476-.079.873h1.667a6.024,6.024,0,0,0,1.27-.079V6.2c-.318,0-.635-.079-1.27-.079H27.8v.4h2.7V7.949H27.8v.4h1.826a3.932,3.932,0,0,0,1.191-.079V9.775A4.937,4.937,0,0,0,29.55,9.7H27.724a2.2,2.2,0,0,0,.079.714H26.771a13.572,13.572,0,0,1,.873,1.111Z" transform="translate(-20.5 -3.9)"/></g><g transform="translate(33.501 0.238)"><path class="e" d="M52.838,2.364c-.238,0-.318-.079-.556-.079a2.855,2.855,0,0,1-.635.953,6.477,6.477,0,0,0,1.429.159,5.962,5.962,0,0,0-.556,1.429.716.716,0,0,1-.4-.079V5.7h-3.1v.238h2.778V6.73H49.027v.318h2.778v.873H49.027V8h3.652l-.159,1.27c-.159.953-.318,1.27-.714,1.508a4.5,4.5,0,0,1-1.27.159H49.98a1.5,1.5,0,0,0-.159-.635l-.635.159a13.171,13.171,0,0,0-.476-1.27l1.032-.238H44.105l.794.318a6.346,6.346,0,0,1-1.032,1.746l-1.508-.873A4.068,4.068,0,0,0,43.47,8.715l.159.079V5.619a2.977,2.977,0,0,0-.079-.873h2.382a.477.477,0,0,0-.079-.318h-2.3V3.714a4.4,4.4,0,0,1-.635.476A5.324,5.324,0,0,0,42.2,3.078c.556-.318,1.032-.714,1.111-1.032l.238.079V1.808a4.218,4.218,0,0,0-1.111.079V.776a7.7,7.7,0,0,0,1.35.079.86.86,0,0,0-.079-.476h1.508V.856h.556V.379H47.2V.856h.079a3,3,0,0,0,.953-.079v.714A2.653,2.653,0,0,0,49.107.3l1.429.318a1.362,1.362,0,0,1-.318.476h1.35a6.417,6.417,0,0,0,1.27-.079v1.35Zm-6.43,1.508a.412.412,0,0,0,.318-.159A6.13,6.13,0,0,0,46.8,2.92H44.5a.61.61,0,0,0-.159.238h2.064v.714Zm-1.667.079h.635V3.634H44.74Zm1.667,5.239a5.278,5.278,0,0,1,.238,1.667l-1.588.079c0-.714-.079-1.191-.079-1.667Zm-.635-7.065V1.808h-.556v.318h.556ZM47.36,5.7H45.3v.238H47.36Zm0,1.032H45.3v.318H47.36ZM45.3,7.762V8H47.36V7.762Zm2.937,1.35a8.386,8.386,0,0,1,.476,1.508l-1.429.238a8.432,8.432,0,0,0-.318-1.508ZM47.36,2.126h.4a.61.61,0,0,1-.159-.238l.159-.079H47.2v.318h.159Zm.953,2.62A5.474,5.474,0,0,1,48,3.952c-.079.476-.238.714-.635.794Zm.953-1.35a2.965,2.965,0,0,1-.476-.556,1.058,1.058,0,0,1-.4.238c-.079-.159-.159-.238-.238-.4a3,3,0,0,1-.079.953C48.551,3.555,48.868,3.475,49.265,3.4Zm1.985,1.35h.635a7.641,7.641,0,0,1-1.429-.556,5.389,5.389,0,0,1-1.588.556ZM49.821,2.285a1.911,1.911,0,0,0,.635.476,1.746,1.746,0,0,0,.4-.476H49.821ZM49.9,8.953a3.659,3.659,0,0,1,.4.794c.476,0,.476,0,.556-.794Z" transform="translate(-42.2 -0.3)"/></g><g transform="translate(53.188)"><path class="e" d="M71.843,1.905h-.794V2.7a16.649,16.649,0,0,1-.714,4.287,5.327,5.327,0,0,1,.953.953V7.621h5.8V9.447a4.194,4.194,0,0,0,.079,1.032H75.415v-.318H72.954v.318H71.287c0-.318.079-.635.079-.953V8.177l-1.032,1.35c-.4-.476-.556-.635-.714-.873a11.217,11.217,0,0,1-1.588,1.905A6.008,6.008,0,0,0,67,8.971a4.585,4.585,0,0,0,1.429-1.588c-.556-.476-.714-.635-1.429-1.191a11.594,11.594,0,0,0,.794-2.778h0a2.2,2.2,0,0,0-.714.079V1.905a2.715,2.715,0,0,0,.873.079h.159c.079-.794.159-1.429.159-1.985l1.667.159a1.762,1.762,0,0,0-.079.714c-.079.476-.079.794-.159,1.111h1.429V.635a4.218,4.218,0,0,0,1.111.079h1.111a1.748,1.748,0,0,0-.079-.635h1.746a1.748,1.748,0,0,0-.079.635h1.35A4.218,4.218,0,0,0,77.4.635v1.35c-.318,0-.556-.079-1.111-.079h-1.35v.318h2.223V3.334H71.207V2.223h2.143V1.905ZM69.3,3.493a18.189,18.189,0,0,1-.556,2.223c.159.159.238.159.4.318a9.343,9.343,0,0,0,.556-2.54h-.4Zm7.145,2.62a3.907,3.907,0,0,0,1.111-.079V7.462c-.238,0-.476-.079-1.111-.079H71.922a3.608,3.608,0,0,0-1.111.079V6.033c.318,0,.476.079,1.111.079h.318a1.735,1.735,0,0,0-.238-.4h-.635V3.572H77V5.716h-.714c-.079.159-.079.238-.159.4Zm-3.493-1.35h2.54V4.446h-2.54Zm.079,4.366h2.461v-.4H73.033Zm1.588-3.017c.079-.159.079-.238.159-.4H73.589c.079.159.079.238.159.4Z" transform="translate(-67)"/></g></g></g></g></g></svg>