<svg xmlns="http://www.w3.org/2000/svg" viewBox="0 0 124.261 126.271"><defs><style>.a{fill:#222;}.b{fill:#999;}.c{fill:#fff;}</style></defs><g transform="translate(26 -198)"><g transform="translate(-26 198)"><circle class="a" cx="61.324" cy="61.324" r="61.324" transform="translate(0.654 1.548)"/><path class="a" d="M23.562,18.626,21.6,8.732,31,2.6l8.013,5.56Z" transform="translate(-4.02 -0.48)"/><path d="M86.628,74.2a13.615,13.615,0,1,1-27.228,0A13.908,13.908,0,0,1,73.137,60.3,13.7,13.7,0,0,1,86.628,74.2Zm-2.208-.082A11.326,11.326,0,1,0,73.137,85.647,11.629,11.629,0,0,0,84.42,74.118Z" transform="translate(-10.913 -11.001)"/><path class="b" d="M136.5,84.509c-1.226-1.226-1.472-2.289-.9-3.6a2.8,2.8,0,0,1,3.107-1.717c1.717.164,3.352.409,5.233.654-.245,1.8-.409,3.516-.654,5.233s-.409,3.352-.654,5.4c-2.044-.409-4.17-.572-6.051-1.145-1.554-.491-1.881-2.616-.818-3.925A7.119,7.119,0,0,1,136.5,84.509Zm5.642-3.516c-1.226-.164-2.371-.327-3.516-.409-.981-.082-1.472.491-1.635,1.472a1.39,1.39,0,0,0,1.226,1.717c1.145.245,2.289.327,3.6.572C141.894,83.119,141.976,82.138,142.14,80.993Zm-.981,7.686c.164-1.063.245-1.962.409-3.025a23.315,23.315,0,0,0-3.271-.327,1.4,1.4,0,0,0-1.472,1.39,1.215,1.215,0,0,0,1.145,1.472C139.033,88.434,140.014,88.516,141.158,88.679Z" transform="translate(-24.724 -14.442)"/><path class="b" d="M58.947,9.541C60.174,7.905,61.482,7.5,62.79,8.4a4.046,4.046,0,0,1,1.145,4.661c-.736,1.308-2.126,1.554-3.843.736a3.107,3.107,0,0,1-4.661,1.635c-1.554-.9-2.126-3.679-1.226-5.233C55.186,8.641,57.23,8.4,58.947,9.541ZM58.865,12.4A2.008,2.008,0,0,0,56.9,10.358a1.746,1.746,0,0,0-1.717,1.8,1.981,1.981,0,0,0,1.962,2.126A1.878,1.878,0,0,0,58.865,12.4Zm4.088-1.063a1.719,1.719,0,0,0-1.472-1.8,1.559,1.559,0,0,0-1.472,1.635,1.559,1.559,0,0,0,1.472,1.635A1.466,1.466,0,0,0,62.954,11.339Z" transform="translate(-9.888 -1.451)"/><path class="b" d="M12.687,51.113a20.485,20.485,0,0,1,2.453.164,3.045,3.045,0,0,1,2.126,3.843,3.337,3.337,0,0,1-3.679,2.944,3.333,3.333,0,0,1-3.189-3.6A9.31,9.31,0,0,1,12.6,48.824a3.156,3.156,0,0,1,3.761-.981c1.717.654,2.289,1.717,1.881,3.679-.736-.082-1.226-.245-1.308-1.226a1.661,1.661,0,0,0-2.7-.981C13.668,49.887,13.259,50.459,12.687,51.113ZM15.875,54.3a2.035,2.035,0,0,0-1.962-1.881,2.288,2.288,0,0,0-1.962,2.453,2.032,2.032,0,0,0,1.962,1.881C14.812,56.755,15.875,55.447,15.875,54.3Z" transform="translate(-1.975 -8.682)"/><path class="b" d="M27.8,41.468c.082-.164,0-.654.245-.981a29.81,29.81,0,0,1,3.679-4.661c1.226-1.145,2.617-.981,4.007.164a2.926,2.926,0,0,1,.9,3.843A10.749,10.749,0,0,1,32.7,44.656a2.576,2.576,0,0,1-3.107,0A3.37,3.37,0,0,1,27.8,41.468Zm7.768-3.352c-.327-.409-.572-1.063-1.063-1.226a1.8,1.8,0,0,0-1.717.164,37.817,37.817,0,0,0-3.271,3.925,1.6,1.6,0,0,0,.491,2.371,1.552,1.552,0,0,0,2.208-.245,43.537,43.537,0,0,0,2.944-3.843A8.885,8.885,0,0,0,35.566,38.115Z" transform="translate(-5.15 -6.396)"/><path class="b" d="M19.6,57.524a11.774,11.774,0,0,1,2.126-5.478,2.837,2.837,0,0,1,3.516-.9,2.972,2.972,0,0,1,2.208,2.944,10.877,10.877,0,0,1-1.962,6.051,2.879,2.879,0,0,1-3.761,1.145C20.171,60.631,19.517,59.732,19.6,57.524ZM26.221,54.5c-.245-.981-.491-1.717-1.39-2.044a1.539,1.539,0,0,0-2.044.818,45.288,45.288,0,0,0-1.717,4.661A1.57,1.57,0,0,0,22.133,59.9a1.538,1.538,0,0,0,2.044-.736C24.913,57.606,25.567,56.053,26.221,54.5Z" transform="translate(-3.654 -9.288)"/><path class="b" d="M121.859,120.151a27.6,27.6,0,0,0,3.434-.736,2.016,2.016,0,0,1,2.535,1.063c-1.717.327-3.352.736-5.069,1.063-.9.164-1.308.491-1.39,1.472-.164,1.554-.572,3.107-.818,4.824-1.063-.654-1.635-1.308-1.145-2.617.327-.981.409-1.962.736-3.189a32.374,32.374,0,0,0-3.271.736,1.762,1.762,0,0,1-2.371-1.145c1.635-.327,3.189-.736,4.824-.981a1.318,1.318,0,0,0,1.226-1.226c.245-1.717.572-3.434.9-5.315.9.491,1.635.981,1.226,2.208A26.547,26.547,0,0,0,121.859,120.151Z" transform="translate(-20.96 -20.811)"/><path class="b" d="M20.163,94.367c.491.082,1.145.082,1.472.409,1.063.9,2.208.981,3.025,0a2.516,2.516,0,0,0-.327-3.271,2.025,2.025,0,0,0-2.944.327,17.351,17.351,0,0,1-1.635,1.39c-.245-2.126-.491-3.843-.654-5.478,0-.164.164-.572.409-.572L23.924,85.7l.491,1.226c-1.308.409-2.616.9-3.925,1.308l.245,2.208c2.7-1.472,4.5-1.145,5.56.981A3.452,3.452,0,0,1,24.66,96.33C22.616,97.392,20.817,96.738,20.163,94.367Z" transform="translate(-3.565 -15.632)"/><path class="b" d="M20.815,116.512a1.877,1.877,0,0,0,2.7.327,1.908,1.908,0,0,0,.736-2.289c-.409-.981-.981-1.717-2.126-1.717A2.258,2.258,0,0,0,20,114.468a14.174,14.174,0,0,1-.981,1.635c-.981-1.962-1.717-3.6-2.616-5.4,1.39-1.063,2.78-2.044,4.17-3.107.245.327.491.654.818,1.063-1.063.818-2.126,1.635-3.271,2.453.327.654.572,1.308.981,2.126.818-1.308,1.881-2.126,3.189-1.962a4.316,4.316,0,0,1,2.371,1.145,3.429,3.429,0,0,1-.164,5.151,3.165,3.165,0,0,1-4.906-.245A6.408,6.408,0,0,0,20.815,116.512Z" transform="translate(-3.072 -19.626)"/><path class="b" d="M20.787,33.062c.409.327.736.572.981.818-.654,2.044-.409,2.78.818,3.434a1.646,1.646,0,0,0,2.371-.654c.572-.9.327-1.717-1.226-3.025.164-.327.409-.572.572-.9,2.044.9,2.616.9,3.189-.082A1.435,1.435,0,0,0,27,30.773c-.818-.736-1.554-.572-2.862.491-.327-.245-.654-.572-.981-.818,1.145-1.472,2.208-1.881,3.6-1.39a3.8,3.8,0,0,1,2.453,3.107c0,1.39-.736,2.126-2.535,2.78.327,1.8-.327,3.189-1.717,3.761a3.812,3.812,0,0,1-4.415-1.39C19.561,36.088,19.561,34.616,20.787,33.062Z" transform="translate(-3.698 -5.268)"/><path class="b" d="M24,75.4h1.145a8.1,8.1,0,0,0,.9,1.39,1.9,1.9,0,0,0,2.616,0,2.465,2.465,0,0,0,.245-3.107,2.129,2.129,0,0,0-2.78-.572c-.572.327-1.145.491-2.044.9.245-1.308.409-2.208.572-3.107s.409-1.8.572-2.7h5.233c-.082.491-.082.818-.164,1.308-.9,0-1.8.082-2.7,0-1.145-.164-1.554.245-1.554,1.308a5.339,5.339,0,0,1-.164.9c1.39-.409,2.862-.572,3.843.572A4.964,4.964,0,0,1,30.783,74.9a3.318,3.318,0,0,1-3.6,3.761A2.91,2.91,0,0,1,24,75.4Z" transform="translate(-4.455 -12.441)"/><path class="b" d="M40.683,23.794c.245.409.491.736.736,1.145h-.245a11.043,11.043,0,0,0-.327,2.289A1.761,1.761,0,0,0,42.808,28.7a2.528,2.528,0,0,0,2.208-1.962,2.378,2.378,0,0,0-1.39-2.371,11.8,11.8,0,0,1-1.717-1.226c1.881-.818,3.352-1.472,4.906-2.044a.836.836,0,0,1,.818.327c.818,1.226,1.635,2.535,2.535,3.925-.327.245-.654.491-1.063.818L46.9,22.731c-.654.245-1.308.572-2.044.818,2.044,2.371,2.208,4.17.491,5.724a3.426,3.426,0,0,1-5.151-.245C38.8,27.146,38.965,25.265,40.683,23.794Z" transform="translate(-7.24 -3.848)"/><path class="b" d="M98.288,122.879c.572-1.881,1.717-2.862,3.271-2.78a3.892,3.892,0,0,1,3.271,3.189c.327,1.635-.327,2.78-1.962,3.6-.245-.327-.409-.736-.654-1.063,1.39-1.8,1.554-2.453.736-3.434a1.642,1.642,0,0,0-2.371-.409c-.9.654-.981,1.39-.245,3.189a10.425,10.425,0,0,1-.981.572c-.654-.981-1.226-2.126-2.616-1.308-.818.409-.818,1.145-.491,1.881.409.981,1.145,1.145,2.78.736.164.409.409.818.572,1.145a2.938,2.938,0,0,1-3.843-.245,3.842,3.842,0,0,1-.9-3.843C95.508,122.961,96.571,122.552,98.288,122.879Z" transform="translate(-17.34 -21.904)"/><path class="b" d="M58.443,141.967c.491-1.554.981-3.107,1.472-4.742.409.164.818.245,1.226.409l-1.962,6.623a4.718,4.718,0,0,1-3.271-3.6,16.87,16.87,0,0,0-.981-2.862,1.765,1.765,0,0,0-2.453-.818,1.82,1.82,0,0,0-.818,2.289,10.034,10.034,0,0,0,1.635,1.554,8.487,8.487,0,0,0-.245.981,2.832,2.832,0,0,1-2.862-2.371,3.913,3.913,0,0,1,1.881-4.088,3.037,3.037,0,0,1,3.843,1.227c.491.9.736,2.044,1.145,3.025.327.818.654,1.554.981,2.371A.365.365,0,0,0,58.443,141.967Z" transform="translate(-9.22 -24.639)"/><path class="b" d="M103.813,14.088c.164-.409.327-.736.491-1.145a3.221,3.221,0,0,1,2.616,3.189,3.643,3.643,0,0,1-2.7,3.516,3.426,3.426,0,0,1-3.6-2.126,15.881,15.881,0,0,1-.572-2.7l-.736-2.453h-.327c-.654,1.472-1.308,3.025-1.962,4.579-.409-.164-.736-.327-1.226-.572.9-2.126,1.717-4.17,2.617-6.378a4.484,4.484,0,0,1,2.78,3.6,15.9,15.9,0,0,0,.981,3.516,1.547,1.547,0,0,0,2.371.572,1.631,1.631,0,0,0,.654-2.208,9.927,9.927,0,0,0-1.145-1.635A.261.261,0,0,1,103.813,14.088Z" transform="translate(-17.55 -1.829)"/><path class="b" d="M134.168,43.423c.409-.245.736-.409,1.063-.572a3,3,0,0,1,.409,3.843,3.854,3.854,0,0,1-4.17,1.554,3.184,3.184,0,0,1-1.881-3.434,26.587,26.587,0,0,1,1.227-3.271c.327-.736.572-1.554.9-2.289-.082-.082-.245-.164-.327-.245-1.39.818-2.78,1.554-4.252,2.453-.245-.327-.409-.654-.736-1.145,1.962-1.145,3.925-2.289,5.969-3.516a4.957,4.957,0,0,1,.082,4.661,10.7,10.7,0,0,0-1.226,3.025,2.785,2.785,0,0,0,.736,1.962,1.969,1.969,0,0,0,1.8.082c.491-.245.736-.981.9-1.554C134.577,44.568,134.331,44.077,134.168,43.423Z" transform="translate(-23.13 -6.716)"/><path class="b" d="M12.739,98.675c1.554-.491,3.025-.981,4.661-1.472.164.409.245.818.409,1.308-2.208.736-4.252,1.39-6.459,2.044a4.435,4.435,0,0,1,.981-4.579A20.749,20.749,0,0,0,14.21,93.2a1.812,1.812,0,0,0-1.063-2.453,1.744,1.744,0,0,0-2.208,1.145,6.619,6.619,0,0,0,0,1.8c-.409.164-.818.245-1.226.409a3.314,3.314,0,0,1,.818-4.17,3.56,3.56,0,0,1,4.334-.082,3.338,3.338,0,0,1,.572,4.252c-.491.818-1.226,1.554-1.717,2.289-.409.572-.818,1.226-1.226,1.881A.874.874,0,0,0,12.739,98.675Z" transform="translate(-1.782 -16.261)"/><path class="b" d="M15.879,76.849H20.7v1.308H14a3.91,3.91,0,0,1,1.554-3.516,20.716,20.716,0,0,1,2.208-1.472,8.661,8.661,0,0,0,.981-.818,1.711,1.711,0,0,0,.491-2.208,2.824,2.824,0,0,0-1.717-.981c-.981-.164-1.39.654-1.635,1.472-.082.245-.082.491-.164.818H14.571a2.931,2.931,0,0,1,1.472-3.434,3.7,3.7,0,0,1,4.415.9,3.229,3.229,0,0,1-.327,4.17,21.408,21.408,0,0,1-2.617,1.881c-.654.491-1.226.981-1.8,1.472C15.715,76.6,15.8,76.685,15.879,76.849Z" transform="translate(-2.633 -12.341)"/><path class="b" d="M136.381,58.345c.491-.082.818-.164,1.308-.245.164.736.409,1.472.572,2.289,1.39-.245,2.78-.491,4.415-.818a7.362,7.362,0,0,1-.245,2.044c-.818,2.044-1.717,4.088-2.616,6.132-.245.491-.736.736-1.145,1.145-.082-.082-.245-.164-.327-.245-.409-2.126-.9-4.252-1.308-6.378h-1.39c-.082-.327-.164-.736-.245-1.145.409-.164.736-.245,1.226-.409A11.677,11.677,0,0,0,136.381,58.345Zm2.126,3.434c.245,1.39.572,2.7.818,3.925h.245c.572-1.39,1.145-2.862,1.881-4.5C140.306,61.452,139.488,61.616,138.507,61.779Z" transform="translate(-24.771 -10.6)"/><path class="b" d="M46.013,124.688a3.911,3.911,0,0,1-3.6,3.843c-2.208,0-4.415-2.044-4.415-4.088a3.911,3.911,0,0,1,3.6-3.843C43.805,120.6,46.013,122.644,46.013,124.688ZM41.6,122.235a1.957,1.957,0,0,0-2.044,1.962,3.39,3.39,0,0,0,3.025,2.862,2.211,2.211,0,0,0,2.044-2.126A3.311,3.311,0,0,0,41.6,122.235Z" transform="translate(-7.011 -21.996)"/><path class="b" d="M39.407,106.812A4.577,4.577,0,0,1,35.4,102.4a3.708,3.708,0,0,1,3.925-3.6c2.044.082,3.925,2.289,3.925,4.5A3.841,3.841,0,0,1,39.407,106.812Zm2.289-3.6a3.235,3.235,0,0,0-2.7-3.025,2.077,2.077,0,0,0-2.044,2.044c0,1.472,1.39,3.107,2.7,3.107A2.1,2.1,0,0,0,41.7,103.215Z" transform="translate(-6.537 -18.02)"/><path class="b" d="M54.734,110.831a4.568,4.568,0,0,1-4.334-4.088A3.976,3.976,0,0,1,54,102.9a4.589,4.589,0,0,1,4.415,4.17A3.789,3.789,0,0,1,54.734,110.831Zm2.208-3.6a3.233,3.233,0,0,0-3.025-2.78,2.122,2.122,0,0,0-2.044,1.962,3.312,3.312,0,0,0,3.025,2.862A2.023,2.023,0,0,0,56.941,107.234Z" transform="translate(-9.272 -18.769)"/><path class="b" d="M65.779,105.9c2.453,0,4.334,1.635,4.334,3.761a3.673,3.673,0,0,1-3.761,3.843,3.983,3.983,0,0,1-4.252-3.761A3.482,3.482,0,0,1,65.779,105.9Zm-.082,1.472a2.3,2.3,0,0,0-2.289,2.044c-.082,1.308,1.308,2.453,2.944,2.535a2.137,2.137,0,0,0,2.289-2.044C68.722,108.6,67.251,107.371,65.7,107.371Z" transform="translate(-11.405 -19.315)"/><path class="b" d="M59.5,126.6c2.453,0,4.415,1.635,4.415,3.679a3.633,3.633,0,0,1-3.679,3.925c-2.453,0-4.334-1.635-4.334-3.761A3.545,3.545,0,0,1,59.5,126.6Zm0,1.554a2.066,2.066,0,0,0-2.208,2.044,2.88,2.88,0,0,0,2.944,2.535,2.14,2.14,0,0,0,2.289-2.044A2.843,2.843,0,0,0,59.5,128.154Z" transform="translate(-10.274 -23.09)"/><path class="b" d="M77.906,125a3.672,3.672,0,0,1-4.007-3.761c-.082-2.208,1.554-3.761,3.925-3.843a3.716,3.716,0,0,1,4.088,3.843C81.912,123.45,80.359,124.922,77.906,125Zm.082-5.969c-1.554,0-2.78.9-2.7,2.208a2.469,2.469,0,0,0,2.616,2.208,2.417,2.417,0,0,0,2.617-2.208C80.6,119.934,79.541,119.035,77.988,119.035Z" transform="translate(-13.556 -21.412)"/><path class="b" d="M62.579,116.2c2.453,0,4.334,1.635,4.334,3.761a3.591,3.591,0,0,1-3.6,3.843c-2.535,0-4.415-1.635-4.415-3.843A3.633,3.633,0,0,1,62.579,116.2Zm2.944,4.007c0-1.308-1.39-2.453-3.025-2.453A2.116,2.116,0,0,0,60.29,119.8c0,1.308,1.472,2.535,3.107,2.535A2.111,2.111,0,0,0,65.523,120.207Z" transform="translate(-10.822 -21.194)"/><path class="b" d="M34.649,109.515a3.98,3.98,0,0,1-3.761,3.761c-1.962,0-4.17-2.289-4.088-4.5a3.957,3.957,0,0,1,3.679-3.679A4.591,4.591,0,0,1,34.649,109.515ZM30.4,106.572a2.151,2.151,0,0,0-2.044,2.126,3.235,3.235,0,0,0,2.7,3.025,2.149,2.149,0,0,0,2.126-2.044C33.177,108.289,31.624,106.572,30.4,106.572Z" transform="translate(-4.968 -19.17)"/><path class="b" d="M77.607,114.141c-2.453,0-4.007-1.39-4.007-3.679s1.554-3.761,4.088-3.761a3.608,3.608,0,0,1,3.925,3.761C81.613,112.669,79.978,114.141,77.607,114.141Zm0-1.554a2.491,2.491,0,0,0,2.7-2.126,2.368,2.368,0,0,0-2.616-2.208c-1.554,0-2.7.9-2.7,2.208C74.99,111.688,76.053,112.587,77.607,112.587Z" transform="translate(-13.502 -19.462)"/><path class="b" d="M78.406,128.3a3.565,3.565,0,0,1,3.843,3.843c0,2.208-1.554,3.679-4.007,3.679s-3.843-1.39-3.843-3.761C74.318,129.69,75.871,128.3,78.406,128.3Zm-.164,5.969c1.635,0,2.7-.9,2.616-2.208a2.28,2.28,0,0,0-2.535-2.126c-1.635,0-2.7.9-2.7,2.208C75.626,133.369,76.689,134.269,78.242,134.269Z" transform="translate(-13.647 -23.4)"/><path class="b" d="M48.615,119.631a4.517,4.517,0,0,1-4.415-4.088,3.911,3.911,0,0,1,3.6-3.843,4.568,4.568,0,0,1,4.334,4.088A3.723,3.723,0,0,1,48.615,119.631Zm.082-1.472a2.211,2.211,0,0,0,2.126-2.044,3.311,3.311,0,0,0-3.025-2.78,1.99,1.99,0,0,0-1.962,1.962C45.672,116.606,47.225,118.159,48.7,118.159Z" transform="translate(-8.141 -20.373)"/><path class="b" d="M85.048,12.587c-2.453-.164-4.579-.327-6.787-.491-.082.491-.164.9-.245,1.308-.409,0-.736-.082-1.226-.082,0-.409-.082-.818-.082-1.308L74.5,11.769c0-.491.082-.818.082-1.308h2.289c.164-1.472.327-2.862.491-4.661,2.944,1.145,4.824,3.516,7.2,5.233C84.8,11.278,84.8,11.932,85.048,12.587Zm-2.78-1.635c0-.082.082-.164.082-.245-1.226-.981-2.371-1.962-3.843-3.107-.082,1.145-.164,2.044-.164,3.025C79.733,10.706,80.959,10.869,82.268,10.951Z" transform="translate(-13.666 -1.063)"/><path class="b" d="M71.427,140.472h6.459a8.913,8.913,0,0,0,.082-1.39c.409,0,.736-.082,1.145-.082.082.491.164.9.245,1.308h2.126c.082.409.082.736.164,1.308-.818.082-1.554.164-2.289.245v4.252c-1.308.409-2.862-.409-7.6-4.007-.327-.245-.409-.736-.654-1.145A4.839,4.839,0,0,1,71.427,140.472Zm2.7,1.308c0,.082-.082.164-.082.245,1.308.818,2.617,1.635,4.17,2.617-.082-1.145-.082-2.044-.164-2.944C76.578,141.78,75.352,141.78,74.125,141.78Z" transform="translate(-13.046 -25.351)"/><path class="b" d="M36.622,90.7a3.5,3.5,0,0,1-3.843,3.6c-2.126,0-3.761-1.962-3.679-4.5a3.589,3.589,0,0,1,3.843-3.6A4.1,4.1,0,0,1,36.622,90.7Zm-1.472.082c0-1.554-1.145-3.107-2.371-3.107a2.2,2.2,0,0,0-2.126,2.289c0,1.635,1.145,3.025,2.453,3.025A2.116,2.116,0,0,0,35.15,90.778Z" transform="translate(-5.387 -15.723)"/><path class="b" d="M135.994,99.972c-1.308,2.78-2.617,5.478-3.925,8.258.981.491,1.962.981,3.025,1.554-.164.409-.327.736-.572,1.308-2.535-1.226-4.988-2.453-7.522-3.679a9.084,9.084,0,0,0,.572-1.308c1.063.491,1.962.981,3.025,1.472,1.308-2.7,2.617-5.4,3.925-8.177A6.766,6.766,0,0,1,135.994,99.972Z" transform="translate(-23.239 -18.13)"/><path class="b" d="M97.638,116.751c-.164-.327-.327-.572-.409-.736.409-.409.981-.818,1.063-1.226a2.488,2.488,0,0,0-.164-1.881,1.557,1.557,0,0,0-1.554-.409,3.116,3.116,0,0,0-1.063,1.554,2.122,2.122,0,0,0,.164,1.39c.572,2.7-2.208,3.761-3.925,3.271a2.517,2.517,0,0,1-1.308-3.434c.327-.654.818-1.226,1.226-1.881.818.818,1.063,1.145.409,1.635-.736.572-.981,1.308-.327,2.044a2.1,2.1,0,0,0,1.554.491c.9-.164.981-1.063.9-1.881-.245-1.554-.409-3.025,1.308-4.007,1.635-.9,3.189-.654,4.007.736a2.775,2.775,0,0,1-1.063,4.007A2.123,2.123,0,0,0,97.638,116.751Z" transform="translate(-16.527 -20.273)"/><path class="b" d="M89.323,102.4c.9-.491,1.717-.9,2.617-1.39-.491-1.145-1.063-2.208-1.554-3.352.409-.245.736-.409,1.145-.654.736,1.472,1.472,2.862,2.208,4.415-2.944,1.554-5.805,3.025-8.831,4.579-.736-1.472-1.39-2.862-2.208-4.334.409-.245.736-.409,1.145-.654.572,1.145,1.063,2.126,1.717,3.271.818-.409,1.554-.818,2.453-1.226-.491-1.063-.981-2.044-1.472-3.107a12.105,12.105,0,0,1,1.063-.654C88.178,100.352,88.751,101.334,89.323,102.4Z" transform="translate(-15.162 -17.693)"/><path class="b" d="M81.772,100.017a15.323,15.323,0,0,1-1.39-2.862,2.664,2.664,0,0,1,.327-2.126,8.722,8.722,0,0,1,3.107-1.635c.491-.164,1.308.491,1.8.9a7.4,7.4,0,0,1,.981,1.8l3.434-1.717c.327.491.818.818,0,1.308C87.332,97.155,84.634,98.545,81.772,100.017Zm.491-1.554c1.308-.654,2.126-1.145,3.352-1.8-.736-.818-1.226-1.717-1.962-1.962a1.961,1.961,0,0,0-1.8.981C81.609,96.5,82.1,97.4,82.263,98.464Z" transform="translate(-14.725 -17.031)"/><path class="b" d="M109.5,132.8c.245.572.409.9.654,1.39-2.126,1.145-4.17,2.208-6.378,3.352.327.818.736,1.472,1.063,2.289-.327.164-.654.327-1.063.572-.654-1.063-1.39-2.126-2.862-1.8-.164,0-.491-.491-.818-.9C103.371,135.989,106.4,134.435,109.5,132.8Z" transform="translate(-18.334 -24.221)"/><path class="b" d="M11.207,77.966H9.817v-7.2c-.9-.082-1.717-.082-2.535-.164A6.61,6.61,0,0,0,7.2,69.381c1.39,0,2.535-.245,3.025-1.717.082-.164.572-.082.9-.164C11.207,71.016,11.207,74.532,11.207,77.966Z" transform="translate(-1.395 -12.314)"/><path class="b" d="M115.4,24.245a12.208,12.208,0,0,0,.981-1.145c1.8,1.635,3.516,3.189,5.4,4.742.572-.654,1.145-1.226,1.8-1.881.327.327.572.491.9.818-.736,1.063-1.472,2.126-.654,3.434.082.164-.327.654-.572,1.063C120.633,28.905,118.1,26.616,115.4,24.245Z" transform="translate(-21.124 -4.218)"/><path class="b" d="M31.982,126.881a10.213,10.213,0,0,0,.736-.981c2.78,2.044,5.56,4.007,8.422,6.051a10.653,10.653,0,0,0-.818,1.226c-1.962-1.39-3.925-2.78-5.887-4.252-.491.736-.981,1.39-1.554,2.126l-.981-.736C32.636,129.252,33.208,128.026,31.982,126.881Z" transform="translate(-5.899 -22.963)"/><path class="b" d="M36.718,22.858c-.327-.491-.491-.818-.818-1.308,1.962-1.308,3.925-2.616,5.969-4.007-.409-.736-.818-1.39-1.308-2.208.245-.245.572-.409.9-.736.818.981,1.554,2.044,3.107,1.554.164-.082.491.491.9.818C42.441,19.015,39.661,20.9,36.718,22.858Z" transform="translate(-6.628 -2.668)"/><path class="b" d="M88.353,113.422c-.9-1.717-1.635-3.352-2.453-4.988.409-.245.736-.409,1.145-.654.327.654.654,1.226,1.063,1.962,2.535-1.308,4.988-2.535,7.522-3.843.654.572.572.981-.164,1.39-2.289,1.145-4.5,2.289-6.787,3.516.327.736.572,1.308.9,2.044C89.171,113.014,88.762,113.259,88.353,113.422Z" transform="translate(-15.745 -19.316)"/><path class="b" d="M109.219,131.527c-2.78.409-5.56.736-8.34,1.145-1.063.164-2.044.245-3.107.409-.9.164-1.39-.082-1.472-1.145,3.434-.491,6.868-.9,10.384-1.39.327-.082.654-.082,1.063-.164C108.565,130.137,109.137,130.465,109.219,131.527Z" transform="translate(-17.641 -23.766)"/><path d="M114.081,97.956l2.126-3.434a65.009,65.009,0,0,0,7.522-21.995h0l.409-4.579a59.5,59.5,0,0,0-.9-16.6,62.523,62.523,0,0,0-18.07-33.769A60.066,60.066,0,0,0,65.1.083,60.916,60.916,0,0,0,36.731,5.561a1.649,1.649,0,0,1-1.39-.164c-1.717-1.145-3.434-2.453-5.069-3.6a4.91,4.91,0,0,0-6.051-.082c-2.044,1.39-4.007,2.78-5.969,4.17a4.791,4.791,0,0,0-2.044,5.724c.572,1.962,1.063,3.925,1.635,5.887a1.785,1.785,0,0,1-.491,2.044A58.765,58.765,0,0,0,7.377,33.525l-.654.981h0L5.169,37.532a3.819,3.819,0,0,1-.245,1.39A65.906,65.906,0,0,0,.264,59.935c0,.164-.082.409-.082.654H.1v5.56h0c.327,2.617.491,5.233,1.063,7.768.9,3.925,1.881,7.849,3.107,11.611L7.3,92.4a61.658,61.658,0,0,0,106.622,5.887A.425.425,0,0,1,114.081,97.956ZM28.227,4.171c1.554,1.063,3.025,2.126,4.661,3.352-1.554.981-3.025,1.8-4.415,2.7C27.655,8.178,26.837,6.3,26.1,4.335A1.468,1.468,0,0,1,28.227,4.171ZM20.541,8.1C21.85,9.731,23.158,11.285,24.466,13c-1.145.981-2.371,2.044-3.843,3.271-.572-2.126-1.145-4.007-1.554-5.887C18.743,9.159,19.642,8.587,20.541,8.1ZM62.814,123.14c-33.442.245-59.444-26.9-59.607-59.444C2.962,30.091,29.372,3.108,62.16,3.108c32.624,0,59.28,26.9,59.2,59.934C121.277,96.485,95.03,122.895,62.814,123.14Z" transform="translate(-0.1 -0.007)"/><path class="c" d="M25.1,9.079l4.088,5.069,3.925-2.862L30.5,5.4Z" transform="translate(-4.659 -0.99)"/></g></g></svg>