<svg xmlns="http://www.w3.org/2000/svg" xmlns:xlink="http://www.w3.org/1999/xlink" viewBox="0 0 468.437 418.969"><defs><style>.a,.g{fill:#fff;}.a{stroke:#707070;}.b{clip-path:url(#a);}.c{fill:#3a3a3a;}.d{fill:#222;}.e{fill:none;stroke:#000;stroke-miterlimit:10;stroke-width:2.001px;}.f{fill:#aaa;}.g{font-size:14px;font-family:Helvetica-Bold, Helvetica;font-weight:700;}</style><clipPath id="a"><rect class="a" width="468.437" height="418.969" transform="translate(-104)"/></clipPath></defs><g class="b" transform="translate(104)"><g transform="translate(-104.454 -186.916)"><g transform="translate(0 0)"><path class="c" d="M762.258,255l-7.175-8.072-8.969-69.957-6.278-2.691-15.247-.9-.448-13,3.588-4.036-.448-7.624-4.036-2.691-63.679,1.345-3.588,3.139v5.83l3.588,4.484-.448,13-15.247.448V163.967l-4.036-4.933,7.175-2.242-.448-14.8-18.835-7.175-31.839-.987-7.175,2.332-5.2,4.305-.807,8.52-3.049-2.691-7-7.354-4.395,3.139-2.6,2.87-.718-1.256-4.036-4.305-1.614-2.78,4.933-6.278-2.242-9.866-47.086-.9-3.139-5.381-19.283,1.345-4.484,4.933H443.6l-4.036-17.041-8.52-13.453L414.446,82.8,398.3,57.238l-6.727-9.417-5.83-1.794-13.9-16.592-9.417-3.588,3.139-4.933V8.358l-4.484-6.278H343.592l-.448,8.072L276.326,9.7l.179-7.8-19.821.269L255.16,6.923l.9,20.628-7.8.269L232.738,49.076l-5.65-.269-48.7,71.482-13.722-.9-6.009,1.525v-7.175l-5.381-3.318-40.36-.628-2.691-5.381-19.731-.269-2.96,6.278-38.566.269-3.318,2.063.628,9.6.9,4.484v14.978l-16.5-.269,1.525,10.763,1.525,4.484-2.691,4.215v12.287l-8.969.269-6.278,6.547L9.144,245.225,2.6,257.512l-.9,326.2,5.561,12.736L16.23,603.8H755.083l6.727-10.314,2.691-53.365ZM465.12,540.21a9.32,9.32,0,0,1-9.328,9.328H122.51a9.32,9.32,0,0,1-9.328-9.328V289.8a9.32,9.32,0,0,1,9.328-9.328H455.793a9.32,9.32,0,0,1,9.328,9.328Z" transform="translate(-0.175 -0.116)"/><circle class="d" cx="20.18" cy="20.18" r="20.18" transform="translate(42.512 284.93)"/><circle class="d" cx="16.144" cy="16.144" r="16.144" transform="translate(68.701 204.569)"/><circle class="d" cx="16.144" cy="16.144" r="16.144" transform="translate(126.999 204.569)"/><circle class="d" cx="17.131" cy="17.131" r="17.131" transform="translate(503.96 526.013)"/><circle class="d" cx="17.131" cy="17.131" r="17.131" transform="translate(562.795 526.013)"/><circle class="d" cx="15.965" cy="15.965" r="15.965" transform="translate(473.466 204.031)"/><circle class="d" cx="26.637" cy="26.637" r="26.637" transform="translate(497.681 292.374)"/><circle class="d" cx="62.423" cy="62.423" r="62.423" transform="translate(498.578 350.224)"/><circle class="d" cx="15.965" cy="15.965" r="15.965" transform="translate(531.673 204.031)"/><circle class="d" cx="8.341" cy="8.341" r="8.341" transform="translate(589.164 500.452)"/><circle class="d" cx="20.18" cy="20.18" r="20.18" transform="translate(42.512 343.497)"/><circle class="d" cx="20.18" cy="20.18" r="20.18" transform="translate(42.512 401.167)"/><circle class="d" cx="20.18" cy="20.18" r="20.18" transform="translate(42.512 459.823)"/><circle class="d" cx="20.18" cy="20.18" r="20.18" transform="translate(42.512 518.659)"/><path class="d" d="M574.7,534.006l22.871,10.314,17.22-21.346L578.915,507.1Z" transform="translate(-59.26 -52.21)"/><path class="d" d="M50.761,122.8l-.9,31.212H33.9l1.794,29.149L40,181.367l15.426-.448,3.857,4.484h115.7l2.242-32.736-16.592-2.96-1.166-26.189Z" transform="translate(-3.496 -12.583)"/><path class="d" d="M494.2,134.3l4.484,35.875,115.25-1.076-.269-15.516L612.32,134.3Z" transform="translate(-50.959 -13.769)"/><path class="d" d="M713.514,158.591l-.269,17.31-63.051-.269-1.794-11.39,1.435-8.341Z" transform="translate(-66.86 -15.996)"/><path class="d" d="M731.4,164.1l1.794,11.66H801l-.269-12.556Z" transform="translate(-75.418 -16.749)"/><path class="d" d="M452.024,139.727l-13.453,6.1-.179-5.381-.9-7.175-16.861-26.458,7.175-4.305L409.691,72.012l-4.305-4.036L400,66.9H256.054l-6.547,1.614-4.484,4.305-34.979,57.221-2.242,7.893-5.2,115.25,3.139,6.1,4.933,2.691,239.02-.448,4.933-4.664,1.076-5.2ZM331.393,257.488A79.285,79.285,0,1,1,410.677,178.2,79.31,79.31,0,0,1,331.393,257.488Z" transform="translate(-20.891 -6.819)"/><circle class="d" cx="47.804" cy="47.804" r="47.804" transform="translate(263.774 124.119)"/><path class="d" d="M676.319,246.169l-2.332,3.946L670.4,266.8H772.645L775.6,265l-2.96-15.785-5.112-3.318Z" transform="translate(-69.128 -25.276)"/><path d="M375.665,216.593H307.053a4.785,4.785,0,0,1-4.753-4.754V164.753A4.785,4.785,0,0,1,307.053,160h68.612a4.785,4.785,0,0,1,4.754,4.753V211.84A4.845,4.845,0,0,1,375.665,216.593Z" transform="translate(-31.172 -16.419)"/><path d="M164.39,125.86a30.321,30.321,0,0,1,5.74-1.076c3.229-.09,6.458,0,9.6.179a3.091,3.091,0,0,0,3.049-1.614c8.251-12.287,16.682-24.485,25.023-36.683a12.058,12.058,0,0,1,.987-1.256l.538.538c2.242,2.691,2.242,2.691.269,5.561-7.8,11.39-15.606,22.871-23.409,34.261-.807,1.256-2.152,2.153-2.78,3.408a14.816,14.816,0,0,0-1.614,5.471c-.987,13.633-1.7,27.265-2.78,40.9-.269,3.946-1.525,7.893-2.063,11.839a23.508,23.508,0,0,0,.359,5.561c1.794,16.592,3.5,33.1,5.292,49.687.269,2.242.448,4.484.807,6.637.09.628.628,1.076.987,1.7.359-.628,1.076-1.166,1.166-1.794.359-6.009.538-12.108.718-18.117l2.691-64.038c.448-9.686.628-19.373,1.345-29.059a23.749,23.749,0,0,1,2.78-9.6c6.906-11.749,14.26-23.319,21.525-34.979,1.7.807.9,1.7.359,2.691-4.933,7.982-9.955,15.965-14.888,23.947-8.52,13.812-7.982,11.121-8.7,29.508-.807,21.525-1.794,43.14-2.691,64.665l-1.614,35.786c-.269,6.1,3.677,10.4,9.776,10.4h83.859a3.418,3.418,0,0,0,1.345-.09c.269-.09.448-.448.538-.717,0-.09-.359-.538-.538-.538a14.536,14.536,0,0,0-1.973-.09h-69.06c-8.072,0-12.287-4.574-11.749-12.556q2.018-28.252,3.946-56.5c1.166-16.861,2.332-33.633,3.677-50.495a20.386,20.386,0,0,1,2.511-8.52c5.023-8.072,10.494-15.965,15.785-23.857.269.09.448.179.718.269a7.851,7.851,0,0,1-.9,1.973c-4.305,6.368-8.61,12.736-13,19.1a24.378,24.378,0,0,0-4.305,12.108c-1.076,15.875-2.153,31.75-3.318,47.625-1.256,17.938-2.6,35.875-3.857,53.813a50.944,50.944,0,0,0-.179,8.251,8.589,8.589,0,0,0,7.713,7.534l2.691.269h66.818a2.437,2.437,0,0,0,1.256-.269c-23.947-11.749-40.539-30.046-47.8-55.786-7.265-25.651-3.049-49.867,11.3-72.2.269.09.538.09.717.179a11.718,11.718,0,0,1-.717,1.883,80.909,80.909,0,0,0-12.2,31.032c-4.574,27.893,2.511,52.557,21.525,73.545a83.636,83.636,0,0,0,30.494,21.256c.807.359,1.345,1.345,2.511,2.6h60.629a12.9,12.9,0,0,0,.09-1.614c33.005-14.888,52.288-39.642,54.8-75.966,1.614-24.216-6.458-45.472-23.14-63.141-16.5-17.669-37.31-26.368-61.347-27.624a68.015,68.015,0,0,1,25.471,3.588c21.7,7.175,38.3,20.808,49.418,40.719,23.678,42.423,7.624,99.734-40.629,121.528.807.09,1.256.269,1.7.269h63.858c6.547,0,11.032-4.036,10.673-9.686-.269-4.305-.628-8.61-.9-13l-2.96-42.243c-1.166-15.875-2.242-31.75-3.408-47.625-.179-2.242,0-4.574-.538-6.637-.9-3.229-1.794-6.727-3.588-9.507-9.866-14.978-20-29.687-30.046-44.575a10.5,10.5,0,0,0-9.417-4.933H315.874c0-.269-.09-.448-.09-.718a8.077,8.077,0,0,1,1.435-.269h59.194a10.417,10.417,0,0,1,8.879,4.843c10.314,15.157,20.539,30.225,30.763,45.472a22.088,22.088,0,0,1,3.588,11.121l2.96,42.243c.987,13.722,1.883,27.445,2.87,41.077.538,7.534.987,15.068,1.614,22.6.718,8.072-3.588,12.825-11.66,12.825H349.058a11.971,11.971,0,0,0-1.794,0,4.21,4.21,0,0,0-.807.538c.269.269.538.628.807.717a8.657,8.657,0,0,0,1.525,0h79.105c6.816,0,10.583-3.767,10.314-10.583-.628-20.09-1.435-40.18-2.063-60.181q-.807-23.274-1.614-46.548c0-.718-.09-1.435-.179-2.511-3.767,1.7-7.265,3.318-10.763,4.933-2.511,1.166-2.78.987-2.87-1.7,0-1.614-.09-3.318-.09-4.933a15.649,15.649,0,0,0-2.78-9.059c-4.753-7.175-9.328-14.44-14.081-21.525-1.166-1.7-1.166-2.691.9-3.588,1.794-.807,3.5-1.973,5.471-3.049-3.588-5.83-7.175-11.48-10.673-17.131-2.511-4.036-5.023-7.982-7.444-12.018a10.329,10.329,0,0,0-9.507-5.2H318.385a11.483,11.483,0,0,1-2.87-.807,12.219,12.219,0,0,1,2.87-.717q31.75,0,63.41-.09c5.471,0,9.328,2.063,12.108,6.816,5.471,9.059,11.211,18.027,16.772,27.086,1.345,2.153,2.332,4.574,3.857,7.444a9.328,9.328,0,0,1-3.049-.987c-1.166-.9-1.794-.987-2.511.538-.448.9-1.525,1.435-2.511,2.332.269,1.7,1.525.807,2.511.448a16.639,16.639,0,0,1,15.157,29.508c-.628.359-1.256.9-2.242,1.614a31.07,31.07,0,0,0,4.126.628c.359,0,1.166-.718,1.166-1.166.09-2.332,1.166-3.5,3.408-3.5,1.256,0,1.525-.538,1.076-1.7-.718-1.883-.179-3.408,1.794-4.126,1.256-.448,1.525-.987.628-2.063-1.435-1.7-1.166-3.229.448-4.664.9-.807.9-1.345-.269-1.973-1.973-1.076-2.332-2.6-1.166-4.484.628-1.076.359-1.614-.9-1.794-2.063-.359-3.049-1.525-2.691-3.857a1.934,1.934,0,0,0-.987-1.435c-2.691.448-4.126-.628-4.484-3.318a10.547,10.547,0,0,0-.9-2.691c.359-.179.717-.448,1.076-.628,1.076,1.256,2.063,2.422,3.408,4.036,3.677,0,4.933,1.256,4.395,5.023,3.946,1.166,4.933,3.139,3.139,6.368,3.318,2.87,3.408,4.395.628,7.354,2.332,2.511,1.7,5.83-1.614,6.816a10.717,10.717,0,0,1-.09,3.408,3.017,3.017,0,0,1-3.318,2.422c-.448,0-.9.628-1.345.987.179.179.269.448.448.628,1.256-.538,2.6-1.076,3.857-1.7,1.525-.717,2.152-.448,2.242,1.345.269,9.507.628,18.924.987,28.431.807,23.319,1.7,46.548,2.511,69.867.09,3.588.179,7.175.359,10.763a12.643,12.643,0,0,1-3.857,10.4c4.753-.807,8.879-1.883,12.377-4.395a5.732,5.732,0,0,0,1.345-1.166c1.525-3.318,3.946-4.753,7.893-3.677-.448-5.65-.807-10.852-1.166-15.965-.987-12.018-1.973-24.126-2.96-36.144-.359-4.395-.269-8.879-1.076-13.184-3.408-18.117-2.96-36.683-6.1-54.889-1.166-6.816-1.614-13.812-4.574-20.18-3.767-8.162-9.507-13.991-18.207-16.951V89.178c12.467,1.076,22.6,15.068,26.1,35.786h43.5c.628-4.395,1.794-5.381,6.278-5.381,5.112,0,10.135.179,15.247-.09,3.588-.179,5.919,1.525,6.1,5.65H563.5a6.526,6.526,0,0,1,6.547,6.547v5.381c0,4.484,0,4.484-3.229,7.713.717.628,1.345,1.256,2.063,1.883,1.883,1.794,1.883,3.767-.179,5.471-1.166.987-2.422,1.973-3.677,3.049-1.345-2.422,1.345-5.919-2.691-8.072V157.7h-.807V147.655h-3.408c0,3.5-.179,7.085.09,10.583.09,2.152-.448,3.677-2.332,4.574a7.352,7.352,0,0,1-3.049.807H453.186c.448,5.292.9,10.314,1.435,15.7H535.7c-2.063,2.153-3.677,3.408-6.458,3.408-24.037-.09-48.163-.09-72.2-.09h-3.049c.179,1.883.359,3.408.538,5.2H525.3a5.277,5.277,0,0,1-4.753,2.511c-20.987-.09-41.974,0-62.961,0h-2.87c1.614,20.09,3.229,39.911,4.843,59.912h24.575c-17.4-8.162-19.014-26.548-12.018-37.4,8.072-12.646,23.947-14.619,33.633-8.61-.538,1.435-1.435.987-2.422.538a23.648,23.648,0,0,0-30.584,10.583c-7.982,14.53,1.973,33.274,18.476,34.62,9.866.807,17.579-2.96,22.691-11.39s4.664-17.041-.538-25.382a2.9,2.9,0,0,1-.09-2.153c8.969,9.328,8.7,30.494-9.866,39.284h39.553c-8.52-3.677-14.081-9.776-16.054-18.655a24.505,24.505,0,0,1,3.677-19.283c7.265-11.032,22.512-14.8,33.454-8.162-.628,1.614-1.614.9-2.6.448-9.417-3.767-18.117-2.6-25.651,4.305-7.354,6.816-9.6,15.426-6.368,24.933s10.135,14.978,20.18,15.965c9.776.987,17.4-3.049,22.512-11.39,5.023-8.251,4.664-16.772-.359-25.023-.538-.9-1.7-1.794.269-2.422,8.251,9.686,8.072,30.853-11.48,39.463h25.292c-1.614-15.7-3.139-31.391-4.753-47,.359,0,.628-.09.987-.09,1.614,15.7,3.229,31.3,4.843,47.266,3.408,0,6.637.09,9.866-.09.448,0,1.076-1.256,1.345-1.973,1.883-7.265,3.588-14.619,5.471-21.974.987-4.036,3.588-6.188,7.713-6.1,9.238.179,18.476.179,27.445-2.691a4.19,4.19,0,0,1,1.525-.269h34.979c0,.179.09.359.09.538-.987.09-1.884.359-2.87.359-8.879,0-17.758-.179-26.638.09a65.943,65.943,0,0,0-12.556,1.614,38.418,38.418,0,0,1-10.583,1.256c-3.767-.09-7.624,0-11.39,0-2.96,0-5.381,1.345-6.1,4.036-2.242,8.162-4.215,16.5-6.278,24.664,3.677.9,3.946.807,4.753-2.6,1.256-4.933,2.332-9.866,3.588-14.8a20.248,20.248,0,0,1,1.7-4.395c1.345-2.78,4.215-2.332,6.547-2.422,4.215-.269,8.52-.09,12.736-.09H663.6c-1.7,1.7-3.139,2.78-5.381,2.6-1.883-.179-3.857,0-6.009,0v18.3h12.2v-10.4h.717V246.94c3.946,0,7.354.09,10.852-.09.448,0,1.345-1.256,1.256-1.883-.359-4.305-.9-8.61-1.435-12.825a24.9,24.9,0,0,0-.807-2.691c2.422,2.153,3.946,11.3,3.139,17.579,2.78,0,5.471.09,8.162-.09.538,0,1.525-1.256,1.525-1.794-.179-3.946-.09-8.072-1.166-11.749-.9-2.87-3.049-6.009-7.354-4.843a4.321,4.321,0,0,1-1.076,0c-.09-.179-.179-.448-.269-.628,1.345-.628,2.691-1.794,4.036-1.794,6.368-.179,12.736-.179,19.014-.09,5.292.09,6.547,1.166,7.982,6.637,1.345,5.112,2.511,10.314,3.767,15.426.807,3.229.9,3.229,4.754,2.6-1.256-5.023-2.422-10.135-3.677-15.157-.718-2.78-1.345-5.471-2.063-8.251-.987-4.036-3.229-5.83-7.354-5.83H687.9a1.137,1.137,0,0,0-.09-.538,9.941,9.941,0,0,1,2.242-.448c5.023,0,10.045-.09,14.978,0a7.2,7.2,0,0,1,7.444,5.83c1.883,7.534,3.767,15.068,5.561,22.6.359,1.525.9,2.153,2.511,2.063,3.139-.179,6.278,0,9.417,0,0,.269.09.538.09.807a40.818,40.818,0,0,1-5.65.807c-25.651,0-51.3-.09-76.863-.09-20.987,0-41.974-.09-62.961-.09q-64.172-.135-128.434-.359c-1.614,0-2.691.269-3.588,1.883a11.364,11.364,0,0,1-7.444,5.381c-5.471,1.256-11.121,2.96-16.682,2.96q-115.295.269-230.679.09c-6.368,0-9.955-2.6-12.018-8.431-.179-.538-.987-.987-1.7-1.256a7.29,7.29,0,0,0-1.973-.09H63.938a26.933,26.933,0,0,1-4.574-.717c0-.269.09-.538.09-.9H182.6c-2.242-21.256-4.484-42.154-6.727-63.32-1.076-.09-1.973-.09-2.96-.09H108.6a7.778,7.778,0,0,1-6.009-2.422h14.081v-3.857H100.352q-.135.942-.269,2.153c-2.96-1.794-5.83-3.677-8.789-5.471,0-.179.09-.269.09-.448h6.278V164.964H88.6v10.763h-.628c-.807-3.5,0-7.175-.448-10.763H80.082v5.2a2.483,2.483,0,0,0-.807.09c-.09-1.7-.179-3.318-.359-5.112-3.588-.807-7.8,1.166-10.583-2.691.9-.09,1.7-.179,2.691-.269,0-3.857,0-7.624-.09-11.48a1.548,1.548,0,0,0-1.166-1.166c-1.973-.09-4.036-.09-6.278-.09v9.776c-.179,0-.359.09-.628.09a14.337,14.337,0,0,1-.448-1.883c-.09-2.063.09-4.215-.09-6.278a2.226,2.226,0,0,0-1.166-1.614,51.186,51.186,0,0,0-5.292-.09v4.664a1.975,1.975,0,0,0-.718.09c-.179-1.435-.269-2.87-.448-4.484-4.574,1.883-7.713-.807-11.3-3.408,1.525-.09,2.691-.09,3.857-.179,1.345-4.395-1.435-9.417,2.153-13.722-2.332-1.166-1.794-3.5-1.883-5.74v-4.036c0-5.023,2.511-7.444,7.444-7.444H90.845c.269-1.166.269-2.422.9-3.229a5.391,5.391,0,0,1,4.664-2.511c5.381.179,10.763.269,16.144,0,3.5-.179,6.1,1.794,6.547,5.74h38.656a6.407,6.407,0,0,1,6.637,6.637C164.39,123.259,164.39,124.784,164.39,125.86Zm11.121,55.427H118.559v3.588h56.414C175.152,183.709,175.332,182.543,175.511,181.288Zm475.17,47.176c-2.511,0-4.843.09-7.175,0-1.256-.09-1.794.448-2.242,1.614-2.063,4.664-1.7,9.686-2.242,14.53-.09.717.717,2.242,1.166,2.332,3.5.179,7.085.09,10.583.09C650.681,240.662,650.681,234.742,650.681,228.464Zm-10.852,0c-.9,0-2.242-.09-3.588,0-1.256.09-2.87-.179-3.588.448a11.75,11.75,0,0,0-3.318,5.112,46.282,46.282,0,0,0-.987,9.955c0,.987,1.076,2.691,1.794,2.78a52.245,52.245,0,0,0,7.444.09C638.3,240.751,639.021,234.742,639.828,228.464ZM178.112,144.605c.538-5.65,1.076-11.032,1.7-16.5H169.681c-1.435,0-1.973.718-1.973,2.063V140.48a2.062,2.062,0,0,0,1.883,2.332C172.282,143.35,175.063,143.977,178.112,144.605Zm232.742-29.328c2.422-1.166,4.753-2.242,7.085-3.229a9.1,9.1,0,0,1,2.242-.179c-.448.538-.807,1.166-1.256,1.7-.179.269-.538.359-.628.448a57.785,57.785,0,0,1,4.933,4.215c.9.9,1.435,1.166,2.6.628.538-.269,1.256,0,1.973,0-.448.538-.807,1.166-1.256,1.7-.359.538-1.166.987-1.166,1.525-.09,2.422-.09,4.843-.09,7.265a2.85,2.85,0,0,1,.807-.269h2.153c-.448.538-.807,1.345-1.345,1.614-1.525.9-3.139,1.525-4.664,2.332.179,1.7.359,3.139.628,4.843,5.023-2.87,7.713-7,7.982-12.556a14.332,14.332,0,0,0-7.175-13.722c-4.843-3.049-9.955-3.139-15.247-.359C409.239,112.766,410.046,113.932,410.854,115.277ZM689.067,247.029c1.884,0,4.126-.09,6.278,0a2.244,2.244,0,0,0,2.691-2.691c-.987-5.112-.987-10.673-4.933-14.8-.359-.448-.9-.987-1.345-.987-2.153-.09-4.215-.09-6.906-.09C689.875,234.2,688.8,240.572,689.067,247.029Zm-61.8,0c.359-6.458-.807-12.825,4.3-18.476-2.063,0-3.588.09-5.023,0-1.883-.179-2.87.628-4.036,1.973-3.408,4.126-3.139,9.238-4.215,13.9a2.141,2.141,0,0,0,2.511,2.6C623.057,246.85,625.3,247.029,627.272,247.029ZM109.59,162.094h9.6V149.538h-9.6Zm-1.076,0c0-3.946,0-7.8-.09-11.66,0-.359-.718-.987-1.076-.987-2.78-.09-5.65-.09-8.431-.09v12.736Zm21.436,0V149.359c-2.87,0-5.65,0-8.431.09a1.459,1.459,0,0,0-1.076,1.076c-.09,3.857-.09,7.713-.09,11.66C123.761,162.094,126.81,162.094,129.949,162.094Zm-20.27,2.87v12.467h9.6V164.965Zm10.942,0v12.377h9.417V164.965ZM98.827,177.431h9.507V165.054H98.827ZM88.6,162.094h9.148c0-3.857.09-7.624-.09-11.3,0-.448-.9-1.256-1.525-1.256a33.614,33.614,0,0,0-6.009,0,2.178,2.178,0,0,0-1.525,1.256C88.513,154.471,88.6,158.148,88.6,162.094Zm42.6,0h9.148c0-3.946,0-7.713-.09-11.48,0-.448-.807-1.076-1.166-1.166q-3.229-.135-6.458,0c-.448,0-1.345.628-1.345.987C131.2,154.292,131.2,158.148,131.2,162.094Zm8.969,2.87h-8.879v12.467h8.879Zm374.449-17.489v13.543h7.624V147.475Zm-9.059,0v13.453h7.8V147.475Zm7.8-5.381V128.73h-7.8v13.364Zm109.061,86.639c-3.408-.718-6.009-.448-7.8,2.78-2.242,4.126-2.511,8.61-3.408,13-.269,1.256.628,2.6,2.511,2.422a21.408,21.408,0,0,1,3.408,0C617.765,240.482,618.034,234.2,622.429,228.733Zm71.482,0c4.484,5.471,4.754,11.749,5.292,18.207h2.332c3.408,0,4.126-.987,3.408-4.305-.538-2.6-1.166-5.2-1.7-7.8C702.162,229.989,699.2,228.016,693.91,228.733ZM514.623,128.551V142h7.8v-11.57a1.754,1.754,0,0,0-.718-1.166C519.377,129,517.134,128.82,514.623,128.551ZM149.5,149.538h-7.893V162H149.5ZM711.22,248.554a48.458,48.458,0,0,1-6.547.987q-45.741.135-91.482,0a63.954,63.954,0,0,1-7.982-.9c-.09.269-.179.987-.359,1.883h107A14.627,14.627,0,0,1,711.22,248.554Zm-207-101.079H496.6v13.453h7.624Zm0-18.924c-2.153,0-4.215-.09-6.278.09-.538,0-1.345.9-1.435,1.345-.09,4.036-.09,7.982-.09,12.018h7.8C504.219,137.52,504.219,133.215,504.219,128.551Zm-362.79,48.88h7.982V164.965h-7.982ZM87.437,162.094V149.538H80.083v12.556Zm387.992-1.166h7.085V147.565h-7.085Zm48.252-13.453v13.453h7V147.475ZM150.757,162.094h7.175V149.538h-7.175ZM482.6,129.358h-7.085V142H482.6Zm40.988,0v12.736h7.085V129.358ZM72.011,149.717V162h6.906v-6.816c0-6.458,0-6.458-6.458-5.74C72.369,149.538,72.28,149.538,72.011,149.717Zm395.526-2.242v13.453h6.547V147.475Zm64.486,0v13.453h6.458V147.475ZM157.932,177.431V164.965h-7.175v12.467ZM106.81,146.489h6.906V134.022H106.81Zm0-15.606H113.9c0-3.857,0-7.534-.09-11.3,0-.359-.628-1.076-.987-1.076-1.973-.09-3.946-.09-6.009-.09C106.81,122.721,106.81,126.757,106.81,130.883Zm425.213-1.525v12.736h6.458V129.358Zm-57.939,12.736V129.448h-6.458v12.646Zm-7.713,18.835V147.565h-5.919v13.364Zm-360.906-14.44V134.022H98.917v12.467Zm9.6-12.556V146.4h6.547V133.932ZM105.554,118.6H98.917v12.287h6.637Zm440.1,42.333V147.475h-5.83v13.453ZM91.294,134.022v12.556h6.278V134.022Zm74.262,28.072V149.538h-6.1v12.556Zm-67.8-31.212c0-3.588-.09-7.085,0-10.494.09-2.063-1.076-2.153-2.511-1.883-1.256.269-2.511.628-3.946.987v11.39Zm447.994-1.7a42.82,42.82,0,0,0-4.843.09c-.448,0-1.166.628-1.166.987-.09,3.946-.09,7.8-.09,11.839h6.009C545.745,137.789,545.745,133.663,545.745,129.179Zm-79.374.179h-5.919V142h5.919Zm-43.23-7.085c-1.256.538-2.511,1.256-3.857,1.7-.448.179-.987-.179-1.525-.269.269-.448.359-1.076.807-1.345,1.166-.718,2.511-1.256,3.677-1.883-1.345-3.588-6.906-5.919-10.135-3.318,2.96,4.574,5.919,9.148,8.879,13.812C423.769,129,424.576,125.95,423.141,122.273Zm-287,24.216V133.932H130.4v12.556Zm-13.095-12.467v12.467h6.188V134.022Zm-46.01-.09v12.556h5.919V133.932Zm82.424,30.943v12.556h6.1V164.875Zm-44.4-45.741v11.659h6.547V119.134ZM84.477,134.022v12.467h5.561V134.022ZM82.953,119.4H76.943v11.48h6.009Zm40,11.39h6.188v-11.57h-6.188Zm7.444.09h5.74v-11.57H130.4Zm359.471,16.5v13.453h5.2V147.386Zm62.154.09H547v13.364h5.023Zm-63.41,13.453V147.475H483.86v13.453Zm-34.53-13.453v13.453h5.023V147.475ZM489.869,142h5.2V129.358h-5.2Zm-1.076.09c0-3.5-.179-6.816.09-10.135.179-2.332-.628-3.229-2.87-2.78-.807.179-2.153.628-2.242.987-.179,3.946-.09,7.8-.09,11.839C485.474,142.094,487,142.094,488.793,142.094Zm-316.6,20c0-3.946,0-7.713-.09-11.48,0-.448-.718-1.076-1.166-1.166a29.638,29.638,0,0,0-4.036-.09v12.736Zm379.741-20V129.358h-5.023v12.736Zm-92.828,0V129.358h-5.023v12.736ZM84.388,130.883h5.74v-11.57h-5.74Zm58.028,3.139h-4.933v12.467h4.933Zm-71.751,0v12.467h5.112V134.022Zm96.236,43.32h5.112V164.965H166.9ZM70.576,119.313v11.57h5.112v-11.57Zm66.818-.09v11.66h5.023v-11.66ZM69.41,146.489V134.022H65.015v12.467Zm483.78,14.35H557.4V147.475h-4.215Zm0-31.481v12.736h4.126V129.358ZM69.32,130.883v-11.66H65.015v11.66ZM143.761,146.4h4.395V134.022h-4.395Zm471.582,82.334c-2.96.179-4.664,1.525-5.471,4.215-.987,3.408-1.973,6.906-2.87,10.314-.718,2.691.807,4.036,3.049,3.5C610.769,240.393,611.218,234.2,615.343,228.733Zm90.406,18.117c2.87.179,4.215-.9,3.677-3.139-.9-3.857-1.973-7.624-3.139-11.39-.718-2.332-3.049-3.767-4.574-3.5.987,2.78,2.332,5.561,2.96,8.61C705.48,240.393,707.095,243.442,705.749,246.85ZM143.761,119.313v11.57h4.305v-11.57Zm29.508,42.781h3.408c.269-4.215.538-8.341.807-12.556h-4.215Zm388.62-20c0-4.036.09-7.8-.09-11.66,0-.448-.807-1.166-1.345-1.166-.628,0-1.794.538-1.794.9-.09,3.946-.09,7.982-.09,11.929ZM60.261,134.022v12.467h3.5V134.022Zm92.648,12.467V133.932H149.5v12.556Zm345.3-20.628c5.83,0,11.66,0,17.489-.09.359,0,.718-.628,1.076-.987-.538-.359-.987-1.076-1.525-1.076-5.292-.09-10.583,0-15.875-.09C498.031,123.618,497.672,124.246,498.21,125.86Zm-348.8,5.023H153V119.4h-3.588Zm-89.15-11.66v11.57H63.67v-11.57Zm35.7-3.5c5.74,0,11.39,0,17.041-.09.448,0,.9-.628,1.345-.987-.538-.359-1.166-1.166-1.7-1.166-5.023-.09-10.135,0-15.157-.09C95.957,113.483,95.33,114.021,95.957,115.726Zm60.988,30.763V134.022h-2.78v12.467Zm-2.691-27.265v11.66h2.691v-11.66Zm19.1,58.028c1.435.628,2.242,0,2.332-1.345.359-3.588.538-7.265.807-10.942h-3.229C173.359,169.18,173.359,173.216,173.359,177.252ZM56.225,133.932V146.4h2.6V133.932Zm2.6-3.049v-11.57h-2.6v11.57Zm504.139,10.942c.179.09.448.269.628.359.538-.717,1.525-1.345,1.525-2.063.179-3.229.09-6.547,0-9.866,0-.359-.807-.807-1.256-1.166-.269.448-.9.807-.9,1.256C562.876,134.291,562.965,138.058,562.965,141.825ZM450.137,129.358c.538,4.484,1.076,8.7,1.614,13.184,1.345-1.345,1.7-10.224.9-13.184ZM54.97,134.112c-.269,0-.538-.09-.807-.09-2.063,3.049-.538,6.637-.987,9.866a2.121,2.121,0,0,0,1.794,2.691Zm.09-3.139v-12.2c-.9.628-1.614.9-1.794,1.345C52.279,123.17,53.355,130.076,55.059,130.973Zm103.77,3.857c-.179.09-.448.09-.628.179v11.48c.179.09.448.179.628.269.359-.718.987-1.435.9-2.153C159.367,141.287,160.8,137.789,158.829,134.829Zm-.717-4.574a5.714,5.714,0,0,0,.628.179c2.242-2.691.717-6.1,1.076-9.059.09-.628-.718-1.435-1.076-2.153l-.538.269C158.112,123.08,158.112,126.668,158.112,130.255Z" transform="translate(-4.475 -6.674)"/><path d="M556.254,333.365a6.888,6.888,0,0,1-2.242-1.256c-5.381-5.65-10.494-11.48-16.054-16.861-4.395-4.215-9.328-7.8-14.53-12.108-1.076,4.395-2.242,7.982-2.78,11.749-.538,3.408-1.794,5.292-5.471,6.547a27.838,27.838,0,0,0-18.117,31.929c3.049,14.171,15.516,23.857,29.687,22.96a28.55,28.55,0,0,0,26.458-26.637,3,3,0,0,1,2.242-3.049c2.691-.987,5.381-2.152,8.251-3.319-.359-.628-.717-1.166-.987-1.7,1.166-1.345,1.883-.269,2.6.538,6.368,7.085,12.646,14.171,19.014,21.166,5.919,6.547,11.749,13.095,17.848,19.462,4.215,4.395,8.879,8.431,13.184,12.736a70.856,70.856,0,0,1,5.471,7.085,3.107,3.107,0,0,1,.717,2.152c-.448-.179-.807-.359-1.076-.448a12.552,12.552,0,0,1-.9,1.435,4.505,4.505,0,0,1-1.256-.9c-3.767-4.753-7.534-9.417-11.211-14.26-5.381-7.085-12.825-11.3-20.987-14.35-18.3-6.727-36.414-6.009-54.261,1.883a4.211,4.211,0,0,1-2.422.359c.359-.269.717-.628,1.076-.9a5.3,5.3,0,0,1,.717-.448c-2.422,0-5.022.09-7.713,0-14.619-.628-26.1-11.391-27.893-26.1a29.236,29.236,0,0,1,20.718-31.3,3.514,3.514,0,0,0,2.87-3.049c.807-3.946,1.7-7.893,2.78-11.749.448-1.525,0-2.242-1.345-2.96a106.82,106.82,0,0,0-37.041-12.646c-1.794-.269-3.5-.448-5.471-.717V611.938c5.2.538,10.4,1.166,15.606,1.614,14.8,1.345,29.6,2.87,44.4,3.857,10.673.717,21.346.628,32.019.628,2.422,0,4.843-.807,7.265-1.166.987-.09,2.063.09,3.139.09,0,.269.09.538.09.9-2.511.538-4.933,1.076-7.444,1.525-8.7,1.435-17.489.807-26.189.179-14.26-.987-28.611-2.152-42.871-3.408-8.162-.718-16.323-1.7-24.485-2.511a48.784,48.784,0,0,0-5.112-.269q-185.521,0-371.041.09c-9.686,0-19.373,1.076-29.059,1.614-8.072.448-16.144,1.166-24.126,1.076-13.9-.09-24.216-7-32.2-17.938A41.02,41.02,0,0,1,10.5,578.843c1.345-.717,1.614,0,1.883,1.166a42.117,42.117,0,0,0,17.579,27.624,35.427,35.427,0,0,0,23.14,6.816c16.144-.987,32.378-1.7,48.791-2.6V309.508c.179-.09.359-.09.538-.179.179.359.538.717.538,1.076a21.811,21.811,0,0,1,0,2.422V611.489h374V288.073c-4.933-.269-9.776-.717-14.709-.717H102.969v10.673h-.807V287.355c-4.305-.269-8.162-.628-12.108-.807-3.229-.179-6.458-.269-9.6-.538a6.806,6.806,0,0,1-3.588-1.614c1.7,0,3.5-.09,5.2,0,13.095.448,26.1,1.166,39.194,1.256q169.511.134,339.022.09c18.835,0,37.131,2.96,54.441,11.032,12.646,5.919,23.05,14.53,32.288,24.844,3.318,3.677,6.637,7.265,9.955,10.852A1.935,1.935,0,0,0,556.254,333.365Zm40.629,46.817a3.984,3.984,0,0,0-.628-1.076c-10.224-11.3-20.359-22.691-30.584-33.9a2.843,2.843,0,0,0-2.422-.538,58.431,58.431,0,0,0-7.444,2.96,3.057,3.057,0,0,0-1.525,2.242,29.584,29.584,0,0,1-13.364,22.691c-.538.359-1.166.807-1.7,1.166C559.035,368.254,578.138,369.958,596.883,380.183Z" transform="translate(-1.083 -29.242)"/><path d="M.179,612.5H4.215v2.511c0,9.6-.09,19.283,0,28.88a24.8,24.8,0,0,0,7.175,17.4,9.7,9.7,0,0,0,7.534,3.139q289.38-.134,578.849-.179c4.305,0,7.534,1.614,11.211,4.036-1.076.09-1.794.179-2.511.179H17.938c-4.664,0-7.893-2.242-10.763-5.561A29.772,29.772,0,0,1,0,643.084V613.756A8.361,8.361,0,0,1,.179,612.5Z" transform="translate(0 -63.078)"/><path d="M673.8,191.92a8.279,8.279,0,0,1,7.355-3.139c8.969.179,17.938.09,26.906.09h2.78c0-1.973.538-3.946-.179-5.381a5.861,5.861,0,0,0-4.126-2.6c-5.292-.269-10.583-.09-15.875-.09H688.6v-.718h19.373V176.4H694.428c1.435-3.139,4.126-2.332,6.637-2.511.179-1.345.269-2.511.448-3.677h.538c.09,1.166.179,2.332.269,3.588h3.049v-6.727h.718a22.012,22.012,0,0,1,.179,2.422v2.422c0,.9-.269,2.063,1.345,2.063,1.525,0,1.256-1.166,1.256-2.063v-5.83a11.044,11.044,0,0,1,.179-1.794h.807v4.215c0,.9-.09,1.794,0,2.691a8.987,8.987,0,0,0,.9,1.883c.359-.718.987-1.345.987-2.063.09-2.422,0-4.754.09-7.175a9.207,9.207,0,0,1,.448-2.153c.179,0,.359.09.628.09v11.121c.179,0,.448.09.628.09a10.431,10.431,0,0,0,.359-1.614,59.107,59.107,0,0,0,0-6.906c-.538-3.677,1.435-5.471,4.754-7.175a9.342,9.342,0,0,1,.9,2.96q.134,5.381,0,10.763a6.712,6.712,0,0,1-5.919,6.278,3.362,3.362,0,0,0-1.525.448c3.677.628,2.96,3.229,3.049,5.561v5.112h12.018c0-3.5.179-6.906-.09-10.314-.09-.9-1.256-1.883-2.153-2.6a3.686,3.686,0,0,1-1.7-3.857c.09-1.076,0-2.063,0-3.139,0-5.023,2.422-7.444,7.444-7.444H792.1c4.484,0,7.085,2.6,7.085,7.175a21.8,21.8,0,0,0,0,2.422,4.945,4.945,0,0,1-2.422,5.292,3.518,3.518,0,0,0-1.614,3.588,72.089,72.089,0,0,1,0,7.624,4.1,4.1,0,0,1-1.345,2.511c-2.153,2.153-4.754,2.6-7.713,2.6q-24.889-.135-49.777,0c-6.278,0-12.556.448-18.835.359-13.991-.09-27.893-.269-41.885-.448A6.7,6.7,0,0,0,673.8,191.92Zm116.864-15.068H731.2v11.839h59.464Zm-27.624-2.87v-8.969h-4.3v8.969Zm1.345-8.969v8.969h4.126v-8.969Zm-7,.09h-4.036v8.879h4.036Zm12.377,8.789h3.857v-8.879h-3.857ZM746.986,165.1H743.4v8.879h3.588Zm1.256,0v8.879h3.767V165.1Zm34.62,0h-3.229v8.789h3.229Zm-4.484,8.879V165.1h-3.318v8.879Zm-36.234,0v-8.969h-2.96v8.969Zm41.885-8.969v8.969h2.511v-8.969Zm-48.791,0v8.969h2.422v-8.969Zm52.737,8.879c1.435.448,2.242.179,2.153-1.435-.09-1.973-.09-3.857,0-5.83.09-1.614-.717-1.883-2.153-1.435Zm-56.055-.09c2.063.269,2.063.269,2.153-1.435,0-2.242,0-4.484-.09-6.727,0-.179-.179-.359-.269-.628h-1.794C731.918,168.063,731.918,170.933,731.918,173.8Zm60.091-8.969c-.269.09-.538.269-.807.359v8.341c.269.09.448.09.717.179,1.884-1.973.538-4.753.9-7.085A5.29,5.29,0,0,0,792.009,164.834Zm-61.975,8.879c.269-.09.448-.179.717-.269v-7.265c0-.448-.538-.807-.807-1.256-.269.448-.717.9-.717,1.345-.09,1.883-.09,3.857,0,5.74A3.333,3.333,0,0,0,730.035,173.713Zm64.4-7.444a.672.672,0,0,1-.448-.09v5.74h.448Zm-66.549,0a1.526,1.526,0,0,0-.628.09c-.269,1.883-.538,3.767.628,5.561Z" transform="translate(-69.479 -16.14)"/><path d="M400.844,29.336a25.726,25.726,0,0,1-2.78-.448c-6.368-1.973-13-1.435-19.462-1.525H347.39c0-.807-.09-1.435-.09-2.422h2.6c13.364,0,26.727.09,40.091-.09a30.283,30.283,0,0,0,7.354-1.345,3.257,3.257,0,0,0,2.422-3.408c-.09-4.036,0-8.072,0-12.108,0-2.96-1.345-4.036-4.574-3.588,2.242,2.332,3.5,4.664,1.973,7.982-.628,1.435-.179,3.408-.09,5.112.09,1.794-.717,2.422-2.422,2.422l-31.839-.269H347.479c-.09-.807-.09-1.435-.179-2.242h47V12.385H347.479V8.169h30.135V2.609c0-1.614.718-2.511,2.422-2.511,5.65,0,11.39-.09,17.041.09a6.911,6.911,0,0,1,6.816,7c.09,4.664.09,9.417,0,14.081,0,1.345-.718,2.691-1.076,4.036a.313.313,0,0,0,.179.09c5.381-.179,8.879,2.6,11.659,7,2.691,4.126,5.919,7.893,8.969,11.749a8.576,8.576,0,0,0,2.691,1.435c1.883.987,4.215,1.614,5.381,3.139,4.664,6.189,9.148,12.556,13.184,19.193,1.166,1.883.538,4.753.269,7.354-.359-.448-.807-.987-1.166-1.435-4.933-7.175-9.776-14.35-14.709-21.436-1.256-1.794-2.691-3.408-5.112-2.153a4.764,4.764,0,0,0-1.883,1.614c-1.794,3.946-4.843,5.112-9.059,5.023-21.166-.179-42.333-.09-63.41-.09-.807,0-1.7-.09-2.511-.09v-.718h66.728c-.538-1.076-.717-1.7-1.076-2.242-4.036-6.906-8.072-13.812-12.018-20.718a3.072,3.072,0,0,0-3.139-1.794c-15.965.09-32.019,0-47.983,0-.807,0-1.7-.09-2.511-.09v-.807h53.544Zm.09,1.614c.628,1.076,1.076,1.794,1.525,2.6,4.036,6.906,8.072,13.722,12.018,20.628.9,1.614,2.063,1.794,3.229.987,1.435-1.076,2.422-2.691,3.677-4.036.9-1.076.807-1.973-.09-3.139-4.305-5.471-8.52-10.942-12.646-16.5a3.8,3.8,0,0,0-4.126-1.525A36.75,36.75,0,0,0,400.934,30.95Z" transform="translate(-35.812 0.072)"/><path d="M341.254,157.7c.538-.269,1.076-.9,1.525-.9,10.135-.09,20.359-.09,30.494,0a32.475,32.475,0,0,1,4.036.718c-9.417-11.57-21.167-17.489-35.7-18.3v-2.153c20.18-2.78,44.4,18.835,47.355,41.885a49.069,49.069,0,1,1-97.581,9.776c-1.883-28.7,20-48.252,40-51.033v2.242c-11.3,2.511-20.539,8.072-27.355,16.682h24.575a4.813,4.813,0,0,1,1.973.09c.448.179.718.717,1.525,1.614H307.89c-3.677,0-5.381,1.794-5.381,5.381v44.127c0,3.588,1.7,5.292,5.2,5.292h65.024c3.5,0,5.292-1.7,5.292-5.2,0-14.8.09-29.6,0-44.4,0-3.5-1.883-5.2-5.381-5.2H341.792A1.681,1.681,0,0,1,341.254,157.7Zm-37.669,56.773c10.045,12.018,22.691,18.207,38.118,17.758,14.35-.448,26.1-6.637,35.517-18.207C373.721,215.191,311.656,215.37,303.585,214.473Zm76.146-53.1v48.791C389.058,197.343,389.058,174.293,379.73,161.378ZM300.8,209.989V161.557C291.566,173.934,291.566,196.984,300.8,209.989Z" transform="translate(-30.035 -14.03)"/><path d="M325.556,25.014v2.422c-7.982,0-15.875.09-23.767,0-7.8-.179-15.516.09-23.05,2.87h46.817v.807c-.807,0-1.614.09-2.511.09H281.608a3.256,3.256,0,0,0-3.318,1.883c-3.767,6.816-7.624,13.543-11.48,20.27-.359.628-.717,1.256-1.256,2.422h60v.807a18.882,18.882,0,0,1-2.242.179H265.285a6.3,6.3,0,0,1-5.83-3.408c-.717-1.166-1.525-2.6-2.6-3.139-2.422-1.076-3.5-.538-5.2,1.883-4.395,6.368-8.789,12.825-13.184,19.193l-1.345,1.883a5.147,5.147,0,0,0-.628-.359c-2.332-2.78-2.332-2.78-.269-5.74,3.767-5.561,7.534-11.121,11.39-16.682,1.883-2.78,4.036-5.023,7.8-4.933.628,0,1.345-.807,1.794-1.435,3.857-4.933,7.713-9.866,11.48-14.978,1.525-2.063,3.139-3.229,5.65-3.318A20.3,20.3,0,0,0,278.2,25.1c-2.78-5.919-1.256-12.2-1.435-18.3a6.777,6.777,0,0,1,6.906-6.816c5.561-.179,11.211,0,16.772,0,1.794,0,2.6.9,2.6,2.691V7.973h22.332v4.036H286.182v4.933h39.194v2.6h-2.242c-12.287,0-24.485-.09-36.772-.09-2.063,0-2.96-.538-2.87-2.78a40.607,40.607,0,0,0-.717-6.547,5.589,5.589,0,0,1,2.6-5.561c-2.78-.718-4.484.448-4.574,3.049q-.135,5.919,0,11.839c0,1.973,1.166,3.049,3.139,3.857,4.036,1.794,8.251,1.614,12.467,1.614h26.458A26.084,26.084,0,0,0,325.556,25.014ZM278.29,30.933c-2.153-.718-4.036-1.973-5.74.179-4.664,6.1-9.328,12.2-14.26,18.566,1.435,1.794,2.78,3.588,4.395,5.292.717.807,1.614.718,2.332-.538C269.321,46.719,273.716,38.916,278.29,30.933Z" transform="translate(-24.202 0.089)"/><path d="M268.5,138.145c.538.628.987,1.345,1.435,1.883-20.628,33.633-13.184,72.917,10.224,96.774a78.668,78.668,0,0,0,134.533-64.4,76.916,76.916,0,0,0-25.561-48.97c-14.53-13-31.66-19.552-51.212-20.18a17.308,17.308,0,0,1-.09-2.063c22.243-1.076,57.49,12.287,73.365,48.432C427.07,185.59,414.334,228.1,381.149,249.9a81.226,81.226,0,0,1-104.039-12.825C249.486,207.474,250.2,165.231,268.5,138.145Z" transform="translate(-26.342 -10.349)"/><path d="M576.547,498.273c1.435-3.318,2.96-6.547,4.574-10.135.359.628.628.807.538.987-2.152,7.713-.448,15.426.179,23.14.359,4.574,2.96,6.547,6.637,7.534,1.345.359,3.049-.538,4.753-.9-.448.448-.717,1.076-1.256,1.256-2.87.987-3.049,3.857-4.3,5.919a.758.758,0,0,0,0,.628,28.434,28.434,0,0,0,5.292,3.5c1.525.717,2.511-.718,3.318-1.973,1.256-1.794,2.242-4.036,5.471-3.318-1.7,2.242-3.139,4.574-4.933,6.547a4.491,4.491,0,0,1-5.381.9c-5.919-2.6-11.839-5.2-17.669-8.072-3.139-1.525-3.857-3.588-2.96-7.085,1.256-4.843,2.422-9.686,3.767-14.53a3.144,3.144,0,0,0-.987-3.5c-14.44-13.812-21.077-30.853-20-50.764,1.525-27.714,22.781-52.468,50.046-57.67,26.907-5.112,48.791,3.587,65.473,25.292.538.718.987,1.435,1.525,2.242l.359.718a14.1,14.1,0,0,0-1.7,1.076c-17.938-23.947-41.167-34.082-70.226-25.292C575.381,401.947,561.3,418.988,557,443.383,552.6,467.33,564.26,488.407,576.547,498.273Zm3.5,25.023c1.345-2.96,2.242-5.74,1.435-8.969a65.611,65.611,0,0,1-1.435-9.507c-.359-3.229-.359-6.368-.628-9.6-.179,0-.448-.09-.628-.09-.448,2.242-.9,4.484-1.435,6.727-1.345,5.471-2.78,11.032-4.215,16.5-.538,1.973.179,3.229,2.063,3.767A47.5,47.5,0,0,0,580.045,523.3Zm8.789-1.973c-1.973-.987-3.857-1.794-5.919-2.78-.628,1.794-1.166,3.408-1.7,5.2,1.794.9,3.5,1.614,5.292,2.511C587.31,524.551,588.027,523.027,588.835,521.323Z" transform="translate(-57.072 -40.064)"/><path d="M665.346,179.281h-17.22c.09,4.664.09,4.664-2.422,8.251h8.431c-2.063,2.153-3.857,3.318-6.637,3.318-12.736-.179-25.561-.09-38.3-.09h-2.6c2.422-4.484,6.637-2.87,10.045-3.318,1.256-2.153-1.076-5.2,1.973-7.085v7c1.883.179,3.677.538,5.381.538,4.664.09,9.328-.269,13.9.09,3.677.269,5.471-2.153,7.444-4.395a2.578,2.578,0,0,0,.269-1.883c-.448-4.395-.807-8.789-1.345-13.184-.269-2.6-1.256-4.933-4.215-6.009.807-.717,1.525-1.256,2.242-1.883.9.628,1.7,1.256,2.691,1.973.09-1.7.269-3.229.359-4.754h.717a18.708,18.708,0,0,0,0,2.242c.269,3.588.628,7.265.987,10.852.179,1.7,1.166,1.614,2.511,1.256V156.679c-.538-.09-1.166-.269-2.242-.538a28.373,28.373,0,0,1,3.139-1.973,6.114,6.114,0,0,1,2.242-.09h42.064v-.628a72.771,72.771,0,0,0-41.077-2.063c2.78-2.242,4.843-5.112,8.969-5.65,12.018-1.614,23.5.538,34.889,4.036,2.063.628,2.242,2.153.628,3.408-2.242,1.7-4.215,4.215-7.623,3.229-.269,1.256-.448,2.242-.628,3.318h-.538c-.09-.987-.179-1.973-.359-3.049h-4.215v7.175h-.717v-7.085h-4.754v11.48h-.9v-11.48h-5.023c0,4.484-.09,8.879.09,13.274.09,2.063-.538,3.5-2.332,4.395a6.11,6.11,0,0,1-2.511.628c-6.189.09-12.377,0-18.566,0h-2.691c.179,1.256.269,2.153.359,3.408h17.4C665.346,178.653,665.346,178.922,665.346,179.281Zm7.085-6.816V156.679h-4.664v15.785Zm-10.583-15.785v15.606c4.753.718,4.753.718,4.753-3.767V156.679Zm-5.65.09v15.7h4.215v-15.7Zm-1.345,15.7V156.679h-3.767v15.785Z" transform="translate(-62.55 -14.892)"/><path d="M304.468,619.128H161.415c-.807,0-1.794.269-2.422-.179-.807-.538-1.794-1.525-1.794-2.332s1.076-1.7,1.883-2.242c.538-.359,1.435-.179,2.153-.179H447.7c.718,0,1.7-.179,2.242.179.9.628,2.063,1.614,2.063,2.332,0,.807-1.256,1.794-2.152,2.332-.538.359-1.435.09-2.242.09Zm.269-3.857H161.774c-1.345,0-3.588-.717-3.5,1.525.09,1.973,2.242,1.256,3.5,1.256H447.522c1.256,0,3.408.717,3.5-1.256.09-2.242-2.153-1.525-3.5-1.525Z" transform="translate(-16.21 -63.248)"/><path d="M304.637,309.442H161.584a6.747,6.747,0,0,1-2.691-.09c-.807-.359-1.794-1.345-1.794-2.063-.09-.807.807-1.794,1.525-2.332.538-.448,1.614-.359,2.422-.359H448.228c.717,0,1.7-.09,2.153.269.807.628,1.7,1.7,1.614,2.422-.09.807-1.256,1.614-2.153,2.063-.628.359-1.614.09-2.422.09Zm0-.987H447.69c1.256,0,3.408.717,3.318-1.435,0-1.973-2.063-1.256-3.229-1.256H161.494c-1.256,0-3.408-.807-3.318,1.345.09,1.973,2.153,1.345,3.5,1.345Z" transform="translate(-16.199 -31.328)"/><path d="M658.058,429.284c-.717.359-1.435.717-2.153,1.166a46.23,46.23,0,0,0-15.875-14.44c-27.445-15.068-62.333,3.588-64.845,34.8-1.973,24.306,15.068,45.293,39.194,47.983,18.386,2.153,36.5-8.072,44.665-25.113.807-1.614,1.7-2.422,3.5-2.422-3.318,16.144-24.664,30.673-44.485,30.315a46.668,46.668,0,1,1,40-72.289Z" transform="translate(-59.029 -42.019)"/><path d="M18.045,203.446c-4.574-2.153-4.664-2.242-2.87-6.727,2.511-6.458,6.637-9.328,13.453-9.328h2.242c1.166-4.753-1.345-9.686,1.883-13.9-1.883-2.691-2.153-4.305-1.435-11.39,1.435,1.166,3.139,1.883,3.767,3.139s.09,3.049.09,4.574h.807c.09-1.345.09-2.691.179-4.126a1.975,1.975,0,0,0,.718-.09c.09,1.435.269,2.87.269,4.305,0,1.7.807,2.511,2.691,2.063.09-1.256.269-2.511.359-3.767h.628c.09,1.166.269,2.332.359,3.767,2.78.538,6.368-1.076,8.431,2.6-.987.09-1.973.179-3.139.269V183.8h5.292V176H52.4v7.624c.269-.09.448-.179.718-.269,1.256,1.256,2.511,2.422,3.767,3.677-.09.09-.179.269-.359.359h2.691v-6.368h.807v6.906c2.96-.448,5.471-.717,7.982-1.076a1.69,1.69,0,0,1,.718.179,32.3,32.3,0,0,1,5.561,4.036H56.342v3.946h7.713c4.843,0,9.686.09,14.53,0a7.359,7.359,0,0,1,5.65,2.422c-1.076.09-1.883.09-2.6.09H32.306a27.253,27.253,0,0,0-5.381.448C23.426,198.693,20.2,200.128,18.045,203.446Zm19.731-8.789H53.741c0-2.332.09-4.574-.09-6.816,0-.448-.9-1.256-1.345-1.256q-6.592-.135-13.184,0a1.776,1.776,0,0,0-1.256,1.256C37.687,190.083,37.777,192.325,37.777,194.657Zm-18.835,4.036c5.2-3.767,10.763-3.677,16.144-3.857v-3.408H28.449C23.7,191.518,20.915,193.4,18.942,198.693Zm22.153-14.8h3.946v-8.969H41.1Zm-1.256,0v-8.879c-1.614-.448-2.691-.09-2.691,1.7-.09,2.332,0,4.753,0,7.265C38.135,183.894,38.943,183.894,39.839,183.894Zm-3.857-6.727h-.448v7.8h.448Z" transform="translate(-1.453 -16.635)"/><path d="M577.476,376.227c9.866,2.063,21.256-3.857,25.471-13.633,1.435-3.229,1.794-7,2.332-10.583.269-1.7.628-2.422,2.332-2.332,1.7,8.61-3.408,19.462-11.66,25.023a27.082,27.082,0,1,1-13.633-49.508,37.082,37.082,0,0,1,7,1.345c1.614.448,3.049,1.435,4.843.359a3.212,3.212,0,0,1,2.422.628,45.7,45.7,0,0,1,5.561,4.574c.718.717.718,2.063.987,3.049.448,1.525.9,3.139,1.435,4.843-.359.179-1.076.448-1.794.807-.628-.9-1.256-1.7-1.973-2.691-1.166,1.614-2.332,3.139-3.408,4.664-.179-.09-.269-.269-.448-.359,1.256-2.691,2.6-5.381,3.946-8.162-2.152-1.794-4.215-3.408-6.278-5.112-6.547,3.588-11.3,9.148-16.772,13.722-6.368,5.381-12.467,10.942-18.745,16.413a2.24,2.24,0,0,0-.628,3.229,24.993,24.993,0,0,0,15.785,13.364,2.142,2.142,0,0,0,2.87-1.166c3.408-5.74,6.816-11.39,10.314-17.041a13.039,13.039,0,0,1,1.7-2.063c.179.09.359.269.538.359-2.6,4.305-5.112,8.61-7.982,13.274,10.135-1.435,15.068-7.444,16.413-16.861a5.32,5.32,0,0,1,.718.359,35.986,35.986,0,0,1-.807,4.484c-2.332,7.354-7.354,11.66-14.888,12.825a4.413,4.413,0,0,0-3.677,2.6A30.1,30.1,0,0,1,577.476,376.227Zm-19.911-17.041c.628-.448,1.166-.987,1.7-1.435,2.422-1.7,3.5-3.677,3.677-7a17.735,17.735,0,0,1,19.373-16.772,7.843,7.843,0,0,0,8.072-4.484c-8.52-4.036-19.552-2.063-26.548,4.664C557.027,341.069,554.247,351.832,557.565,359.186Zm27-23.767c-6.278-.987-11.211.359-15.426,4.305a16.388,16.388,0,0,0-5.2,13.9C570.929,347.437,577.566,341.7,584.562,335.419Z" transform="translate(-57.104 -33.448)"/><path d="M739.99,628.76H838.2V597.1h4.215c0,3.946-.179,7.893,0,11.839.538,13.812-.538,27.624-1.883,41.346-.179,2.153-.9,4.215-1.256,6.368s-1.614,3.049-3.677,2.6a10.8,10.8,0,0,0-1.7,0c3.946-9.058,2.691-18.745,4.395-28.341h-3.049c-29.328,0-58.746,0-88.074-.09-2.422,0-4.843-.9-7.265-1.345A2.23,2.23,0,0,1,739.99,628.76Z" transform="translate(-76.295 -61.49)"/><path d="M693.8,670.389h51.212c14.35,0,28.7.179,43.051-.09,5.112-.09,9.058,2.153,13.453,4.215H799c-31.122,0-62.333-.09-93.455.09C701.065,674.694,697.746,672.99,693.8,670.389Z" transform="translate(-71.541 -69.038)"/><path d="M340.3,126.582c13.453-1.435,37.31,6.816,49.867,28.79,13.364,23.5,9.148,53.544-10.225,71.84-20,18.835-49.956,21.7-72.558,7.085A58.882,58.882,0,0,1,283.8,164.789c7.175-19.911,31.032-39.373,46.638-37.49-19.731,4.036-34.8,14.53-43.409,32.916-8.7,18.476-7.623,36.862,2.691,54.441a57.487,57.487,0,0,0,63.948,26.189c24.844-6.547,42.6-28.88,43.14-54.262a56.465,56.465,0,0,0-15.965-41.526C369.991,133.308,356.179,127.568,340.3,126.582Z" transform="translate(-28.905 -12.957)"/><path d="M834.143,275.663c7.444-1.525,12.018,2.422,12.2,10.4.359,17.579.359,35.068.538,52.647,0,.359-.09.717-.09,1.166h-4.126V286.695H800.69c0-.179-.09-.448-.09-.628,1.883-.359,3.857-1.076,5.74-1.076,11.032-.09,22.063-.09,33.185-.09h3.229c-1.435-2.242-2.332-4.126-3.677-5.561A37.04,37.04,0,0,0,834.143,275.663Z" transform="translate(-82.554 -28.312)"/><path d="M753.246,285.9c-4.664,2.691-9.507,1.345-14.44,1.883.987.9,1.794,1.525,2.511,2.242a1.963,1.963,0,0,1-.269.448,7.5,7.5,0,0,1-2.063-1.076,8.165,8.165,0,0,0-5.74-1.794c-39.553.09-79.195,0-118.748.09a17.914,17.914,0,0,0-3.139.179c-7.623,1.435-10.583,9.238-5.74,15.426,3.857,4.933,8.072,9.6,12.108,14.35,3.318,3.946,6.637,7.8,9.955,11.66-.09.269-.269.448-.359.717-.628-.269-1.525-.359-1.973-.9-7.085-8.162-14.171-16.413-21.077-24.754-2.78-3.408-3.677-7.354-1.973-11.57,1.794-4.305,5.292-6.278,9.776-6.816a18.747,18.747,0,0,1,2.242-.09H753.246Z" transform="translate(-62.017 -29.401)"/><path d="M4.215,325H0v-2.511c0-11.211.09-22.422.09-33.633,0-4.484.807-8.789,3.677-12.467,2.691-3.588,3.408-7.624,3.588-11.929.09-2.153.359-4.305.538-6.458,4.126,1.166,4.126,1.256,3.677,5.2-.09.628-.09,1.345-.179,1.973-.09,1.7-.269,3.408-.359,5.381a23.726,23.726,0,0,0,2.422.179c5.83,0,11.66,0,17.489.09a19.7,19.7,0,0,1,3.857.807c0,.269-.09.538-.09.807H12.646a2.47,2.47,0,0,0-2.6,1.525c-1.166,2.153-2.78,4.126-3.588,6.458a29.994,29.994,0,0,0-2.063,9.238c-.269,10.942-.09,21.974-.09,32.916A20.289,20.289,0,0,0,4.215,325Z" transform="translate(0 -26.524)"/><path d="M48.9,608.456c.628-.628,1.166-1.076,1.794-1.7,2.96,5.112,7.085,8.52,12.825,9.686A18.462,18.462,0,0,0,75.712,615a18.805,18.805,0,0,0,10.045-21.7,19.061,19.061,0,0,0-19.373-14.081c-9.6.448-15.875,7.175-17.938,19.552H46.384c-1.256-9.238,6.278-19.1,16.323-21.436A21.356,21.356,0,1,1,48.9,608.456Z" transform="translate(-4.769 -59.394)"/><path d="M49.142,398.613c-.807-.269-1.525-.538-2.242-.718,1.883-10.314,11.749-17.31,23.05-16.5,10.224.807,18.835,9.955,19.014,20.359.179,11.57-7.713,20.9-18.835,22.153-10.4,1.166-20.628-5.74-22.871-15.426.628-.269,1.256-.628,2.063-.987,1.973,5.919,5.561,10.314,11.39,12.646a18.074,18.074,0,0,0,12.467.448c8.341-2.511,14.171-11.211,13.274-19.552a19.107,19.107,0,0,0-17.669-17.31C60.084,382.917,52.012,388.927,49.142,398.613Z" transform="translate(-4.836 -39.241)"/><path d="M46.6,341.787c.718-.269,1.345-.538,2.242-.807,1.614,6.458,5.023,11.3,10.942,13.991a17.952,17.952,0,0,0,12.2,1.166A18.847,18.847,0,0,0,71,319.276c-8.7-1.614-17.669,2.691-21.525,12.736-.718-.269-1.435-.538-2.063-.807,2.063-9.059,12.556-15.785,22.512-14.619a21.431,21.431,0,0,1,.269,42.512C58.977,360.173,49.2,353.267,46.6,341.787Z" transform="translate(-4.805 -32.551)"/><path d="M47.935,474.849c.807-.269,1.435-.538,2.063-.717,5.561,11.57,16.144,13.274,23.319,10.942,8.431-2.691,14.171-11.211,13.184-19.642a19.019,19.019,0,0,0-18.207-17.22c-9.328-.538-16.682,5.74-19.642,16.951-.718-.269-1.435-.448-2.153-.717.987-10.494,10.135-18.655,20.987-18.745s20.27,8.162,21.346,18.565c1.166,11.48-5.919,21.615-16.592,23.767C61.657,490.1,50.715,484.266,47.935,474.849Z" transform="translate(-4.795 -45.879)"/><path d="M48.639,531.83H46.4c-.538-9.417,7.713-18.745,17.938-20.359a21.508,21.508,0,0,1,23.947,15.7,21.37,21.37,0,0,1-40,14.53c.628-.448,1.256-.807,1.883-1.256,6.458,11.48,17.579,12.736,25.113,9.328a18.99,18.99,0,0,0,10.583-21.7c-2.153-8.7-10.494-14.978-19.193-14.44C56.98,514.341,49.895,521.336,48.639,531.83Z" transform="translate(-4.782 -52.634)"/><path d="M853.357,578.4H849.5V514h3.857Z" transform="translate(-87.596 -52.921)"/><path d="M822.5,196.021c2.332-2.422,7.713-1.973,8.969.987a22.153,22.153,0,0,1,1.794,6.188c1.614,13.543,3.139,27.086,4.664,40.719.448,4.126.987,8.251,1.525,12.556h-4.126c-.628-5.112-1.256-10.224-1.883-15.426-1.435-12.646-2.87-25.382-4.395-38.028C828.419,198.263,827.164,197.007,822.5,196.021Z" transform="translate(-84.812 -19.972)"/><path d="M780.94,202.7c-1.614.538-3.139,1.435-4.753,1.435q-55.562.135-111.124.09c-.628,0-1.256-.09-1.883-.09-.09-.269-.09-.538-.179-.807,1.435-.448,2.87-1.435,4.3-1.435q55.966-.135,111.842-.09c.538,0,1.076.09,1.7.09A1.267,1.267,0,0,0,780.94,202.7Z" transform="translate(-68.365 -20.729)"/><path d="M848.1,358.4h3.857v61.8c-.448,0-1.076.09-1.7.09s-1.166-.09-2.153-.09C848.1,399.657,848.1,379.118,848.1,358.4Z" transform="translate(-87.452 -36.877)"/><path d="M594.712,612.227c-.628-.359-1.256-.628-2.063-1.076,2.242-4.484,2.78-9.059.9-13.722a15.757,15.757,0,0,0-7.085-8.162,16.006,16.006,0,0,0-21.167,22.871c4.664,6.727,12.2,8.7,20.987,5.2.359.628.717,1.166,1.076,1.794-5.83,4.484-16.772,2.87-22.422-3.318a18.739,18.739,0,0,1,0-25.292c6.278-7,17.4-7.893,25.023-1.973C597.223,594.2,599.376,604.873,594.712,612.227Z" transform="translate(-57.747 -60.205)"/><path d="M662.862,601.408H660.62c-.269-.9-.448-1.7-.717-2.6a16.3,16.3,0,0,0-16.054-11.57,16.087,16.087,0,0,0-5.112,31.032,15.724,15.724,0,0,0,19.014-5.83c.987-1.435,1.794-2.153,3.229-.807-3.139,7.623-12.825,12.018-21.346,9.6a18.547,18.547,0,0,1-13.364-20.808c1.7-9.866,9.866-16.054,20.18-15.426C654.7,585.354,662.5,593.067,662.862,601.408Z" transform="translate(-64.55 -60.238)"/><path d="M852.657,496.18H848.8V438.6h3.857Z" transform="translate(-87.524 -45.147)"/><path d="M549.529,226.561a19.543,19.543,0,0,1-.538,1.973c-10.045-1.345-16.323,1.525-19.1,8.789a14.788,14.788,0,0,0,23.5,16.5c5.74-5.112,6.547-12.018,2.063-20.359.628-.359,1.256-.718,1.794-1.076,5.112,5.471,4.843,15.516-.628,21.794a17.33,17.33,0,0,1-28.072-20C532.757,226.83,542.085,223.333,549.529,226.561Z" transform="translate(-54.269 -23.158)"/><path d="M151.029,230.724c-.09-.987-.179-1.7-.269-2.332,6.906-3.857,16.5-1.345,21.256,5.561A17.079,17.079,0,0,1,146.365,256.2c-6.189-5.83-7.354-15.606-2.6-21.794.628.179,1.345.359,2.332.628-2.691,4.215-3.588,8.52-1.973,13.274a13.95,13.95,0,0,0,5.919,7.624,14.41,14.41,0,0,0,18.117-1.883,14.649,14.649,0,0,0,2.153-18.117C166.186,229.558,159.37,227.674,151.029,230.724Z" transform="translate(-14.523 -23.284)"/><path d="M620.436,233.656c.538-.448,1.076-.9,1.7-1.345,5.023,5.2,4.843,15.247-.269,21.436a17.349,17.349,0,0,1-28.88-18.835,17.161,17.161,0,0,1,20.539-8.61c-.269.628-.628,1.256-.9,1.883-9.955-.628-15.965,2.691-18.3,9.955a14.846,14.846,0,0,0,24.4,15.247C624.024,248.455,624.652,241.459,620.436,233.656Z" transform="translate(-60.959 -23.167)"/><path d="M78.632,238.805a18.981,18.981,0,0,0-1.883-.987c2.242-7.534,10.4-12.2,18.924-10.942a17.011,17.011,0,0,1,13.991,16.951c-.09,8.61-6.278,15.516-15.068,16.772a16.76,16.76,0,0,1-18.3-12.018c.807-.09,1.614-.09,2.332-.179,2.6,6.278,8.61,11.211,16.951,9.507a14.409,14.409,0,0,0,11.57-13.633A14.681,14.681,0,0,0,96.57,229.657C89.484,227.594,83.654,230.554,78.632,238.805Z" transform="translate(-7.868 -23.294)"/><path d="M633.664,448.543c-.359.628-.807,1.166-1.345,1.973-2.87-2.78-6.1-4.484-10.135-4.305a12.951,12.951,0,0,0-7.713,3.229,12.3,12.3,0,0,0-2.691,14.53,12.46,12.46,0,0,0,13.722,6.637c6.009-1.256,9.238-5.83,9.866-13.812.718.09,1.435.269,2.153.359,1.166,6.547-3.408,13.364-10.135,15.516a14.839,14.839,0,0,1-17.848-7.8,15.032,15.032,0,0,1,5.2-18.835A14.778,14.778,0,0,1,633.664,448.543Z" transform="translate(-62.707 -45.672)"/><path d="M641.7,442.166c-7.893-8.52-17.22-11.929-28.431-8.162a23.745,23.745,0,0,0-14.44,13.274,24.643,24.643,0,0,0,13.812,33.185c9.328,3.5,18.027,1.794,25.472-4.843,7.354-6.547,9.417-15.157,7.8-24.754,3.677,8.7-.269,22.691-11.749,29.059a25.88,25.88,0,1,1-23.05-46.279C623.856,427.906,637.668,434.274,641.7,442.166Z" transform="translate(-61.419 -44.408)"/><path d="M329.875,101.4v2.511c-20.808,2.691-37.938,12.018-51.661,27.983-.538-.628-.987-1.256-1.614-2.063C290.681,113.6,308.35,104.091,329.875,101.4Z" transform="translate(-28.522 -10.376)"/><path d="M809,205.681c1.525-2.063,2.96-2.242,4.933-1.525a11.12,11.12,0,0,1,7.265,7.534c4.395,13.095,6.278,26.727,8.969,40.18.269,1.345.448,2.78.807,4.215.448,1.7-.09,2.6-2.063,2.6-1.076-5.65-1.973-11.39-3.229-17.041-1.883-8.879-4.126-17.669-6.009-26.548C818.417,209.268,815.1,206.04,809,205.681Z" transform="translate(-83.42 -20.932)"/><path d="M650.592,518.751c4.753-2.96,9.686-5.561,14.081-8.879a59.29,59.29,0,0,0,22.153-34.44c.359-1.525.9-2.422,2.96-2.332-.179,1.256-.359,2.6-.628,3.767-4.574,17.579-14.709,31.122-30.494,40.18-2.332,1.345-5.381,1.435-8.072,2.153C650.5,518.93,650.5,518.84,650.592,518.751Z" transform="translate(-67.079 -48.703)"/><path d="M692.438,407.649c-.538-.179-1.256-.179-1.614-.538-14.53-16.861-28.969-33.813-43.409-50.674-3.408-4.036-6.906-8.072-10.314-12.108,1.435-1.345,2.063-.179,2.691.628,7.624,8.879,15.247,17.758,22.96,26.637,8.52,9.866,17.22,19.731,25.741,29.6,1.525,1.794,2.87,3.767,4.3,5.74A1.8,1.8,0,0,0,692.438,407.649Z" transform="translate(-65.695 -35.362)"/><path d="M241.4,85.348c.09-.718-.179-1.614.179-2.153,2.6-4.305,5.112-8.61,7.893-12.736a10.321,10.321,0,0,1,8.072-4.574c1.525-.09,3.139-.09,4.664-.09h60.988a4.305,4.305,0,0,1,1.076,0,12.973,12.973,0,0,1,1.973.807,5.852,5.852,0,0,1-1.973.718c-21.256,0-42.6.09-63.858,0-4.843,0-8.431,1.614-10.852,6.009-2.332,4.126-5.023,8.072-7.534,12.108C241.847,85.437,241.578,85.348,241.4,85.348Z" transform="translate(-24.89 -6.701)"/><path d="M54.182,284.091c-5.292,0-10.583-.359-15.785.09-15.516,1.256-27.8,15.068-27,29.777.269,4.484,0,8.969,0,14.171-.807-.717-1.614-1.166-1.614-1.435.359-7.8-1.166-15.7,1.435-23.319A31.743,31.743,0,0,1,41.894,282.3c2.6.09,5.2,0,7.8.269a25.832,25.832,0,0,1,4.484,1.345C54.271,283.912,54.271,284,54.182,284.091Z" transform="translate(-0.996 -29.027)"/><path d="M658.7,647.353c1.166-.628,2.332-1.166,3.5-1.794,7.085-3.587,13.722-7.713,19.1-13.722q2.691-2.96,5.65-5.65a9.274,9.274,0,0,1,1.883-.987c.179.269.269.448.448.717-1.525,1.794-3.049,3.588-4.664,5.471,8.072,1.256,16.323-1.435,24.036,2.332-.628,0-1.166.09-1.794.09-7.354,0-14.619.09-21.974,0a6.687,6.687,0,0,0-4.933,1.883,73.393,73.393,0,0,1-18.3,12.018,13.741,13.741,0,0,1-2.87.448C658.79,647.891,658.7,647.622,658.7,647.353Z" transform="translate(-67.922 -64.388)"/><path d="M12.4,217.9c3.677,1.256,3.767,1.435,3.408,5.023-.628,6.189-1.166,12.467-1.794,18.655-.09.987-.269,2.063-.448,3.408a31.458,31.458,0,0,1-3.049-1.614,1.7,1.7,0,0,1-.718-1.345c.718-7.893,1.525-15.875,2.332-23.767C12.131,218.169,12.22,218.079,12.4,217.9Z" transform="translate(-1.009 -22.389)"/><path d="M642.379,202.083q-3.094,2.153-4.843,3.229a10.926,10.926,0,0,0-2.87-.987c-11.839-.09-23.678,0-35.606,0h-2.691a6.168,6.168,0,0,0-.269-.717c1.256-.538,2.422-1.525,3.677-1.525,13.722-.09,27.445-.09,41.167-.09A2.72,2.72,0,0,1,642.379,202.083Z" transform="translate(-61.467 -20.743)"/><path d="M551.359,526.2l1.883,1.614a88.65,88.65,0,0,0,36.324,23.05c3.946,1.345,7.265.448,10.135-2.691,2.6-2.96,5.292-5.919,7.982-8.789a15.547,15.547,0,0,1,1.883-1.525l.538.538c-3.857,4.126-7.534,8.341-11.57,12.287a7.965,7.965,0,0,1-8.072,1.525,87.973,87.973,0,0,1-39.014-24.754c-.179-.179-.269-.538-.448-.718A.606.606,0,0,1,551.359,526.2Z" transform="translate(-56.816 -54.179)"/><path d="M253.1,100.311a9.338,9.338,0,0,1,.538-1.435c3.139-4.664,6.278-9.507,9.6-14.081a10.355,10.355,0,0,1,8.7-4.395h53.993a1.847,1.847,0,0,1,1.525.718,23.862,23.862,0,0,1-2.511.269c-17.22,0-34.53.09-51.75,0a11.117,11.117,0,0,0-9.955,5.292c-2.691,4.126-5.561,8.162-8.251,12.2-.359.538-.807,1.076-1.256,1.7A4.372,4.372,0,0,1,253.1,100.311Z" transform="translate(-26.098 -8.211)"/><path d="M710.314,468.669c.448,6.278,1.166,12.556,1.345,18.924.269,7.354.09,14.8.09,22.153,0,1.076.09,2.153-1.7,1.614,0-4.933.179-9.955,0-14.978-.359-8.61-.9-17.22-1.345-25.92a10.043,10.043,0,0,1,.538-2.063A4.732,4.732,0,0,0,710.314,468.669Z" transform="translate(-73.078 -48.219)"/><path d="M329.723,95.76A88.038,88.038,0,0,0,273.4,125.447c-.179-1.7,1.525-3.677,6.906-8.52C293.758,104.909,320.4,93.249,329.723,95.76Z" transform="translate(-28.19 -9.759)"/><path d="M672.931,562.408a8.8,8.8,0,0,1-1.973-1.166,7.593,7.593,0,0,0-8.52-1.525,7.258,7.258,0,0,0-4.126,7.085,7.37,7.37,0,0,0,12.2,5.023,3.205,3.205,0,0,1,2.063-.448,8.081,8.081,0,0,1-9.955,3.408,9.06,9.06,0,0,1,1.345-17.4C668,556.758,671.676,558.552,672.931,562.408Z" transform="translate(-67.713 -57.383)"/><path d="M766.338,299.1c.717.717,1.614,1.435,2.242,2.152a104.955,104.955,0,0,1,17.579,30.763c2.6,6.906,4.395,14.081,6.458,21.166a1.953,1.953,0,0,1-.179,1.7c-5.022-20.359-12.915-39.194-26.637-55.248A3.045,3.045,0,0,1,766.338,299.1Z" transform="translate(-78.966 -30.762)"/><path d="M692.143,458.479a61.6,61.6,0,0,0-4.843-25.023c.628-.359,1.256-.717,2.063-1.256a56.178,56.178,0,0,1,4.395,14.978c.448,2.87.538,5.74.807,8.7C694.834,457.672,694.3,458.658,692.143,458.479Z" transform="translate(-70.871 -44.487)"/><path d="M705.6,454.917c-2.332-.807-1.166-3.857-2.78-5.292v6.009c-.269.09-.538.09-.807.179a46.639,46.639,0,0,0-7.713-26.279c.987-.538,1.7-.9,2.78-1.435,3.139,8.879,6.278,17.579,9.417,26.279C706.229,454.468,705.959,454.737,705.6,454.917Z" transform="translate(-71.593 -44.064)"/><path d="M764.724,587.9a3.816,3.816,0,0,1-.987.179c-11.57,0-23.14,0-34.709-.09-4.664-.09-7.982-2.78-9.328-7.893.987.628,1.883.9,2.153,1.435,1.973,4.036,5.471,4.933,9.507,4.933,8.789.09,17.579,0,26.458.179a46.907,46.907,0,0,1,7,.987A.33.33,0,0,0,764.724,587.9Z" transform="translate(-74.212 -59.737)"/><path d="M711.889,527.669V541.3c0,6.906,0,13.722-.09,20.628,0,.628-.628,1.166-.987,1.794a9.331,9.331,0,0,1-.717-1.794c0-10.852-.09-21.7,0-32.467a5.825,5.825,0,0,1,.807-2.063A1.611,1.611,0,0,1,711.889,527.669Z" transform="translate(-73.218 -54.303)"/><path d="M718.444,510.616v-2.96c-.09-9.776-.179-19.552-.448-29.328-.09-3.408-.628-6.816-.9-10.224a2.037,2.037,0,0,1,.9-1.7c2.78,14.44,1.794,28.969,1.794,43.5C719.789,510.078,719.161,510.258,718.444,510.616Z" transform="translate(-73.942 -48.013)"/><path d="M697.6,611.736c5.65-9.776,8.789-20.359,10.4-31.481.09-.448.717-.9,1.076-1.256.179.448.628.987.538,1.435a86.238,86.238,0,0,1-9.866,30.943c-.269.538-1.076.717-1.614,1.166A3.129,3.129,0,0,0,697.6,611.736Z" transform="translate(-71.933 -59.624)"/><path d="M674.6,515.513c14.081-12.018,22.243-27.086,25.113-45.113C702.583,480.355,683.12,515.244,674.6,515.513Z" transform="translate(-69.561 -48.426)"/><path d="M670.5,442.756c.807-.448,1.435-.807,2.153-1.256a42.247,42.247,0,0,1,3.139,13.991c.179,1.973,0,4.036,0,6.009,0,1.614-.628,2.691-2.691,2.511C673.729,456.837,673.37,449.751,670.5,442.756Z" transform="translate(-69.139 -45.446)"/><path d="M801.9,574.977V516.5h.628C804.052,520.446,803.066,573.811,801.9,574.977Z" transform="translate(-82.688 -53.179)"/><path d="M801.746,426.134c.09-17.938-.09-35.965-3.946-53.634C801.3,376.805,804.527,420.752,801.746,426.134Z" transform="translate(-82.265 -38.331)"/><path d="M704.986,424.1a106.727,106.727,0,0,1,9.955,26.907c.09.538-.359,1.166-.538,1.7-.179-.09-.448-.09-.628-.179-1.076-3.677-1.973-7.444-3.318-11.032-1.973-5.112-4.215-10.135-6.278-15.247A8.381,8.381,0,0,1,704,424.1Z" transform="translate(-72.593 -43.651)"/><path d="M719.328,565.056a4.029,4.029,0,0,1-.628-1.614V528.1a4.4,4.4,0,0,1,.628-1.7c.179.09.448.09.628.179v38.207A.814.814,0,0,0,719.328,565.056Z" transform="translate(-74.109 -54.2)"/><path d="M802.838,444v54.8H802.3V444Z" transform="translate(-82.729 -45.703)"/><path d="M620.6,495.9h6.368a5.855,5.855,0,0,1,.987.179c-1.166,2.511-2.332,4.933-3.588,7.893C623.022,501.1,621.856,498.68,620.6,495.9Z" transform="translate(-63.993 -51.055)"/><path d="M617.9,538.767A123.711,123.711,0,0,0,647.677,535,61.185,61.185,0,0,1,617.9,538.767Z" transform="translate(-63.715 -55.087)"/><path d="M660.2,463.354V456c2.691,1.256,5.112,2.332,7.982,3.677C665.312,460.933,662.891,462.1,660.2,463.354Z" transform="translate(-68.077 -46.941)"/><path d="M619.222,514.938c-1.7,3.767-3.408,7.534-5.112,11.211a3.177,3.177,0,0,1-.807-.359c.538-1.435,1.076-2.87,1.794-4.574-3.229,2.511-5.74,5.561-9.6,6.547,5.023-3.857,9.955-7.624,13.094-13.364A1.948,1.948,0,0,0,619.222,514.938Z" transform="translate(-62.436 -52.963)"/><path d="M587.624,463.685c-2.6-1.166-4.933-2.242-7.624-3.5,2.691-1.256,5.023-2.332,7.624-3.588Z" transform="translate(-59.807 -47.003)"/><path d="M623.888,415.7c1.345,2.87,2.422,5.2,3.588,7.713H620.3C621.466,420.9,622.632,418.48,623.888,415.7Z" transform="translate(-63.962 -42.785)"/><path d="M655.421,430.051c-1.435,1.076-2.87,2.242-4.305,3.318-.269-.359-.807-.987-.717-1.076a42.892,42.892,0,0,1,3.5-3.5c.179-.179.9.269,1.345.448C655.332,429.513,655.332,429.782,655.421,430.051Z" transform="translate(-67.065 -44.131)"/><path d="M652.161,485.6c1.166,1.435,2.242,2.87,3.408,4.305-.538.179-1.345.807-1.525.628A33.429,33.429,0,0,1,651,487.394c-.179-.269.269-.987.448-1.525A6.193,6.193,0,0,1,652.161,485.6Z" transform="translate(-67.123 -49.993)"/><path d="M597.715,486.469c.09.538.448,1.345.269,1.614a25.939,25.939,0,0,1-3.139,3.139c-.179.179-.9-.359-1.345-.628,1.166-1.435,2.332-2.87,3.408-4.395Z" transform="translate(-61.199 -50.055)"/><path d="M598.027,432.606c-.448.628-.628,1.076-.807,1.166a1.526,1.526,0,0,1-1.256-.179,19.073,19.073,0,0,1-2.691-2.691,1.526,1.526,0,0,1-.179-1.256.993.993,0,0,1,.9-.448C595.336,430.364,596.592,431.44,598.027,432.606Z" transform="translate(-61.151 -44.175)"/><path d="M638.086,154.5c-2.242,1.883-4.215,3.5-6.189,5.112C631.538,157.369,635.036,154.32,638.086,154.5Z" transform="translate(-65.156 -15.851)"/><rect width="4.126" height="252.922" transform="translate(0 297.756)"/><rect width="1.614" height="251.307" transform="translate(8.879 296.949)"/><path class="e" d="M468.61,581.565H135.328A9.32,9.32,0,0,1,126,572.238V321.828a9.32,9.32,0,0,1,9.328-9.328H468.61a9.32,9.32,0,0,1,9.328,9.328v250.41A9.32,9.32,0,0,1,468.61,581.565Z" transform="translate(-12.992 -32.144)"/><g transform="translate(19.933 1.694)"><path class="f" d="M38.5,198.852H57.245l-.269-8.7L54.285,188l-13.812.09L38.948,189.7Z" transform="translate(-23.903 -21)"/><path class="f" d="M99.9,117.8V122.1l21.346-.538-.269-4.664Z" transform="translate(-30.234 -13.669)"/><path class="f" d="M548.169,129.228l-.269,5.381,22.243-1.076-.448-4.933Z" transform="translate(-76.43 -14.875)"/><path class="f" d="M285.463,3.145l9.148.718-4.664,5.381,1.076,9.148,97.581.269.448-11.48-2.242-3.139L387.887,1.8l5.2,1.345,2.87,5.83-.9,15.068-8.969,2.422-96.594.718-6.1-5.2V6.733Z" transform="translate(-49.156 -1.8)"/><path class="f" d="M644.832,613.02H636.76c-1.973,0-2.96-.807-2.96-2.78V598.58c0-1.883.987-2.78,2.96-2.78q7.938.134,15.875,0c2.063,0,2.96.987,2.96,2.96v11.211c0,2.063-.807,3.049-2.96,3.049Zm2.332-1.614c.359-1.076.807-1.7.628-2.153-.538-2.242,1.435-4.395.09-6.637-.179-.269.269-.807.359-1.256a7.667,7.667,0,0,0,0-1.435c-.538.179-1.435.179-1.525.448a12.186,12.186,0,0,0-1.345,4.215,21.1,21.1,0,0,0,.9,5.2A6.16,6.16,0,0,0,647.164,611.406Zm6.816-4.036c-.09-.628.09-1.166-.179-1.525-.628-.807-1.345-2.153-1.973-2.153a3.013,3.013,0,0,0-2.153,1.883,8.072,8.072,0,0,0,.269,3.857,2.268,2.268,0,0,0,1.883,1.166c.628,0,1.345-.718,1.794-1.345A6.98,6.98,0,0,0,653.98,607.37Zm-11.749-2.78c.448.987.717,1.345.717,1.794.09,1.166,0,2.422.09,3.587,0,.269.448.538.717.807.179-.269.538-.538.538-.807a27.014,27.014,0,0,0-.09-4.664c-.179-.628-1.256-1.256-2.063-1.525a8.062,8.062,0,0,0-2.422.179v5.74c0,.359.359.628.628.987.269-.359.718-.718.807-1.076.09-.807,0-1.614.09-2.422C641.423,606.473,641.782,605.845,642.231,604.589Zm-6.189-1.973V610.6h2.242c-.09-2.242-.269-4.395-.269-6.547C638.015,602.527,637.388,602.168,636.042,602.616Zm2.87-3.318c-.807-.628-1.435-1.256-1.794-1.166a1.9,1.9,0,0,0-1.256,1.345c-.09.359.807,1.256,1.166,1.166C637.567,600.643,638.015,599.926,638.912,599.3Z" transform="translate(-85.288 -63.05)"/><path class="f" d="M43.272,504.628c-.807,2.063-1.7,4.036-2.6,6.368h6.458c-.718,2.063-1.345,3.857-2.063,5.83.987.09,1.883.09,3.229.269-3.139,2.6-6.009,4.843-9.148,7.444-.987-2.511-1.883-4.843-2.96-7.623,3.5.807,4.843-.807,5.292-4.036H35.2c1.256-2.87,2.153-5.561,3.677-7.8.628-.9,2.691-.717,4.126-1.076A1.192,1.192,0,0,0,43.272,504.628Z" transform="translate(-23.563 -53.584)"/><path class="f" d="M158.812,240.3h5.83c1.435,0,1.794.628,1.7,1.973-.448,4.215-.9,8.431-1.256,12.646-.09,1.166-.448,1.794-1.7,1.794-3.139,0-6.278.09-9.417-.09a2.145,2.145,0,0,1-1.614-1.525c-.538-4.395-.9-8.7-1.256-13.095-.09-1.256.538-1.7,1.7-1.7Zm1.166,14.8V241.825h-3.139c.179,4.484.359,8.789.628,13.274Zm-7.624-13.364c.448,4.574.9,8.969,1.256,13.274h2.332c-.179-4.484-.448-8.879-.628-13.274Zm9.238,13.812c.807-.448,1.883-.807,1.973-1.256.538-4.126.807-8.251,1.166-12.467h-3.139Z" transform="translate(-35.513 -26.393)"/><path class="f" d="M70.6,539.442V528.5H85.219v10.942Zm9.507-7.085v3.318c-1.525,0-3.139.09-4.664.09.09-1.076.179-2.063.359-3.139H71.676v2.87c1.435.09,2.691.179,3.857.269.179.987.359,1.973.448,2.96h4.126v-3.049h4.215v-3.139c-1.614-.09-2.96-.09-4.215-.179-.09-.9-.09-1.973-.09-2.96H75.892v2.96Z" transform="translate(-27.213 -56.111)"/><path class="f" d="M579.635,613.106c-2.691-.179-5.292-.448-7.893-.628-1.345-.09-2.242-.628-2.242-2.153.09-4.036,0-7.982.179-12.018a2.426,2.426,0,0,1,1.614-1.614c5.561-.09,11.121-.09,16.682.09.538,0,1.525,1.076,1.525,1.614.09,4.036.09,8.162,0,12.2,0,1.256-.9,1.794-2.063,1.883C584.926,612.658,582.236,612.927,579.635,613.106Zm.09-1.7c2.332-.179,4.574-.179,6.816-.538.628-.09,1.525-.9,1.525-1.345.179-3.229.179-6.547.09-9.776a1.947,1.947,0,0,0-1.435-1.435c-4.664-.09-9.417-.179-14.081,0-.538,0-1.525,1.076-1.525,1.614a80.928,80.928,0,0,0,0,9.328c0,.538.987,1.525,1.614,1.614C575.061,611.133,577.393,611.223,579.724,611.4Z" transform="translate(-78.657 -63.136)"/><path class="f" d="M71.381,469.8c1.794,3.049,3.946,5.919,3.767,9.866-2.96-2.242-4.126-5.65-5.561-8.789-6.188-.269-8.7-1.7-9.507-5.471a6.938,6.938,0,0,1,4.126-8.072,7.133,7.133,0,0,1,8.61,2.332C74.969,462.354,74.52,465.941,71.381,469.8Zm-4.305-11.121a5.11,5.11,0,0,0-5.112,5.112,5.158,5.158,0,1,0,10.314-.09A5.054,5.054,0,0,0,67.076,458.676Z" transform="translate(-26.111 -48.71)"/><path class="f" d="M103.918,236.6v15.875H83.2V236.6Zm-1.166,1.345H84.545V251.13h18.027a14.764,14.764,0,0,0,.179-1.883Z" transform="translate(-28.512 -26.011)"/><path class="f" d="M62.659,536.878c-5.381.179-7.982-1.435-8.879-5.112a6.58,6.58,0,0,1,3.588-7.444,6.823,6.823,0,0,1,8.431,2.063c2.063,2.87,1.614,6.1-1.256,9.328,1.435,3.139,2.78,6.189,4.126,9.238-.359.179-.628.359-.987.538C65.08,543.246,64,540.017,62.659,536.878Zm-2.332-1.794a4.693,4.693,0,0,0,4.753-4.843,4.748,4.748,0,0,0-4.843-4.753,4.8,4.8,0,1,0,.09,9.6Z" transform="translate(-25.461 -55.61)"/><path class="f" d="M76.76,604.717c-.359.987-.448,1.794-.9,2.153a13.774,13.774,0,0,1-8.162,3.139c-2.422,0-3.229-1.076-2.6-3.5.538-1.973,1.166-3.857,1.7-5.83.718-2.511.359-2.96-2.242-2.78H62.5c.448-.628.628-1.256.9-1.345a50.111,50.111,0,0,1,7.175-1.256c1.7-.09,1.7,1.166,1.345,2.511-.807,2.422-1.525,4.843-2.242,7.265-.538,1.973,0,2.6,1.973,1.973A30.776,30.776,0,0,0,76.76,604.717Z" transform="translate(-26.378 -62.998)"/><path class="f" d="M578.737,363.243a10.786,10.786,0,0,1-1.076,2.063l-5.112,6.189a2.324,2.324,0,0,1-3.677.359c-1.256-1.076-1.525-2.152-.448-3.5,1.794-2.242,3.5-4.484,5.381-6.547a2.909,2.909,0,0,1,2.511-.717C577.3,361.449,577.93,362.526,578.737,363.243Z" transform="translate(-78.477 -38.84)"/><path class="f" d="M622.514,459.73c0,3.857-1.7,5.919-5.112,5.919-3.318,0-5.2-2.063-5.2-5.83s1.883-5.919,5.112-5.919C620.631,453.9,622.514,455.963,622.514,459.73Zm-2.242.269c.09-2.422-1.076-4.036-2.87-4.126-1.7,0-2.96,1.525-2.96,3.767-.09,2.332,1.166,4.036,2.87,4.126C619.016,463.766,620.182,462.241,620.272,460Z" transform="translate(-83.06 -48.418)"/><path class="f" d="M83.244,407.211a12.458,12.458,0,0,0-1.794,1.525c-.448.538-.718,1.166-1.166,1.794-.269-.718-.628-1.345-.9-2.063a3.738,3.738,0,0,1-.179-.538c-1.883-.269-3.588-.718-4.933,1.435-1.166,1.794-3.857,1.614-5.292.09a3.973,3.973,0,0,1,0-5.292c1.525-1.525,4.215-1.7,5.381.09,1.076,1.7,2.422,1.7,3.946,1.614h4.215c2.422,0,3.5,1.7,2.511,3.857-.09.269-.538.717-.718.628a1.575,1.575,0,0,1-.9-.807C83.334,409.095,83.334,408.467,83.244,407.211ZM71.5,409.633c.987-1.345,1.973-2.063,1.973-2.78a2.885,2.885,0,0,0-1.794-1.883c-.538-.09-1.7.987-1.794,1.7S70.688,408.2,71.5,409.633Z" transform="translate(-26.943 -43.166)"/><path class="f" d="M61.17,333.074v12.108c-2.153-.538-1.166-2.063-1.256-3.139a18,18,0,0,0-.448-3.767c-.269,1.7-.538,3.5-.9,5.2a3.81,3.81,0,0,1-.9,1.525c-.359-.538-.987-.987-1.076-1.525a43.963,43.963,0,0,0-1.166-5.561v7a1.663,1.663,0,0,1-.628.179c-.269-.359-.807-.718-.807-1.076-.09-3.677,0-7.265,0-11.032h2.242c.448,2.6.807,5.2,1.166,7.713h.448c.269-2.063.628-4.036.9-6.1C58.839,333.163,59.466,332.446,61.17,333.074Z" transform="translate(-25.497 -35.936)"/><path class="f" d="M630.643,458.974c1.435,2.153,2.87,4.215,4.395,6.368-4.126,1.256-3.946-3.049-6.637-4.574-.269,1.614-.538,2.96-.807,4.664-.448,0-.987.09-1.794.179V454.49c.628,0,1.166-.09,1.973-.09v3.946c2.511-.807,2.96-4.753,6.637-3.588C633.065,456.194,631.9,457.539,630.643,458.974Z" transform="translate(-84.463 -48.47)"/><path class="f" d="M96.851,512.115a4.127,4.127,0,0,1-8.251.179,4.13,4.13,0,1,1,8.251-.179Z" transform="translate(-29.069 -53.987)"/><path class="f" d="M35.3,379.33c1.883-5.83,1.883-5.83,3.229-5.83-.718,2.96-1.435,5.74-2.153,8.61-.09.359-.718.628-1.166.717-.269,0-.718-.448-.807-.807a28.783,28.783,0,0,0-1.345-5.112c-.269,1.525-.538,3.049-.9,4.574a5.126,5.126,0,0,1-.987,1.435c-.359-.448-.987-.807-1.166-1.256a58.527,58.527,0,0,1-1.7-8.072c2.78.807,1.525,3.767,2.96,5.561.269-1.614.538-3.049.9-4.484.09-.448.628-.807.987-1.166.448.359,1.076.717,1.256,1.256A45.9,45.9,0,0,1,35.3,379.33Z" transform="translate(-22.851 -40.128)"/><path class="f" d="M77.066,345.087c-2.691-1.525-1.883-5.112-4.036-7.444v6.188c0,.359-.448.718-.718,1.166-.269-.359-.718-.718-.718-1.076-.09-3.588,0-7.175,0-10.673a3.8,3.8,0,0,1,.628-.448c.538.538,1.256.9,1.614,1.525a13.773,13.773,0,0,1,.987,2.691,6.87,6.87,0,0,0,1.525,2.691c0-1.794-.09-3.5,0-5.292,0-.538.538-.987.807-1.435.179.448.628.987.628,1.435.09,3.408,0,6.816,0,10.314A2.685,2.685,0,0,0,77.066,345.087Z" transform="translate(-27.312 -35.931)"/><path class="f" d="M64,344.929V333h5.2c.269,1.7.269,1.7-3.588,2.242v1.883c1.076,1.166,3.857-.987,3.408,2.422-1.076.09-2.153.09-3.408.179v2.96h3.767c.09.807.09,1.435.179,2.242Z" transform="translate(-26.533 -35.952)"/><path class="f" d="M57.07,405.117a32.456,32.456,0,0,0,2.332-3.408,6.685,6.685,0,0,0,.987-2.511c0-.359-.987-1.166-1.345-1.076-.807.179-1.435.9-2.242,1.345s-1.614.717-2.6,1.166c-.09-3.5,1.345-4.933,4.395-4.933,3.139,0,5.023,1.435,4.933,3.857a6.226,6.226,0,0,1-1.076,2.78,17.954,17.954,0,0,1-2.422,2.78,5.93,5.93,0,0,1-2.242.628C57.518,405.655,57.339,405.386,57.07,405.117Z" transform="translate(-25.522 -42.417)"/><path class="f" d="M41.2,373.2h3.049c2.96.09,3.677.987,2.96,3.857a2.4,2.4,0,0,0,.359,1.525,2.77,2.77,0,0,1-2.422,4.126c-1.256.09-2.511,0-3.946,0Zm1.525,7.534a5.125,5.125,0,0,0,.628.717c.9-.538,1.794-1.076,2.691-1.7-.718-.448-1.435-1.166-2.153-1.166C42.1,378.581,42.725,379.927,42.725,380.734Zm-.359-4.484.807,1.076c.9-.448,1.7-.9,2.6-1.345-.628-.359-1.256-1.076-1.794-1.076C43.442,374.994,42.9,375.8,42.366,376.249Z" transform="translate(-24.182 -40.097)"/><path class="f" d="M573.377,394.875a3.72,3.72,0,0,1-3.677-3.5,3.642,3.642,0,0,1,3.408-3.677,3.466,3.466,0,0,1,3.677,3.408A3.389,3.389,0,0,1,573.377,394.875Z" transform="translate(-78.678 -41.592)"/><path class="f" d="M541.032,423.9v9.776h5.919a18.982,18.982,0,0,1,.179,2.153H538.7V423.99A22.726,22.726,0,0,0,541.032,423.9Z" transform="translate(-75.481 -45.325)"/><path class="f" d="M80.1,337.923v-4.036c0-.359.359-.628.628-.987.269.359.807.717.807,1.076.09,1.794,0,3.588.09,5.381A6.338,6.338,0,0,0,81.8,341.6c.179.628.807,1.076,1.256,1.614.538-.538,1.345-1.076,1.435-1.7.179-1.973.09-4.036.179-6.009a20.547,20.547,0,0,1,.628-2.511,14.459,14.459,0,0,1,.807,2.6,56.122,56.122,0,0,1-.09,6.727c-.09,1.7-.9,3.049-2.78,3.139-2.063.09-2.87-1.345-3.049-3.229-.09-1.435,0-2.87-.09-4.305Z" transform="translate(-28.193 -35.941)"/><path class="f" d="M560.639,462.689s-.807.179-1.166-.09c-.807-.717-1.973-1.614-1.973-2.511a3.5,3.5,0,0,1,1.973-2.422,7.576,7.576,0,0,1,3.5-.179c1.525.179,2.6.987,2.6,2.511,0,1.7-1.166,2.511-2.78,2.6A7.225,7.225,0,0,1,560.639,462.689Z" transform="translate(-77.42 -48.777)"/><path class="f" d="M28.122,444.735a6.1,6.1,0,0,0-1.7-.269c-2.511.269-3.857-.538-4.126-3.049a11.9,11.9,0,0,1,.538-5.023,3.259,3.259,0,0,1,2.691-1.794,3.476,3.476,0,0,1,2.422,1.794,10.464,10.464,0,0,1,.538,4.126C28.481,441.865,28.212,443.21,28.122,444.735Zm-2.691-1.883c.179-.538.179-1.525.448-1.7,2.332-1.166.987-2.78.538-4.215a2.472,2.472,0,0,0-2.153-.179C22.651,438.1,23.458,441.865,25.431,442.851Z" transform="translate(-22.225 -46.428)"/><path class="f" d="M544.247,459.918a3.274,3.274,0,1,1-3.229-3.318A3.353,3.353,0,0,1,544.247,459.918Z" transform="translate(-75.378 -48.697)"/><path class="f" d="M43.009,444.4c-.9-.628-1.794-1.794-2.78-1.794-.9,0-1.794,1.166-3.229,2.242.9-3.5,1.525-6.278,2.332-9.059a1.96,1.96,0,0,1,.9-.987c.448.179,1.076.538,1.166.987.718,2.691,1.345,5.471,1.973,8.162A.9.9,0,0,1,43.009,444.4Z" transform="translate(-23.749 -46.449)"/><path class="f" d="M31.935,434.869c0,1.973-.09,3.946.09,5.919.09.717.807,1.345,1.166,2.063.359-.717,1.076-1.345,1.076-2.063.179-1.614,0-3.318.09-4.933,0-.359.538-.718.807-.987.179.359.628.717.628.987,0,2.152,0,4.305-.179,6.458a2.31,2.31,0,0,1-2.511,2.332,2.337,2.337,0,0,1-2.511-2.6c-.09-2.063-.09-4.215-.09-6.278,0-.359.448-.807.718-1.166A3.7,3.7,0,0,0,31.935,434.869Z" transform="translate(-23.078 -46.428)"/><path class="f" d="M547.579,377.029a6.473,6.473,0,0,1,1.256-2.153c2.332-2.332,2.332-4.843-.09-7.175a11.435,11.435,0,0,1-1.345-2.6c3.408.9,5.112,3.049,5.2,5.919C552.692,374.248,551.167,376.311,547.579,377.029Z" transform="translate(-76.379 -39.262)"/><path class="f" d="M543.791,377.467c-3.5-.807-5.2-3.049-5.292-6.1s1.7-5.381,5.2-6.368a11.736,11.736,0,0,1-1.256,2.6c-2.511,2.511-2.511,4.843-.09,7.354A8.057,8.057,0,0,1,543.791,377.467Z" transform="translate(-75.46 -39.251)"/><path class="f" d="M73.9,588.959a3.046,3.046,0,0,1-3.049,3.139,3.2,3.2,0,0,1-3.049-2.96A3.1,3.1,0,0,1,70.849,586,3.065,3.065,0,0,1,73.9,588.959Z" transform="translate(-26.924 -62.039)"/><path class="f" d="M542.3,241.747V233.5c1.076,0,2.063-.09,2.96,0a7.113,7.113,0,0,1,1.435.718l-1.345.807c-.628.269-1.345.538-2.422.9,1.7.717,2.6,1.076,3.5,1.525-.9.359-1.7.718-2.78,1.166v1.525a9.1,9.1,0,0,1,2.242.179c.359.09.718.538,1.076.807-.359.179-.628.628-.987.628C544.811,241.836,543.645,241.747,542.3,241.747Z" transform="translate(-75.853 -25.687)"/><path class="f" d="M618.9,248.228V238.9c2.422.987,1.614,3.857,3.5,5.471v-5.2h.538v8.969l-.538.269c-.718-1.614-1.345-3.318-2.242-5.471-.179,2.063-.269,3.677-.448,5.292Z" transform="translate(-83.751 -26.249)"/><path class="f" d="M147,236.884c1.166-.359,2.332-.717,3.5-1.166,1.256-.538,3.5,0,3.318-2.511a5.69,5.69,0,0,1,2.153-.269c.628,1.435,1.614.9,2.6.628,1.614-.359,3.229-.718,4.933-1.166l.269,1.076c-5.471,1.525-10.942,2.96-16.323,4.484A9.339,9.339,0,0,1,147,236.884Z" transform="translate(-35.091 -25.578)"/><path class="f" d="M542.6,371.49a2.774,2.774,0,0,1,2.78-2.691,2.715,2.715,0,0,1,3.049,2.78,2.765,2.765,0,0,1-2.691,2.96C544.125,374.809,542.69,373.374,542.6,371.49Z" transform="translate(-75.884 -39.643)"/><path class="f" d="M554.57,391.029a2.878,2.878,0,0,1-2.87-3.049,2.708,2.708,0,0,1,2.87-2.78,2.754,2.754,0,0,1,2.87,2.96A2.888,2.888,0,0,1,554.57,391.029Z" transform="translate(-76.821 -41.334)"/><path class="f" d="M534.7,241.967c.807-2.87,1.435-5.471,2.242-7.982.09-.179,1.525-.179,1.525,0,.718,2.511,1.345,5.023,2.153,7.893C537.57,240.442,537.57,240.442,534.7,241.967Z" transform="translate(-75.069 -25.728)"/><path class="f" d="M602.492,248.617c-.628-.448-4.754-.538-5.292-.269.628-2.87,1.166-5.561,1.794-8.341.09-.359.448-.807.807-.807a1.425,1.425,0,0,1,.9.717C601.236,242.608,601.774,245.388,602.492,248.617Z" transform="translate(-81.514 -26.28)"/><path class="f" d="M617.443,243.833a21.255,21.255,0,0,1-.807,3.229,2.643,2.643,0,0,1-1.794,1.345,2.522,2.522,0,0,1-1.973-1.345,31.985,31.985,0,0,1-.179-6.547,2.776,2.776,0,0,1,1.973-1.614,3.672,3.672,0,0,1,2.242,1.614A32.1,32.1,0,0,1,617.443,243.833Zm-.628-.179c-.9-1.256-1.525-2.242-2.153-3.229-.448,1.076-1.345,2.063-1.345,3.139s.807,2.153,1.345,3.229C615.29,245.9,616.008,244.909,616.815,243.653Z" transform="translate(-83.101 -26.249)"/><path class="f" d="M540.63,252.651a7.319,7.319,0,0,0-5.83,0c.718-2.78,1.345-5.2,2.063-7.624a1.2,1.2,0,0,1,.717-.628c.359.09.9.359.987.628C539.284,247.36,539.912,249.781,540.63,252.651Z" transform="translate(-75.079 -26.816)"/><path class="f" d="M556.5,393.923a33.687,33.687,0,0,1,3.408-4.574c.538-.538,1.794-.269,2.87-.448v5.023Z" transform="translate(-77.317 -41.716)"/><path class="f" d="M552.557,393.953H546.1V389.2h2.511C549.957,390.725,551.212,392.249,552.557,393.953Z" transform="translate(-76.244 -41.747)"/><path class="f" d="M62.2,409.909c2.063-4.933,4.215-9.776,6.278-14.709.987,1.883-4.036,13.722-5.65,14.978C62.648,410.088,62.379,410,62.2,409.909Z" transform="translate(-26.347 -42.365)"/><path class="f" d="M562.737,382.6v4.574c-1.7.359-2.96.538-3.857-1.614-.448-.987-1.794-1.614-2.78-2.332.179-.179.269-.448.448-.628Z" transform="translate(-77.276 -41.066)"/><path class="f" d="M546.2,382.5h6.188a37.584,37.584,0,0,1-3.318,4.574c-.448.538-1.794.179-2.87.269Z" transform="translate(-76.255 -41.056)"/><path class="f" d="M604,239.267c3.139-.538,3.408-.448,3.588,1.345-.807.09-1.614.179-2.96.359.538.807.807,1.435,1.256,1.973a7.031,7.031,0,0,0,1.345.9c-.448.179-.987.448-1.435.628a8.263,8.263,0,0,0-.807.269c0,.628-.09,1.256-.09,1.883-.09.538-.179,1.166-.269,1.7H604C604,245.276,604,242.406,604,239.267Z" transform="translate(-82.215 -26.257)"/><path class="f" d="M46.735,442.513a5.81,5.81,0,0,1,1.794.179,7.42,7.42,0,0,1,1.435.807c-.448.269-.9.807-1.345.9a20.418,20.418,0,0,1-3.318,0V434.89c.269,0,.448-.09.718-.09C47.094,437.132,46.107,439.823,46.735,442.513Z" transform="translate(-24.604 -46.449)"/><path class="f" d="M546.319,248.421c-.807.269-1.614.628-2.691.987-.09.807-.179,1.883-.359,3.049-1.166-.718-1.435-3.229-.807-8.162.987,0,2.153-.09,3.139,0,.269,0,.628.448.9.718a3.7,3.7,0,0,1-.987.628c-.9.179-2.511-.538-1.973,1.7.718.09,1.525.179,2.332.359A1.953,1.953,0,0,1,546.319,248.421Z" transform="translate(-75.835 -26.801)"/><path class="f" d="M553.035,233.869v5.83c1.166.538,2.063.987,3.049,1.345-1.076.269-2.063.538-3.139.718a2.818,2.818,0,0,1-1.166-.09c0-2.691-.538-5.471.269-8.072C552.408,233.69,552.677,233.779,553.035,233.869Z" transform="translate(-76.812 -25.702)"/><path class="f" d="M552.818,244.3v6.637c1.076.09,1.794.09,2.422.179.359.09.628.448.9.717-.359.179-.628.538-.987.628-.987.09-2.063,0-3.049,0V244.3Z" transform="translate(-76.863 -26.805)"/><path class="f" d="M57.8,408.5h2.691v2.511H57.8Z" transform="translate(-25.893 -43.737)"/><path class="f" d="M573.8,609.617V600.2h2.242v7.265c1.525.09,2.96.179,4.484.269v1.973C578.284,609.617,576.042,609.617,573.8,609.617Z" transform="translate(-79.101 -63.504)"/><path class="f" d="M580.6,603.163c3.139-1.166,2.6,1.614,3.5,2.96,1.166-1.076.538-4.305,3.588-2.96-.717,1.883-1.345,3.857-2.153,5.83-.179.448-.9,1.076-1.345.987a2.132,2.132,0,0,1-1.525-1.076C581.945,607.019,581.317,605.136,580.6,603.163Z" transform="translate(-79.802 -63.776)"/><path class="f" d="M66.577,462.96a16.579,16.579,0,0,1,.09-2.063c.09-.359.448-.628.628-.9.269.269.628.628.628.9a16.579,16.579,0,0,1,.09,2.063c1.256.359,2.422.628,3.5.987a2.772,2.772,0,0,0-.179.717c-.987.09-2.063.09-3.139.179-.179,1.166-.359,2.242-.538,3.408h-.807c-.179-1.076-.359-2.152-.538-3.408l-3.229-.269a2.11,2.11,0,0,1-.179-.717C64.156,463.587,65.322,463.318,66.577,462.96Z" transform="translate(-26.419 -49.047)"/><path class="f" d="M90.3,240.9c2.87,1.256,5.74,2.511,9.059,4.036-3.229,1.435-6.009,2.691-9.059,4.036Z" transform="translate(-29.245 -26.455)"/><path class="f" d="M64.178,530v1.794H57.361c-.628-1.166-.448-1.883,1.166-1.794C60.321,530.089,62.2,530,64.178,530Z" transform="translate(-25.813 -56.265)"/><rect class="f" width="0.897" height="4.036" transform="translate(566.002 542.167)"/></g><text class="g" transform="translate(250.442 572.829)"><tspan x="0" y="0">JakiganRef</tspan></text></g></g></g></svg>