<svg xmlns="http://www.w3.org/2000/svg" xmlns:xlink="http://www.w3.org/1999/xlink" viewBox="0 0 183.545 139.933"><defs><style>.a{fill:#fff;}.b{filter:url(#ai);}.c{filter:url(#ag);}.d{filter:url(#ae);}.e{filter:url(#ac);}.f{filter:url(#aa);}.g{filter:url(#y);}.h{filter:url(#w);}.i{filter:url(#u);}.j{filter:url(#s);}.k{filter:url(#q);}.l{filter:url(#o);}.m{filter:url(#m);}.n{filter:url(#k);}.o{filter:url(#i);}.p{filter:url(#g);}.q{filter:url(#e);}.r{filter:url(#c);}.s{filter:url(#a);}</style><filter id="a" x="0" y="1.851" width="71.501" height="69.051" filterUnits="userSpaceOnUse"><feOffset input="SourceAlpha"/><feGaussianBlur stdDeviation="3" result="b"/><feFlood flood-opacity="0.78"/><feComposite operator="in" in2="b"/><feComposite in="SourceGraphic"/></filter><filter id="c" x="55.705" y="0" width="71.413" height="71.713" filterUnits="userSpaceOnUse"><feOffset input="SourceAlpha"/><feGaussianBlur stdDeviation="3" result="d"/><feFlood flood-opacity="0.78"/><feComposite operator="in" in2="d"/><feComposite in="SourceGraphic"/></filter><filter id="e" x="113.719" y="2.679" width="69.703" height="68.875" filterUnits="userSpaceOnUse"><feOffset input="SourceAlpha"/><feGaussianBlur stdDeviation="3" result="f"/><feFlood flood-opacity="0.78"/><feComposite operator="in" in2="f"/><feComposite in="SourceGraphic"/></filter><filter id="g" x="0.229" y="88.793" width="46.998" height="50.436" filterUnits="userSpaceOnUse"><feOffset input="SourceAlpha"/><feGaussianBlur stdDeviation="3" result="h"/><feFlood flood-opacity="0.78"/><feComposite operator="in" in2="h"/><feComposite in="SourceGraphic"/></filter><filter id="i" x="30.479" y="90.009" width="48.32" height="49.431" filterUnits="userSpaceOnUse"><feOffset input="SourceAlpha"/><feGaussianBlur stdDeviation="3" result="j"/><feFlood flood-opacity="0.78"/><feComposite operator="in" in2="j"/><feComposite in="SourceGraphic"/></filter><filter id="k" x="63.69" y="87.735" width="50.383" height="51.652" filterUnits="userSpaceOnUse"><feOffset input="SourceAlpha"/><feGaussianBlur stdDeviation="3" result="l"/><feFlood flood-opacity="0.78"/><feComposite operator="in" in2="l"/><feComposite in="SourceGraphic"/></filter><filter id="m" x="99.493" y="87.999" width="49.378" height="51.141" filterUnits="userSpaceOnUse"><feOffset input="SourceAlpha"/><feGaussianBlur stdDeviation="3" result="n"/><feFlood flood-opacity="0.78"/><feComposite operator="in" in2="n"/><feComposite in="SourceGraphic"/></filter><filter id="o" x="134.308" y="88.511" width="48.743" height="51.423" filterUnits="userSpaceOnUse"><feOffset input="SourceAlpha"/><feGaussianBlur stdDeviation="3" result="p"/><feFlood flood-opacity="0.78"/><feComposite operator="in" in2="p"/><feComposite in="SourceGraphic"/></filter><filter id="q" x="0.458" y="56.11" width="33.233" height="41.498" filterUnits="userSpaceOnUse"><feOffset input="SourceAlpha"/><feGaussianBlur stdDeviation="3" result="r"/><feFlood flood-opacity="0.78"/><feComposite operator="in" in2="r"/><feComposite in="SourceGraphic"/></filter><filter id="s" x="18.933" y="61.98" width="34.235" height="35.522" filterUnits="userSpaceOnUse"><feOffset input="SourceAlpha"/><feGaussianBlur stdDeviation="3" result="t"/><feFlood flood-opacity="0.78"/><feComposite operator="in" in2="t"/><feComposite in="SourceGraphic"/></filter><filter id="u" x="38.57" y="56.093" width="34.465" height="41.022" filterUnits="userSpaceOnUse"><feOffset input="SourceAlpha"/><feGaussianBlur stdDeviation="3" result="v"/><feFlood flood-opacity="0.78"/><feComposite operator="in" in2="v"/><feComposite in="SourceGraphic"/></filter><filter id="w" x="56.78" y="56.093" width="22.566" height="41.005" filterUnits="userSpaceOnUse"><feOffset input="SourceAlpha"/><feGaussianBlur stdDeviation="3" result="x"/><feFlood flood-opacity="0.78"/><feComposite operator="in" in2="x"/><feComposite in="SourceGraphic"/></filter><filter id="y" x="64.378" y="62.033" width="34.56" height="41.357" filterUnits="userSpaceOnUse"><feOffset input="SourceAlpha"/><feGaussianBlur stdDeviation="3" result="z"/><feFlood flood-opacity="0.78"/><feComposite operator="in" in2="z"/><feComposite in="SourceGraphic"/></filter><filter id="aa" x="83.91" y="61.98" width="34.235" height="35.522" filterUnits="userSpaceOnUse"><feOffset input="SourceAlpha"/><feGaussianBlur stdDeviation="3" result="ab"/><feFlood flood-opacity="0.78"/><feComposite operator="in" in2="ab"/><feComposite in="SourceGraphic"/></filter><filter id="ac" x="103.107" y="61.998" width="33.654" height="35.099" filterUnits="userSpaceOnUse"><feOffset input="SourceAlpha"/><feGaussianBlur stdDeviation="3" result="ad"/><feFlood flood-opacity="0.78"/><feComposite operator="in" in2="ad"/><feComposite in="SourceGraphic"/></filter><filter id="ae" x="122.515" y="56.093" width="35.24" height="41.022" filterUnits="userSpaceOnUse"><feOffset input="SourceAlpha"/><feGaussianBlur stdDeviation="3" result="af"/><feFlood flood-opacity="0.78"/><feComposite operator="in" in2="af"/><feComposite in="SourceGraphic"/></filter><filter id="ag" x="141.8" y="62.174" width="32.649" height="35.328" filterUnits="userSpaceOnUse"><feOffset input="SourceAlpha"/><feGaussianBlur stdDeviation="3" result="ah"/><feFlood flood-opacity="0.78"/><feComposite operator="in" in2="ah"/><feComposite in="SourceGraphic"/></filter><filter id="ai" x="157.507" y="55.828" width="26.038" height="41.234" filterUnits="userSpaceOnUse"><feOffset input="SourceAlpha"/><feGaussianBlur stdDeviation="3" result="aj"/><feFlood flood-opacity="0.78"/><feComposite operator="in" in2="aj"/><feComposite in="SourceGraphic"/></filter></defs><g transform="translate(-89.9 -226.013)"><g class="s" transform="matrix(1, 0, 0, 1, 89.9, 226.01)"><path class="a" d="M17.663,45.368c.053-1.393.053-1.393.106-3.349,0-.335,0-.564.106-2.168A44.993,44.993,0,0,1,3.949,56.738,33.88,33.88,0,0,0,0,48.33,27.932,27.932,0,0,0,11.423,36.008H6.8A34.93,34.93,0,0,0,.9,36.29V27.828a28.534,28.534,0,0,0,4.354.229V18.785a32.289,32.289,0,0,0-3.226.229V10.553a49.494,49.494,0,0,0,6.24.335H21.806a49.01,49.01,0,0,0,6.522-.335v8.409a21.423,21.423,0,0,0-2.292-.159V28.04a8.729,8.729,0,0,0,2.556-.229v8.356a3.552,3.552,0,0,1-.829-.106c-.053,0-.617,0-1.728-.053V54.394c0,5.853-1.5,6.857-10.312,6.857-1.111,0-1.287,0-4.019-.053A30.384,30.384,0,0,0,9.748,53a59.7,59.7,0,0,0,6.417.388c1.163,0,1.5-.282,1.5-1.34V45.368Zm.053-26.583H13.433V28.04h4.284ZM53.5,15.841c-.388.829-.388.9-1.78,4.689-1.058,3.067-2.732,7.139-4.407,10.859a27.439,27.439,0,0,1,4.354,7.351,20.482,20.482,0,0,1,1.446,7.192c0,3.737-1.569,6.417-4.46,7.633a16.6,16.6,0,0,1-5.958.9c-.282,0-.952,0-2.168-.053-.159-4.354-.617-6.24-1.886-8.461a10.411,10.411,0,0,0,2.292.229c2.679,0,3.3-.388,3.3-2.115,0-3.949-1.78-7.968-5.341-12.252a53.772,53.772,0,0,0,4.513-13.1H38.323V54.147a71.787,71.787,0,0,0,.335,7.4h-9.2a67.528,67.528,0,0,0,.335-6.963v-39.8c0-1.622-.053-3.067-.159-4.231a39.374,39.374,0,0,0,4.619.229h10.7A26.091,26.091,0,0,0,49.8,10.5Z" transform="translate(9 0.35)"/></g><g class="r" transform="matrix(1, 0, 0, 1, 89.9, 226.01)"><path class="a" d="M327.264,15.936a50.539,50.539,0,0,1-5.13,5.518A27.965,27.965,0,0,0,316,15.266c4.689-3.949,7.633-7.527,9.7-11.582A13.881,13.881,0,0,0,327.088,0l9.2,1.058c-.106.229-.617,1.234-1.445,2.962h24.239a54.19,54.19,0,0,0,6.857-.335v8.25c-2.01-.159-4.072-.282-6.857-.282H330.455c-.441.67-.617.9-1.164,1.728h26.46a54.464,54.464,0,0,0,6.346-.229v6.963c-1.78-.159-3.455-.229-6.346-.229H332.676a48.055,48.055,0,0,0-5.412.229Zm21.912,15.777c-.441.564-.67.829-1.886,2.5a46.7,46.7,0,0,1-4.125,5.183c4.019,3.067,5.236,4.125,8.585,7.016L345.9,52.937c-2.838-2.785-4.953-4.742-8.743-7.862-4.284,3.455-8.144,5.676-14.72,8.638a27.708,27.708,0,0,0-5.57-7.3c6.8-2.5,9.59-3.9,13.486-6.628a99.222,99.222,0,0,0-8.461-5.57l5.676-5.183H326.4a66.857,66.857,0,0,0-7.016.282V21.453a29.162,29.162,0,0,0,4.354.229h30.038c3.843,0,4.953-.053,6.681-.159a41.81,41.81,0,0,0-.282,5.518c0,8.3.776,13.485,2.45,15.883.564-.952.829-3.3.829-6.082v-1a21.263,21.263,0,0,0,5.958,4.019c-.564,5.623-1.287,8.638-2.45,10.647a5.364,5.364,0,0,1-4.689,2.732c-2.838,0-5.676-2.5-7.474-6.47-1.957-4.513-2.838-9.59-2.891-17.716h-8.761Zm-21.453-2.679c4.019,2.345,5.8,3.455,8.691,5.465a27.292,27.292,0,0,0,4.019-5.465Z" transform="translate(-251.3 9)"/></g><g class="q" transform="matrix(1, 0, 0, 1, 89.9, 226.01)"><path class="a" d="M681.273,60.892c-4.284,1.446-9.59,2.891-14.543,4.019-.441.106-1.675.388-3.561.9l-.9-5.236h-5.747V58.283h-3.349v4.795H645.1c.159-1.675.282-4.354.282-7.474V22.057c0-2.838-.053-4.125-.229-6.24a35.346,35.346,0,0,0,4.407.159H659.59a37.544,37.544,0,0,0,4.354-.159c-.106,1-.159,2.679-.159,5.8V57.331A20.966,20.966,0,0,0,666.007,57V21.211c0-1.622-.053-3.614-.229-6.011a32.225,32.225,0,0,0,5.235.229h17.434a32.43,32.43,0,0,0,5.006-.229,47.108,47.108,0,0,0-.229,6.24v14.1a31.784,31.784,0,0,0,.229,5.518c-1.287-.106-1.287-.106-2.838-.159L695.9,45.7c-4.848,4.46-4.848,4.46-7.351,6.24a25.5,25.5,0,0,0,8.25,5.676,26.859,26.859,0,0,0-4.9,8.461,32.436,32.436,0,0,1-7.809-6.469,21.971,21.971,0,0,1-2.838-4.019v5.306ZM653.015,27.734h3.561V23.661h-3.561Zm0,11.247h3.561V34.908h-3.561Zm0,11.652h3.561v-4.46h-3.561Zm21.242-25.455h10.859V22.551H674.257Zm0,8.638h10.859V31.136H674.257Zm0,21.436c2.292-.564,3.561-.952,5.852-1.675a38.565,38.565,0,0,1-3.684-12.71h-2.168Zm9.572-14.367a26.331,26.331,0,0,0,1,4.407,25.912,25.912,0,0,0,4.848-4.407Z" transform="translate(-522.38 -3.52)"/></g><g class="p" transform="matrix(1, 0, 0, 1, 89.9, 226.01)"><path class="a" d="M9.127,503.718a34.391,34.391,0,0,0-.264,4.6l-.212,19.849A23.475,23.475,0,0,0,25.239,515.44a20.658,20.658,0,0,0,5.059,5.394c-5.429,8.391-12.357,12.727-23.392,14.631a5.493,5.493,0,0,0-2.239.67L1.3,532.24c.37-.793.405-1.2.441-3.067l.141-20.8v-.6a28.069,28.069,0,0,0-.229-4.072Z" transform="translate(7.93 -405.91)"/></g><g class="o" transform="matrix(1, 0, 0, 1, 89.9, 226.01)"><path class="a" d="M203.22,513.861a5.071,5.071,0,0,0-.793,2.1c-1.692,6.963-3.931,11.635-7.527,15.9-3.473,4.16-7.668,7.157-14.261,10.171a19.639,19.639,0,0,0-4.724-6.293,30.027,30.027,0,0,0,12.6-7.333,23.044,23.044,0,0,0,6.205-11.07h-15.53a50.228,50.228,0,0,0-6.293.229v-6.769a35.823,35.823,0,0,0,6.4.3h17.769a5.706,5.706,0,0,0,2.732-.494Z" transform="translate(-133.42 -411.59)"/></g><g class="n" transform="matrix(1, 0, 0, 1, 89.9, 226.01)"><path class="a" d="M373.481,504.363c.106-1.463.194-3.631.194-4.795a10.966,10.966,0,0,0-.106-1.869l7.034.194a24.929,24.929,0,0,0-.405,4.53c-.035,1-.035,1-.106,1.9h8.162a5.4,5.4,0,0,0,2.5-.405l2.926,2.538c-.405.74-.494,1.04-.529,2.768-.264,8-.829,14.261-1.569,16.729-1.093,3.473-2.873,4.672-7.034,4.672a43.059,43.059,0,0,1-4.9-.3,18.213,18.213,0,0,0-1.269-6.593,20.924,20.924,0,0,0,4.865.74c1.8,0,2.239-.6,2.732-3.861a87.349,87.349,0,0,0,.705-10.436h-7.157a31.233,31.233,0,0,1-.564,3.737c-1.639,7.563-5.2,12.428-12.8,17.434a21.723,21.723,0,0,0-4.865-5.694c4.971-2.627,7.862-5.271,9.731-9.061a20,20,0,0,0,1.869-6.4h-4.671a37.231,37.231,0,0,0-5.059.229l-.035-6.4a28.9,28.9,0,0,0,5.2.3h5.148Z" transform="translate(-288.61 -400.97)"/></g><g class="m" transform="matrix(1, 0, 0, 1, 89.9, 226.01)"><path class="a" d="M594.156,501.6a26.459,26.459,0,0,0-1.569,3.473,66.21,66.21,0,0,1-4.971,9.872,79.914,79.914,0,0,1,8.162,7.862l-5.094,5.306a58.511,58.511,0,0,0-7.069-7.668,45.009,45.009,0,0,1-14.49,11.9,19.246,19.246,0,0,0-4.724-5.659,37.668,37.668,0,0,0,10.136-6.5,38.294,38.294,0,0,0,4-4.16,78.663,78.663,0,0,0-9.731-6.663l4.6-4.53a86.8,86.8,0,0,1,8.832,5.87A40.691,40.691,0,0,0,587.1,499.2Z" transform="translate(-455.91 -402.2)"/></g><g class="l" transform="matrix(1, 0, 0, 1, 89.9, 226.01)"><path class="a" d="M761.9,511.461a39.045,39.045,0,0,0,6.029.3H786.72a6.161,6.161,0,0,0,3-.406l2.926,3.138a7.447,7.447,0,0,0-1.04,2.362c-1.939,5.57-4.636,9.766-8.3,12.833-2.838,2.4-5.535,3.861-10.665,5.835a20.939,20.939,0,0,0-4.2-6.135c4.5-1.164,7.192-2.362,9.872-4.372a16.381,16.381,0,0,0,5.764-7.492h-16.2a54.417,54.417,0,0,0-5.958.229v-6.293ZM765,502.1a33.555,33.555,0,0,0,5.5.3h11.934a35.2,35.2,0,0,0,5.87-.3v6.293c-1.428-.106-3.173-.194-5.764-.194H770.414a46.492,46.492,0,0,0-5.429.194V502.1Z" transform="translate(-618.59 -404.59)"/></g><g class="k" transform="matrix(1, 0, 0, 1, 89.9, 226.01)"><path class="a" d="M17.619,336.527a6.407,6.407,0,0,1-1.022,2.521,6.007,6.007,0,0,1-2.327,1.957,8.879,8.879,0,0,1-4.09.793,9.885,9.885,0,0,1-2.8-.406,7.005,7.005,0,0,1-2.415-1.252,6.43,6.43,0,0,1-1.71-2.186,7.543,7.543,0,0,1-.652-3.244V332.72H7.166v1.022a8.515,8.515,0,0,0,.123,1.551,3.126,3.126,0,0,0,.458,1.216,2.261,2.261,0,0,0,.881.793,3.181,3.181,0,0,0,1.463.282,2.928,2.928,0,0,0,1.551-.352,1.989,1.989,0,0,0,.793-.917,3.416,3.416,0,0,0,.282-1.216q.053-.661.053-1.269V318.3h5.059v15.76A14.281,14.281,0,0,1,17.619,336.527Z" transform="translate(6.86 -253.19)"/></g><g class="j" transform="matrix(1, 0, 0, 1, 89.9, 226.01)"><path class="a" d="M107.929,357.188a5.4,5.4,0,0,1,.811-2.679,5.741,5.741,0,0,1,1.8-1.71,7.779,7.779,0,0,1,2.468-.917,14.557,14.557,0,0,1,2.75-.282,17.553,17.553,0,0,1,2.538.176,8.075,8.075,0,0,1,2.345.688,4.944,4.944,0,0,1,1.745,1.428,3.941,3.941,0,0,1,.67,2.433V365a16.819,16.819,0,0,0,.123,2.151,3.77,3.77,0,0,0,.458,1.551H119a6.6,6.6,0,0,1-.212-.793,6.256,6.256,0,0,1-.106-.829,6.025,6.025,0,0,1-2.574,1.587,10.36,10.36,0,0,1-3.032.458,8.155,8.155,0,0,1-2.221-.282,5.072,5.072,0,0,1-1.8-.9,4.263,4.263,0,0,1-1.216-1.551,5.306,5.306,0,0,1-.441-2.221,4.747,4.747,0,0,1,.494-2.327,4.156,4.156,0,0,1,1.287-1.463,6,6,0,0,1,1.8-.829,20.089,20.089,0,0,1,2.045-.441c.688-.106,1.357-.194,2.027-.264a14.555,14.555,0,0,0,1.78-.282,2.893,2.893,0,0,0,1.216-.564,1.241,1.241,0,0,0,.423-1.075,2.5,2.5,0,0,0-.247-1.181,1.7,1.7,0,0,0-.652-.67,2.546,2.546,0,0,0-.934-.317,7.76,7.76,0,0,0-1.146-.088,3.519,3.519,0,0,0-2.133.582,2.54,2.54,0,0,0-.9,1.939Zm10.577,3.385a2.2,2.2,0,0,1-.723.405c-.282.088-.6.176-.934.247a9.837,9.837,0,0,1-1.04.159c-.37.035-.723.088-1.093.159a9.639,9.639,0,0,0-1.022.264,2.662,2.662,0,0,0-.864.441,2.064,2.064,0,0,0-.6.687,2.135,2.135,0,0,0-.229,1.058,2,2,0,0,0,.229,1.022,1.692,1.692,0,0,0,.617.652,2.5,2.5,0,0,0,.9.335,5.249,5.249,0,0,0,1.058.088,4.07,4.07,0,0,0,2.1-.458,2.91,2.91,0,0,0,1.093-1.075,3.64,3.64,0,0,0,.441-1.269,9.194,9.194,0,0,0,.088-1.022v-1.692Z" transform="translate(-79.47 -280.62)"/></g><g class="i" transform="matrix(1, 0, 0, 1, 89.9, 226.01)"><path class="a" d="M223.383,318.2v12.34l5.764-5.994h5.412l-6.293,6.135,7,10.542h-5.535l-4.583-7.439-1.78,1.71v5.729H218.8V318.2Z" transform="translate(-171.23 -253.11)"/></g><g class="h" transform="matrix(1, 0, 0, 1, 89.9, 226.01)"><path class="a" d="M322.1,321.972V318.2h4.566v3.772Zm4.566,2.574V341.2H322.1V324.546Z" transform="translate(-256.32 -253.11)"/></g><g class="g" transform="matrix(1, 0, 0, 1, 89.9, 226.01)"><path class="a" d="M381.506,370.2a5.564,5.564,0,0,1-1.181,2.4,6.89,6.89,0,0,1-2.609,1.886,12.5,12.5,0,0,1-7.069.476,8.5,8.5,0,0,1-2.327-.952,5.8,5.8,0,0,1-1.745-1.657,4.861,4.861,0,0,1-.793-2.433h4.548a2.553,2.553,0,0,0,1.252,1.78,4.451,4.451,0,0,0,2.151.494,3.333,3.333,0,0,0,2.821-1.163,4.506,4.506,0,0,0,.846-2.926v-2.186h-.07a4.555,4.555,0,0,1-2.115,1.957,6.78,6.78,0,0,1-2.891.635,7.265,7.265,0,0,1-3.226-.652,6.183,6.183,0,0,1-2.221-1.8,7.4,7.4,0,0,1-1.269-2.679,12.872,12.872,0,0,1-.405-3.244,10.655,10.655,0,0,1,.458-3.1,8.2,8.2,0,0,1,1.375-2.644,6.446,6.446,0,0,1,2.239-1.816,6.676,6.676,0,0,1,3.085-.67,6.521,6.521,0,0,1,2.891.617,4.972,4.972,0,0,1,2.08,2.063h.07v-2.221h4.354v15.583A8.443,8.443,0,0,1,381.506,370.2Zm-6.258-5.553a3.626,3.626,0,0,0,1.216-1.022,4.542,4.542,0,0,0,.723-1.463,6.2,6.2,0,0,0,.247-1.728,9.955,9.955,0,0,0-.194-1.957,4.749,4.749,0,0,0-.652-1.622,3.348,3.348,0,0,0-1.2-1.128,3.71,3.71,0,0,0-1.869-.423,3.247,3.247,0,0,0-1.657.388,3.642,3.642,0,0,0-1.163,1.04,4.375,4.375,0,0,0-.67,1.516,7.353,7.353,0,0,0-.211,1.78,8.6,8.6,0,0,0,.176,1.78,4.521,4.521,0,0,0,.617,1.586,3.444,3.444,0,0,0,1.146,1.164,3.256,3.256,0,0,0,1.78.458A3.352,3.352,0,0,0,375.248,364.645Z" transform="translate(-291.82 -280.87)"/></g><g class="f" transform="matrix(1, 0, 0, 1, 89.9, 226.01)"><path class="a" d="M476.529,357.188a5.4,5.4,0,0,1,.811-2.679,5.741,5.741,0,0,1,1.8-1.71,7.78,7.78,0,0,1,2.468-.917,14.556,14.556,0,0,1,2.75-.282,17.553,17.553,0,0,1,2.538.176,8.074,8.074,0,0,1,2.344.688,4.944,4.944,0,0,1,1.745,1.428,3.941,3.941,0,0,1,.67,2.433V365a16.805,16.805,0,0,0,.123,2.151,3.769,3.769,0,0,0,.458,1.551H487.6a6.588,6.588,0,0,1-.212-.793,6.254,6.254,0,0,1-.106-.829,6.025,6.025,0,0,1-2.574,1.587,10.36,10.36,0,0,1-3.032.458,8.155,8.155,0,0,1-2.221-.282,5.072,5.072,0,0,1-1.8-.9,4.263,4.263,0,0,1-1.216-1.551,5.306,5.306,0,0,1-.441-2.221,4.747,4.747,0,0,1,.494-2.327,4.157,4.157,0,0,1,1.287-1.463,6,6,0,0,1,1.8-.829,20.088,20.088,0,0,1,2.045-.441c.688-.106,1.357-.194,2.027-.264a14.553,14.553,0,0,0,1.78-.282,2.893,2.893,0,0,0,1.216-.564,1.241,1.241,0,0,0,.423-1.075,2.5,2.5,0,0,0-.247-1.181,1.7,1.7,0,0,0-.652-.67,2.546,2.546,0,0,0-.934-.317,7.758,7.758,0,0,0-1.146-.088,3.519,3.519,0,0,0-2.133.582,2.54,2.54,0,0,0-.9,1.939Zm10.577,3.385a2.2,2.2,0,0,1-.723.405c-.282.088-.6.176-.934.247a9.837,9.837,0,0,1-1.04.159c-.37.035-.723.088-1.093.159a9.637,9.637,0,0,0-1.022.264,2.662,2.662,0,0,0-.864.441,2.065,2.065,0,0,0-.6.687,2.136,2.136,0,0,0-.229,1.058,2,2,0,0,0,.229,1.022,1.692,1.692,0,0,0,.617.652,2.5,2.5,0,0,0,.9.335,5.249,5.249,0,0,0,1.058.088,4.07,4.07,0,0,0,2.1-.458,2.91,2.91,0,0,0,1.093-1.075,3.639,3.639,0,0,0,.441-1.269,9.186,9.186,0,0,0,.088-1.022v-1.692Z" transform="translate(-383.09 -280.62)"/></g><g class="e" transform="matrix(1, 0, 0, 1, 89.9, 226.01)"><path class="a" d="M589.272,352.141v2.327h.088a5.3,5.3,0,0,1,2.256-2.115,6.487,6.487,0,0,1,2.838-.652,7.81,7.81,0,0,1,3.014.494,4.52,4.52,0,0,1,1.851,1.393,5.213,5.213,0,0,1,.952,2.151,13.755,13.755,0,0,1,.282,2.82V368.8h-4.566v-9.413a5.781,5.781,0,0,0-.652-3.085,2.518,2.518,0,0,0-2.292-1.022,3.188,3.188,0,0,0-2.715,1.111,6.112,6.112,0,0,0-.846,3.649v8.726H584.9V352.105h4.372Z" transform="translate(-472.79 -280.7)"/></g><g class="d" transform="matrix(1, 0, 0, 1, 89.9, 226.01)"><path class="a" d="M695,318.2h9.607a13.22,13.22,0,0,1,2.838.3,6.615,6.615,0,0,1,2.327,1,4.9,4.9,0,0,1,1.569,1.816,6.351,6.351,0,0,1,.564,2.8,5.991,5.991,0,0,1-1.3,3.913,5.66,5.66,0,0,1-3.631,1.974v.071a5.31,5.31,0,0,1,2.5.846,3.952,3.952,0,0,1,1.375,1.587,6.369,6.369,0,0,1,.582,2.062,19.359,19.359,0,0,1,.123,2.256v1.322a9.055,9.055,0,0,0,.07,1.216,4.732,4.732,0,0,0,.212,1.04,2.193,2.193,0,0,0,.405.811h-1.586a4.2,4.2,0,0,1-.494-1.886c-.035-.723-.053-1.463-.053-2.239s-.035-1.534-.088-2.309a4.87,4.87,0,0,0-.617-2.045,3.634,3.634,0,0,0-1.622-1.446,7.159,7.159,0,0,0-3.138-.547h-8.179v10.471h-1.41V318.2Zm9.607,11.317a8.75,8.75,0,0,0,2.327-.3,5.12,5.12,0,0,0,1.851-.952A4.44,4.44,0,0,0,710,326.626a5.788,5.788,0,0,0,.458-2.38,4.728,4.728,0,0,0-.476-2.2,4.256,4.256,0,0,0-1.287-1.5,5.329,5.329,0,0,0-1.869-.846,9.126,9.126,0,0,0-2.221-.264h-8.179v10.083Z" transform="translate(-563.49 -253.11)"/></g><g class="c" transform="matrix(1, 0, 0, 1, 89.9, 226.01)"><path class="a" d="M805.634,361.514v.194a9.548,9.548,0,0,0,.388,2.768,7.177,7.177,0,0,0,1.146,2.327,5.534,5.534,0,0,0,1.9,1.587,5.8,5.8,0,0,0,2.662.582,5.734,5.734,0,0,0,3.949-1.3,6.838,6.838,0,0,0,2.01-3.631h1.216a7.452,7.452,0,0,1-2.362,4.442,7.238,7.238,0,0,1-4.812,1.551,7.605,7.605,0,0,1-3.208-.652,6.586,6.586,0,0,1-2.292-1.8,7.445,7.445,0,0,1-1.375-2.715,12.137,12.137,0,0,1-.458-3.367,11.53,11.53,0,0,1,.476-3.332,8.7,8.7,0,0,1,1.393-2.8,6.927,6.927,0,0,1,2.327-1.939,7.158,7.158,0,0,1,3.3-.723,6.9,6.9,0,0,1,3.085.652,6.308,6.308,0,0,1,2.239,1.763,8.02,8.02,0,0,1,1.375,2.574,10.088,10.088,0,0,1,.458,3.138,2.89,2.89,0,0,1-.017.37,2.485,2.485,0,0,0-.018.335h-13.38Zm12.181-1.075a9.243,9.243,0,0,0-.458-2.556,6.376,6.376,0,0,0-1.146-2.133,5.9,5.9,0,0,0-1.833-1.463,5.351,5.351,0,0,0-2.468-.547,5.8,5.8,0,0,0-2.609.564,5.663,5.663,0,0,0-1.9,1.481,6.719,6.719,0,0,0-1.2,2.151,9.421,9.421,0,0,0-.511,2.521h12.128Z" transform="translate(-653.6 -281.53)"/></g><g class="b" transform="matrix(1, 0, 0, 1, 89.9, 226.01)"><path class="a" d="M893.5,324.474v-1.058h2.962V320a3.554,3.554,0,0,1,.282-1.5,2.712,2.712,0,0,1,.793-1.022,3.283,3.283,0,0,1,1.163-.582,5.109,5.109,0,0,1,1.393-.194,8.679,8.679,0,0,1,1.445.159v1.058a8.867,8.867,0,0,0-1.445-.159,3.11,3.11,0,0,0-1.728.458,2.113,2.113,0,0,0-.688,1.851v3.314h3.455v1.058h-3.455v15.5h-1.216v-15.5H893.5Z" transform="translate(-726.99 -251.87)"/></g></g></svg>